<svg xmlns="http://www.w3.org/2000/svg" xmlns:xlink="http://www.w3.org/1999/xlink" width="1920" zoomAndPan="magnify" viewBox="0 0 1440 809.999993" height="1080" preserveAspectRatio="xMidYMid meet" version="1.0"><path fill="#febbaa" d="M 1012.039062 738.828125 C 964.785156 741.984375 902.808594 749.925781 860.71875 728.285156 C 837.957031 716.574219 817.03125 701.582031 794.308594 689.753906 C 775.613281 680.117188 755.765625 672.585938 736.859375 663.414062 C 727.148438 658.683594 717.671875 653.523438 708.425781 647.933594 C 699.183594 642.347656 690.210938 636.351562 681.511719 629.949219 C 672.8125 623.550781 664.417969 616.769531 656.332031 609.609375 C 648.246094 602.449219 640.5 594.9375 633.09375 587.074219 C 625.6875 579.210938 618.652344 571.03125 611.984375 562.535156 C 605.320312 554.035156 599.050781 545.253906 593.183594 536.1875 C 587.3125 527.121094 581.863281 517.808594 576.835938 508.25 C 571.8125 498.6875 567.226562 488.921875 563.085938 478.949219 C 553.890625 456.519531 546.894531 432.898438 533.523438 412.667969 C 521.496094 394.441406 504.015625 378.121094 501.394531 356.464844 C 500.835938 351.839844 501.125 346.832031 504.054688 343.132812 C 509.585938 336.253906 521.167969 338.664062 527.546875 344.769531 C 533.925781 350.878906 537.183594 359.472656 542.753906 366.351562 C 548.324219 373.226562 558.074219 378.449219 565.878906 374.210938 C 577.25 368.007812 572.335938 351.1875 572.683594 338.296875 C 573.164062 320.722656 586.382812 305.734375 588.484375 288.203125 C 590.21875 273.808594 584.246094 259.722656 581.683594 245.445312 C 581.34375 243.394531 581.074219 241.335938 580.875 239.265625 C 580.675781 237.195312 580.542969 235.121094 580.484375 233.042969 C 580.421875 230.964844 580.429688 228.886719 580.507812 226.808594 C 580.582031 224.734375 580.730469 222.660156 580.945312 220.59375 C 581.160156 218.523438 581.445312 216.464844 581.796875 214.417969 C 582.152344 212.367188 582.574219 210.332031 583.0625 208.3125 C 583.550781 206.289062 584.105469 204.289062 584.726562 202.304688 C 585.351562 200.320312 586.039062 198.359375 586.792969 196.421875 C 587.546875 194.484375 588.363281 192.574219 589.242188 190.691406 C 590.125 188.808594 591.066406 186.957031 592.070312 185.136719 C 593.078125 183.316406 594.140625 181.53125 595.265625 179.78125 C 596.386719 178.03125 597.570312 176.320312 598.808594 174.648438 C 600.046875 172.980469 601.335938 171.351562 602.683594 169.769531 C 604.03125 168.183594 605.429688 166.644531 606.878906 165.15625 C 608.328125 163.664062 609.824219 162.222656 611.371094 160.832031 C 612.914062 159.441406 614.503906 158.101562 616.140625 156.816406 C 626.488281 148.78125 638.898438 142.847656 647.109375 132.597656 C 655.320312 122.347656 658.441406 108.765625 661.640625 95.894531 C 664.839844 83.023438 668.886719 69.59375 678.292969 60.308594 C 687.695312 51.019531 704.597656 47.820312 714.234375 56.972656 C 723.871094 66.125 721.769531 82.40625 715.871094 94.449219 C 709.972656 106.492188 701.089844 117.570312 699.144531 130.785156 C 695.867188 153.273438 713.5 174.15625 713.136719 196.875 C 712.960938 207.894531 708.527344 218.335938 704.171875 228.472656 L 677.480469 290.609375 C 668.558594 311.378906 659.539062 332.515625 656.863281 354.960938 C 654.183594 377.410156 658.671875 401.742188 673.957031 418.449219 C 676.980469 421.742188 681.085938 424.921875 685.519531 424.074219 C 693.921875 422.457031 693.113281 410.375 691.03125 402.109375 C 688.949219 393.84375 692.050781 381.050781 700.339844 383.171875 C 702.082031 385.207031 703.761719 387.292969 705.375 389.4375 C 706.984375 391.578125 708.523438 393.773438 709.996094 396.011719 C 711.464844 398.253906 712.863281 400.542969 714.1875 402.875 C 715.507812 405.203125 716.757812 407.574219 717.925781 409.988281 C 719.097656 412.398438 720.191406 414.84375 721.207031 417.328125 C 722.21875 419.808594 723.152344 422.320312 724.003906 424.863281 C 724.859375 427.402344 725.628906 429.96875 726.316406 432.558594 C 727.003906 435.152344 727.609375 437.761719 728.128906 440.390625 C 728.648438 443.019531 729.082031 445.664062 729.433594 448.320312 C 729.785156 450.980469 730.050781 453.644531 730.226562 456.320312 C 730.40625 458.996094 730.5 461.671875 730.507812 464.355469 C 730.515625 467.035156 730.4375 469.710938 730.269531 472.386719 C 730.105469 475.0625 729.855469 477.730469 729.519531 480.390625 C 729.183594 483.050781 728.761719 485.695312 728.257812 488.328125 C 727.75 490.960938 727.160156 493.574219 726.484375 496.167969 C 725.8125 498.765625 725.054688 501.335938 724.214844 503.878906 C 720.746094 514.015625 715.871094 524.035156 715.8125 534.707031 C 715.8125 548.886719 724.234375 561.875 734.640625 571.566406 C 745.050781 581.257812 757.480469 588.484375 768.542969 597.421875 C 790.03125 614.765625 805.753906 638.097656 824.875 658.019531 C 867.464844 702.335938 950.449219 736.707031 1012.039062 738.789062 " fill-opacity="1" fill-rule="nonzero"/><path fill="#fe5f49" d="M 862.472656 715.996094 C 856.761719 717.050781 851.003906 717.585938 845.195312 717.601562 C 839.386719 717.613281 833.625 717.105469 827.910156 716.074219 C 822.195312 715.042969 816.621094 713.503906 811.183594 711.460938 C 805.75 709.417969 800.539062 706.902344 795.5625 703.914062 C 783.207031 696.4375 772.761719 686.265625 761.160156 677.652344 C 715.46875 643.761719 654.183594 635.6875 609.453125 600.582031 C 597.558594 591.246094 587.277344 580.378906 578.617188 567.984375 C 570.910156 557.039062 564.703125 544.863281 562.851562 531.605469 C 561.003906 518.351562 564.011719 504.109375 573.007812 494.246094 C 574.289062 492.714844 575.730469 491.367188 577.34375 490.195312 C 578.957031 489.019531 580.6875 488.0625 582.539062 487.320312 C 584.386719 486.578125 586.300781 486.070312 588.273438 485.800781 C 590.25 485.535156 592.226562 485.507812 594.207031 485.730469 C 610.472656 486.867188 624.195312 498.792969 632.90625 512.511719 C 641.617188 526.230469 646.570312 541.953125 653.46875 556.632812 C 660.367188 571.316406 670.21875 585.707031 684.960938 592.644531 C 699.125 599.292969 716.335938 598.425781 729.554688 606.710938 C 739.191406 612.816406 745.320312 622.992188 751.371094 632.644531 C 763.648438 652.199219 777.234375 671.179688 794.191406 686.863281 C 811.152344 702.546875 839.730469 711.484375 862.433594 715.996094 " fill-opacity="1" fill-rule="nonzero"/><path fill="#fe5f49" d="M 614.675781 471.972656 C 596.328125 439.796875 579.851562 372.535156 570.601562 360.648438 C 565.472656 354.058594 558.921875 348.566406 554.566406 341.378906 C 552.617188 338.164062 551.175781 334.734375 550.238281 331.089844 C 549.304688 327.449219 548.914062 323.75 549.074219 319.992188 C 549.652344 307.042969 556.78125 294.558594 554.722656 281.785156 C 553.546875 274.617188 549.574219 268.296875 545.953125 261.941406 C 541.292969 253.804688 537.121094 245.421875 533.445312 236.796875 C 532.226562 234.265625 531.4375 231.605469 531.074219 228.820312 C 530.476562 221.574219 535.566406 215.082031 541.230469 210.476562 C 546.894531 205.871094 553.449219 202.113281 557.824219 196.335938 C 565.53125 186.101562 564.605469 172.078125 566.902344 159.476562 C 567.839844 154.367188 569.339844 149.425781 571.40625 144.660156 C 573.46875 139.890625 576.039062 135.414062 579.117188 131.230469 C 580.085938 129.710938 581.371094 128.542969 582.972656 127.722656 C 584.558594 127.136719 586.167969 127.078125 587.792969 127.550781 C 597.136719 129.746094 601.726562 140.84375 601.050781 150.402344 C 600.375 159.957031 596.058594 168.859375 594.074219 178.222656 C 592.574219 186.886719 592.164062 195.601562 592.839844 204.367188 C 593.359375 216.488281 594.207031 228.703125 597.582031 240.359375 C 599.894531 248.394531 603.363281 256.101562 604.828125 264.328125 C 608.683594 286.871094 596.925781 308.796875 591.839844 331.109375 C 589.933594 339.496094 588.980469 347.992188 588.980469 356.589844 C 588.980469 365.191406 589.933594 373.683594 591.839844 382.070312 C 593.148438 387.851562 594.902344 395.136719 596.578125 400.800781 C 606.023438 432.804688 599.277344 439.335938 614.714844 471.914062 " fill-opacity="1" fill-rule="nonzero"/><path fill="#fe5f49" d="M 687.945312 219.457031 C 694.191406 185.679688 725.640625 130.480469 728.417969 122.230469 L 740.386719 86.144531 C 743.625 76.394531 747.09375 66.261719 754.339844 58.957031 C 760.292969 52.964844 768.273438 49.441406 774.882812 44.179688 C 780.363281 39.675781 784.957031 34.394531 788.660156 28.34375 C 790.742188 25.046875 792.765625 21.484375 796.121094 19.480469 C 799.472656 17.476562 804.65625 17.9375 806.332031 21.40625 C 807.546875 23.96875 806.488281 26.953125 805.429688 29.574219 C 803.921875 33.875 801.84375 37.882812 799.203125 41.597656 C 795.945312 45.742188 791.496094 48.746094 788.101562 52.851562 C 777.019531 66.605469 782.320312 88.957031 770.507812 102.058594 C 763.320312 110.015625 751.429688 112.484375 744.277344 120.460938 C 737.128906 128.4375 698.355469 178.550781 687.945312 219.457031 " fill-opacity="1" fill-rule="nonzero"/><path fill="#febbaa" d="M 898.914062 738.828125 C 960.585938 736.765625 1043.453125 702.449219 1086.082031 658.058594 C 1105.199219 638.136719 1120.925781 614.820312 1142.414062 597.460938 C 1153.476562 588.523438 1165.90625 581.277344 1176.3125 571.605469 C 1186.71875 561.933594 1195.21875 548.945312 1195.140625 534.746094 C 1195.140625 524.035156 1190.207031 514.015625 1186.738281 503.917969 C 1185.902344 501.371094 1185.144531 498.804688 1184.472656 496.207031 C 1183.796875 493.613281 1183.207031 491 1182.703125 488.371094 C 1182.195312 485.738281 1181.777344 483.089844 1181.441406 480.433594 C 1181.105469 477.773438 1180.855469 475.105469 1180.6875 472.429688 C 1180.523438 469.757812 1180.445312 467.078125 1180.453125 464.398438 C 1180.460938 461.71875 1180.554688 459.039062 1180.734375 456.367188 C 1180.914062 453.691406 1181.175781 451.027344 1181.527344 448.371094 C 1181.878906 445.710938 1182.3125 443.070312 1182.832031 440.441406 C 1183.355469 437.808594 1183.957031 435.199219 1184.644531 432.609375 C 1185.332031 430.019531 1186.101562 427.453125 1186.957031 424.914062 C 1187.808594 422.371094 1188.742188 419.859375 1189.753906 417.378906 C 1190.769531 414.898438 1191.863281 412.453125 1193.03125 410.042969 C 1194.203125 407.628906 1195.449219 405.257812 1196.773438 402.929688 C 1198.097656 400.597656 1199.492188 398.3125 1200.964844 396.070312 C 1202.433594 393.828125 1203.972656 391.636719 1205.585938 389.492188 C 1207.195312 387.351562 1208.871094 385.261719 1210.617188 383.226562 C 1218.90625 381.109375 1222.007812 393.902344 1219.925781 402.167969 C 1217.84375 410.433594 1217.035156 422.535156 1225.4375 424.132812 C 1229.832031 424.980469 1233.957031 421.800781 1237 418.507812 C 1252.285156 401.800781 1256.773438 377.46875 1254.09375 355.019531 C 1251.417969 332.574219 1242.398438 311.4375 1233.472656 290.667969 L 1206.761719 228.472656 C 1202.40625 218.335938 1197.996094 207.894531 1197.800781 196.875 C 1197.4375 174.15625 1215.148438 153.273438 1211.792969 130.785156 C 1209.867188 117.53125 1200.960938 106.511719 1195.066406 94.449219 C 1189.167969 82.386719 1186.972656 66.203125 1196.703125 56.972656 C 1206.4375 47.746094 1223.144531 51.019531 1232.644531 60.308594 C 1242.144531 69.59375 1246.136719 83.003906 1249.296875 95.894531 C 1252.457031 108.785156 1255.519531 122.230469 1263.828125 132.597656 C 1272.132812 142.964844 1284.390625 148.800781 1294.835938 156.796875 C 1296.46875 158.082031 1298.0625 159.421875 1299.605469 160.8125 C 1301.152344 162.203125 1302.648438 163.644531 1304.097656 165.136719 C 1305.546875 166.625 1306.945312 168.164062 1308.292969 169.75 C 1309.636719 171.332031 1310.929688 172.960938 1312.167969 174.632812 C 1313.40625 176.300781 1314.585938 178.011719 1315.710938 179.761719 C 1316.835938 181.511719 1317.898438 183.296875 1318.902344 185.117188 C 1319.910156 186.9375 1320.851562 188.789062 1321.730469 190.671875 C 1322.613281 192.554688 1323.429688 194.464844 1324.183594 196.402344 C 1324.9375 198.339844 1325.625 200.300781 1326.246094 202.285156 C 1326.871094 204.269531 1327.425781 206.273438 1327.914062 208.292969 C 1328.402344 210.3125 1328.824219 212.347656 1329.175781 214.398438 C 1329.53125 216.445312 1329.816406 218.503906 1330.03125 220.574219 C 1330.246094 222.640625 1330.390625 224.714844 1330.46875 226.789062 C 1330.546875 228.867188 1330.554688 230.945312 1330.492188 233.023438 C 1330.429688 235.101562 1330.300781 237.175781 1330.101562 239.246094 C 1329.898438 241.316406 1329.632812 243.375 1329.292969 245.425781 C 1326.730469 259.703125 1320.757812 273.769531 1322.492188 288.183594 C 1324.589844 305.636719 1337.90625 320.628906 1338.292969 338.277344 C 1338.660156 351.1875 1333.746094 367.988281 1345.097656 374.191406 C 1352.804688 378.429688 1362.652344 373.207031 1368.222656 366.332031 C 1373.792969 359.453125 1377.050781 350.917969 1383.429688 344.75 C 1389.808594 338.585938 1401.390625 336.253906 1406.921875 343.113281 C 1409.851562 346.734375 1410.140625 351.820312 1409.578125 356.445312 C 1406.960938 378.101562 1389.480469 394.421875 1377.453125 412.648438 C 1364.078125 432.878906 1357.082031 456.5 1347.890625 478.929688 C 1343.75 488.90625 1339.167969 498.671875 1334.140625 508.234375 C 1329.113281 517.796875 1323.667969 527.109375 1317.796875 536.179688 C 1311.929688 545.246094 1305.660156 554.03125 1298.996094 562.53125 C 1292.332031 571.03125 1285.296875 579.210938 1277.890625 587.078125 C 1270.484375 594.941406 1262.734375 602.453125 1254.648438 609.613281 C 1246.5625 616.777344 1238.167969 623.558594 1229.46875 629.960938 C 1220.765625 636.363281 1211.792969 642.359375 1202.550781 647.949219 C 1193.304688 653.539062 1183.828125 658.699219 1174.117188 663.433594 C 1155.152344 672.585938 1135.363281 680.0625 1116.667969 689.773438 C 1093.945312 701.5625 1073.015625 716.554688 1050.257812 728.304688 C 1008.167969 749.960938 946.1875 742.023438 898.933594 738.84375 " fill-opacity="1" fill-rule="nonzero"/><path fill="#fe5f49" d="M 1048.542969 715.996094 C 1071.242188 711.484375 1099.824219 702.507812 1116.785156 686.863281 C 1133.742188 671.21875 1147.328125 652.179688 1159.605469 632.644531 C 1165.65625 623.011719 1171.785156 612.816406 1181.421875 606.710938 C 1194.640625 598.347656 1211.851562 599.292969 1226.015625 592.644531 C 1240.757812 585.707031 1250.550781 571.335938 1257.507812 556.632812 C 1264.464844 541.933594 1269.359375 526.191406 1278.070312 512.472656 C 1286.78125 498.753906 1300.5 486.808594 1316.765625 485.691406 C 1318.746094 485.472656 1320.726562 485.496094 1322.703125 485.765625 C 1324.675781 486.035156 1326.589844 486.539062 1328.4375 487.28125 C 1330.289062 488.027344 1332.019531 488.984375 1333.632812 490.15625 C 1335.242188 491.328125 1336.6875 492.679688 1337.964844 494.207031 C 1346.964844 504.074219 1349.972656 518.371094 1348.121094 531.566406 C 1346.273438 544.765625 1339.988281 557 1332.359375 567.945312 C 1323.695312 580.339844 1313.417969 591.207031 1301.523438 600.542969 C 1256.792969 635.6875 1195.527344 643.761719 1149.816406 677.613281 C 1138.253906 686.207031 1127.769531 696.378906 1115.414062 703.875 C 1110.4375 706.863281 1105.234375 709.382812 1099.804688 711.425781 C 1094.371094 713.472656 1088.796875 715.011719 1083.085938 716.046875 C 1077.375 717.082031 1071.617188 717.59375 1065.8125 717.585938 C 1060.007812 717.578125 1054.25 717.046875 1048.542969 715.996094 " fill-opacity="1" fill-rule="nonzero"/><path fill="#fe5f49" d="M 1296.28125 471.972656 C 1311.699219 439.410156 1304.972656 432.859375 1314.414062 400.859375 C 1316.09375 395.191406 1317.847656 387.851562 1319.15625 382.128906 C 1321.0625 373.742188 1322.011719 365.25 1322.011719 356.648438 C 1322.011719 348.046875 1321.0625 339.554688 1319.15625 331.167969 C 1314.070312 308.855469 1302.234375 286.851562 1306.167969 264.386719 C 1307.613281 256.160156 1311.101562 248.433594 1313.414062 240.417969 C 1316.785156 228.761719 1317.632812 216.546875 1318.15625 204.425781 C 1318.832031 195.660156 1318.421875 186.945312 1316.921875 178.28125 C 1314.992188 168.898438 1310.636719 160.015625 1309.945312 150.457031 C 1309.25 140.902344 1313.800781 129.824219 1323.203125 127.609375 C 1324.828125 127.136719 1326.433594 127.195312 1328.023438 127.78125 C 1329.625 128.601562 1330.910156 129.769531 1331.875 131.289062 C 1334.957031 135.472656 1337.527344 139.949219 1339.589844 144.714844 C 1341.652344 149.484375 1343.15625 154.425781 1344.09375 159.535156 C 1346.40625 172.132812 1345.460938 186.160156 1353.171875 196.390625 C 1357.546875 202.171875 1364.136719 205.871094 1369.785156 210.476562 C 1375.429688 215.082031 1380.539062 221.574219 1379.941406 228.820312 C 1379.558594 231.609375 1378.75 234.265625 1377.511719 236.796875 C 1373.828125 245.441406 1369.65625 253.84375 1364.984375 261.996094 C 1361.382812 268.316406 1357.390625 274.65625 1356.214844 281.84375 C 1354.136719 294.617188 1361.285156 307.121094 1361.863281 320.050781 C 1362.019531 323.808594 1361.632812 327.507812 1360.699219 331.148438 C 1359.761719 334.792969 1358.320312 338.222656 1356.371094 341.4375 C 1352.035156 348.566406 1345.480469 354.058594 1340.335938 360.703125 C 1331.085938 372.59375 1314.609375 439.855469 1296.261719 472.03125 " fill-opacity="1" fill-rule="nonzero"/><path fill="#fe5f49" d="M 1223.007812 219.457031 C 1212.601562 178.492188 1173.960938 128.609375 1166.714844 120.535156 C 1159.46875 112.464844 1147.675781 110.09375 1140.488281 102.136719 C 1128.636719 89.035156 1133.972656 66.683594 1122.890625 52.925781 C 1119.578125 48.824219 1115.046875 45.816406 1111.792969 41.675781 C 1109.148438 37.960938 1107.074219 33.953125 1105.566406 29.652344 C 1104.507812 27.03125 1103.445312 24.027344 1104.660156 21.484375 C 1106.320312 17.957031 1111.523438 17.515625 1114.875 19.554688 C 1118.230469 21.597656 1120.253906 25.125 1122.332031 28.417969 C 1126.039062 34.472656 1130.628906 39.75 1136.113281 44.257812 C 1142.722656 49.515625 1150.703125 53.042969 1156.65625 59.035156 C 1163.902344 66.335938 1167.371094 76.375 1170.609375 86.222656 L 1182.578125 122.308594 C 1185.3125 130.535156 1216.765625 185.738281 1223.046875 219.53125 " fill-opacity="1" fill-rule="nonzero"/><path fill="#7333f9" d="M 764.167969 704.683594 L 764.167969 809.980469 L 665.4375 809.980469 L 665.4375 704.683594 L 476.167969 704.683594 L 476.167969 638.714844 L 636.78125 415.210938 L 741.65625 415.210938 L 595.867188 624.378906 L 668.5 624.378906 L 668.5 563.511719 L 764.167969 563.511719 Z M 764.167969 704.683594 " fill-opacity="1" fill-rule="nonzero"/><path fill="#7333f9" d="M 881.109375 787.976562 C 857.238281 773.320312 838.5625 751.929688 825.085938 723.796875 C 811.59375 695.667969 804.886719 661.699219 804.886719 623.144531 C 804.886719 584.589844 811.613281 522.320312 825.085938 494.207031 C 838.554688 466.097656 857.230469 444.671875 881.109375 430.027344 C 904.984375 415.386719 932.273438 408.023438 962.976562 408.023438 C 993.320312 408.023438 1020.429688 415.359375 1044.300781 430.027344 C 1068.171875 444.695312 1086.847656 466.089844 1100.324219 494.207031 C 1113.816406 522.320312 1120.542969 584.628906 1120.542969 623.144531 C 1120.542969 661.660156 1113.796875 695.667969 1100.324219 723.796875 C 1086.855469 751.929688 1068.179688 773.335938 1044.300781 787.976562 C 1020.425781 802.621094 993.328125 809.980469 962.976562 809.980469 C 932.28125 809.980469 904.992188 802.644531 881.109375 787.976562 Z M 1003.621094 702.316406 C 1013.679688 685.765625 1018.707031 658.964844 1018.707031 623.144531 C 1018.707031 587.328125 1013.679688 532.222656 1003.621094 515.691406 C 993.558594 499.160156 980.011719 490.894531 962.976562 490.894531 C 945.578125 490.894531 931.84375 499.160156 921.773438 515.691406 C 911.710938 532.242188 906.683594 587.347656 906.683594 623.144531 C 906.683594 658.945312 911.710938 685.765625 921.773438 702.316406 C 931.832031 718.867188 945.574219 727.113281 962.976562 727.113281 C 980.023438 727.125 993.578125 718.867188 1003.636719 702.332031 Z M 1003.621094 702.316406 " fill-opacity="1" fill-rule="nonzero"/><path fill="#7333f9" d="M 1439.757812 704.683594 L 1439.757812 809.980469 L 1341.03125 809.980469 L 1341.03125 704.683594 L 1151.761719 704.683594 L 1151.761719 638.714844 L 1312.371094 415.210938 L 1417.25 415.210938 L 1271.441406 624.378906 L 1344.09375 624.378906 L 1344.09375 563.511719 L 1439.757812 563.511719 Z M 1439.757812 704.683594 " fill-opacity="1" fill-rule="nonzero"/><path fill="#1b2e34" d="M 912.808594 157.605469 C 909.167969 135.488281 927.417969 123.640625 927.417969 123.640625 C 927.417969 123.640625 921.195312 116.335938 918.515625 98.804688 C 917.222656 90.304688 914.292969 44.855469 919.75 28.667969 C 927.785156 4.933594 950.253906 0.0195312 963.128906 2.195312 C 976.003906 4.375 971.992188 7.109375 985.15625 6.050781 C 998.320312 4.992188 1006.355469 7.515625 1016.9375 19.921875 C 1027.515625 32.332031 1027.535156 68.496094 1035.207031 82.386719 C 1042.875 96.277344 1087.355469 124.679688 1055.304688 177.355469 C 1007.070312 256.601562 917.492188 186.46875 912.808594 157.605469 Z M 912.808594 157.605469 " fill-opacity="1" fill-rule="nonzero"/><path fill="#febbaa" d="M 918.398438 41.386719 L 918.398438 41.5 C 918.398438 41.808594 918.398438 42.175781 918.398438 42.542969 C 918.382812 42.78125 918.382812 43.019531 918.398438 43.253906 L 918.398438 44.335938 C 917.742188 54.894531 917.511719 76.433594 917.148438 87.453125 C 916.859375 96.933594 908.050781 99.652344 899.9375 100.613281 C 897.644531 100.902344 895.425781 101.039062 893.460938 101.152344 L 886.503906 72.675781 C 894.847656 71.480469 900.976562 55.027344 902.90625 45.703125 C 904.832031 36.375 909.882812 25.277344 915.085938 25.183594 C 918.226562 25.183594 919.074219 27.628906 919.265625 31.945312 C 919.183594 35.109375 918.894531 38.257812 918.398438 41.386719 Z M 918.398438 41.386719 " fill-opacity="1" fill-rule="nonzero"/><path fill="#7333f9" d="M 985.273438 157.355469 C 1013.601562 159.746094 1050.625 160.921875 1075.582031 200.054688 C 1093.773438 228.570312 1091.828125 245.660156 1095.140625 278.316406 C 1098.320312 309.453125 1093.347656 339.066406 1092.347656 352.574219 C 1092.3125 353.042969 1092.226562 353.503906 1092.089844 353.953125 C 1091.949219 354.402344 1091.761719 354.832031 1091.523438 355.238281 C 1091.285156 355.644531 1091.003906 356.019531 1090.679688 356.359375 C 1090.355469 356.703125 1089.996094 357.003906 1089.605469 357.261719 C 1089.210938 357.519531 1088.792969 357.730469 1088.351562 357.894531 C 1087.910156 358.058594 1087.453125 358.167969 1086.988281 358.226562 C 1086.519531 358.285156 1086.050781 358.289062 1085.582031 358.238281 C 1085.113281 358.1875 1084.660156 358.085938 1084.214844 357.929688 C 1073.902344 354.367188 1056.328125 347.101562 1053.261719 338.238281 C 1053.261719 338.238281 1057.65625 254.40625 1048.714844 246.332031 C 1040.8125 239.203125 1035.226562 349.894531 1035.226562 349.894531 L 894 349.894531 C 894 349.894531 885.65625 280.207031 884.671875 260.726562 C 883.691406 241.246094 875.039062 235.429688 849.425781 230.863281 C 825.007812 226.507812 775.789062 210.917969 777.117188 173.503906 C 779.699219 100.863281 884.925781 68.6875 884.925781 68.6875 C 884.925781 68.6875 894.675781 97.414062 893.210938 106.183594 C 893.210938 106.183594 826.472656 132.019531 827.9375 162.230469 C 828.804688 180.015625 859.601562 180.746094 874.191406 176.835938 C 888.777344 172.925781 914.238281 163.195312 940.984375 160.035156 " fill-opacity="1" fill-rule="nonzero"/><path fill="#f8f8f8" d="M 985.273438 157.355469 C 999.398438 172.578125 1007.183594 228.453125 1006.222656 260.609375 C 1005.449219 285.964844 1006.222656 347.199219 1006.222656 347.199219 C 976.292969 360.683594 926.742188 347.199219 926.742188 347.199219 C 926.742188 347.199219 923.949219 294.753906 920 265.484375 C 915.007812 228.472656 916.933594 180.015625 940.984375 160.054688 C 972.570312 151.847656 985.273438 157.355469 985.273438 157.355469 Z M 985.273438 157.355469 " fill-opacity="1" fill-rule="nonzero"/><path fill="#febbaa" d="M 1069.742188 598.097656 C 1054.035156 603.878906 1002.886719 593.339844 997.761719 579.101562 C 993.65625 567.695312 996.082031 560.910156 998.800781 549.699219 C 999.476562 546.902344 1000.265625 543.917969 1001.171875 540.71875 L 1044.476562 549.351562 C 1044.761719 551.753906 1045.519531 553.992188 1046.75 556.074219 C 1052.53125 564.417969 1067.738281 569.175781 1074.347656 573.992188 C 1082.34375 579.851562 1085.371094 592.242188 1069.742188 598.097656 Z M 1069.742188 598.097656 " fill-opacity="1" fill-rule="nonzero"/><path fill="#fe5f49" d="M 918.167969 44.316406 C 917.511719 54.875 917.28125 76.414062 916.914062 87.433594 C 916.625 96.914062 907.820312 99.632812 899.707031 100.59375 C 911.941406 96.664062 916.53125 63.292969 918.167969 44.316406 Z M 918.167969 44.316406 " fill-opacity="1" fill-rule="nonzero"/><path fill="#febbaa" d="M 917.492188 58.246094 C 935.839844 54.101562 944.472656 38.285156 944.472656 38.285156 C 944.472656 38.285156 953.78125 69.824219 979.835938 74.199219 C 979.835938 74.199219 983.34375 64.738281 993.191406 67.167969 C 1003.039062 69.59375 1000.746094 98.417969 986.851562 98.898438 C 986.851562 98.898438 992.402344 132.925781 962.976562 136.164062 C 934.203125 139.324219 924.972656 122.519531 924.972656 122.519531 C 924.972656 122.519531 911.710938 103.0625 917.492188 58.246094 Z M 917.492188 58.246094 " fill-opacity="1" fill-rule="nonzero"/><path fill="#febbaa" d="M 982.382812 124.351562 L 985.273438 157.355469 C 985.273438 157.355469 977.023438 176.625 963.128906 176.625 C 949.234375 176.625 940.984375 160.074219 940.984375 160.074219 L 940.984375 133.621094 Z M 982.382812 124.351562 " fill-opacity="1" fill-rule="nonzero"/><path fill="#fe5f49" d="M 940.984375 133.621094 C 968.21875 136.414062 982.382812 124.351562 982.382812 124.351562 L 983.730469 139.765625 C 983.730469 139.765625 956.558594 142.078125 940.984375 133.621094 Z M 940.984375 133.621094 " fill-opacity="1" fill-rule="nonzero"/><path fill="#1b2e34" d="M 956.035156 84.238281 C 956.035156 84.539062 956.007812 84.839844 955.949219 85.136719 C 955.890625 85.433594 955.800781 85.71875 955.6875 86 C 955.570312 86.277344 955.429688 86.542969 955.261719 86.796875 C 955.09375 87.046875 954.902344 87.277344 954.6875 87.492188 C 954.472656 87.707031 954.242188 87.898438 953.988281 88.066406 C 953.738281 88.234375 953.472656 88.375 953.195312 88.492188 C 952.914062 88.605469 952.625 88.695312 952.328125 88.753906 C 952.03125 88.8125 951.734375 88.84375 951.429688 88.84375 C 951.128906 88.84375 950.828125 88.8125 950.53125 88.753906 C 950.234375 88.695312 949.949219 88.605469 949.667969 88.492188 C 949.390625 88.375 949.125 88.234375 948.871094 88.066406 C 948.621094 87.898438 948.386719 87.707031 948.175781 87.492188 C 947.960938 87.277344 947.769531 87.046875 947.601562 86.796875 C 947.433594 86.542969 947.292969 86.277344 947.175781 86 C 947.058594 85.71875 946.972656 85.433594 946.914062 85.136719 C 946.855469 84.839844 946.824219 84.539062 946.824219 84.238281 C 946.824219 83.933594 946.855469 83.636719 946.914062 83.339844 C 946.972656 83.042969 947.058594 82.753906 947.175781 82.476562 C 947.292969 82.195312 947.433594 81.929688 947.601562 81.679688 C 947.769531 81.425781 947.960938 81.195312 948.175781 80.980469 C 948.386719 80.765625 948.621094 80.574219 948.871094 80.40625 C 949.125 80.238281 949.390625 80.097656 949.667969 79.984375 C 949.949219 79.867188 950.234375 79.78125 950.53125 79.71875 C 950.828125 79.660156 951.128906 79.632812 951.429688 79.632812 C 951.734375 79.632812 952.03125 79.660156 952.328125 79.71875 C 952.625 79.78125 952.914062 79.867188 953.195312 79.984375 C 953.472656 80.097656 953.738281 80.238281 953.988281 80.40625 C 954.242188 80.574219 954.472656 80.765625 954.6875 80.980469 C 954.902344 81.195312 955.09375 81.425781 955.261719 81.679688 C 955.429688 81.929688 955.570312 82.195312 955.6875 82.476562 C 955.800781 82.753906 955.890625 83.042969 955.949219 83.339844 C 956.007812 83.636719 956.035156 83.933594 956.035156 84.238281 Z M 940.964844 105.101562 C 940.964844 104.847656 940.917969 104.601562 940.820312 104.367188 C 940.722656 104.128906 940.582031 103.921875 940.402344 103.742188 C 940.222656 103.558594 940.011719 103.421875 939.777344 103.324219 C 939.539062 103.226562 939.292969 103.175781 939.039062 103.175781 C 938 103.175781 937.246094 102.945312 937.113281 102.636719 C 936.628906 101.945312 937.113281 99.746094 938.382812 96.144531 C 938.472656 95.902344 938.511719 95.65625 938.503906 95.398438 C 938.492188 95.144531 938.433594 94.898438 938.324219 94.667969 C 938.21875 94.433594 938.070312 94.230469 937.882812 94.058594 C 937.695312 93.882812 937.480469 93.753906 937.238281 93.664062 C 937 93.574219 936.75 93.539062 936.492188 93.546875 C 936.238281 93.558594 935.992188 93.617188 935.761719 93.726562 C 935.527344 93.832031 935.324219 93.980469 935.152344 94.171875 C 934.980469 94.359375 934.847656 94.574219 934.761719 94.816406 C 933.066406 99.4375 932.371094 102.523438 933.914062 104.816406 C 934.519531 105.597656 935.273438 106.183594 936.183594 106.578125 C 937.089844 106.972656 938.035156 107.121094 939.019531 107.03125 C 939.269531 107.023438 939.511719 106.96875 939.738281 106.867188 C 939.96875 106.765625 940.171875 106.625 940.34375 106.445312 C 940.519531 106.265625 940.65625 106.058594 940.75 105.828125 C 940.84375 105.59375 940.890625 105.355469 940.890625 105.101562 Z M 960.140625 75.605469 C 960.191406 75.355469 960.195312 75.105469 960.144531 74.851562 C 960.097656 74.601562 960.003906 74.371094 959.863281 74.15625 C 959.71875 73.945312 959.542969 73.765625 959.332031 73.621094 C 959.121094 73.480469 958.890625 73.382812 958.640625 73.332031 C 957.542969 73.074219 956.511719 72.660156 955.539062 72.089844 C 954.570312 71.519531 953.707031 70.820312 952.949219 69.984375 C 952.191406 69.152344 951.574219 68.226562 951.101562 67.207031 C 950.625 66.1875 950.3125 65.121094 950.160156 64.007812 C 950.113281 63.75 950.023438 63.511719 949.882812 63.292969 C 949.746094 63.074219 949.570312 62.890625 949.355469 62.742188 C 949.144531 62.59375 948.910156 62.492188 948.65625 62.433594 C 948.40625 62.378906 948.148438 62.371094 947.894531 62.417969 C 947.640625 62.460938 947.402344 62.554688 947.183594 62.691406 C 946.964844 62.832031 946.78125 63.007812 946.628906 63.21875 C 946.480469 63.433594 946.378906 63.664062 946.324219 63.917969 C 946.265625 64.171875 946.261719 64.425781 946.304688 64.679688 C 946.414062 65.425781 946.578125 66.160156 946.796875 66.882812 C 947.015625 67.601562 947.289062 68.304688 947.613281 68.984375 C 947.9375 69.664062 948.3125 70.3125 948.738281 70.9375 C 949.164062 71.558594 949.632812 72.148438 950.144531 72.699219 C 950.660156 73.25 951.210938 73.761719 951.800781 74.230469 C 952.394531 74.699219 953.015625 75.117188 953.671875 75.492188 C 954.324219 75.867188 955.003906 76.1875 955.707031 76.460938 C 956.410156 76.730469 957.132812 76.945312 957.867188 77.109375 L 958.253906 77.109375 C 958.6875 77.089844 959.070312 76.9375 959.402344 76.660156 C 959.738281 76.378906 959.949219 76.027344 960.046875 75.605469 Z M 924.429688 75.335938 C 925.132812 75.28125 925.828125 75.171875 926.515625 75.011719 C 927.203125 74.847656 927.875 74.636719 928.527344 74.375 C 929.183594 74.113281 929.816406 73.804688 930.421875 73.445312 C 931.03125 73.089844 931.609375 72.6875 932.15625 72.242188 C 932.703125 71.796875 933.214844 71.316406 933.6875 70.792969 C 934.164062 70.273438 934.597656 69.71875 934.988281 69.128906 C 935.378906 68.542969 935.722656 67.929688 936.019531 67.289062 C 936.316406 66.652344 936.566406 65.992188 936.765625 65.316406 C 936.832031 65.078125 936.855469 64.832031 936.828125 64.585938 C 936.800781 64.335938 936.730469 64.101562 936.613281 63.882812 C 936.496094 63.664062 936.34375 63.472656 936.152344 63.3125 C 935.960938 63.152344 935.746094 63.035156 935.511719 62.957031 C 935.273438 62.878906 935.03125 62.847656 934.78125 62.867188 C 934.53125 62.882812 934.296875 62.945312 934.070312 63.054688 C 933.847656 63.164062 933.652344 63.308594 933.484375 63.492188 C 933.316406 63.679688 933.191406 63.886719 933.105469 64.121094 C 932.820312 65.113281 932.394531 66.042969 931.828125 66.90625 C 931.261719 67.769531 930.582031 68.53125 929.785156 69.1875 C 928.988281 69.84375 928.113281 70.367188 927.15625 70.757812 C 926.203125 71.148438 925.210938 71.390625 924.179688 71.480469 C 923.925781 71.488281 923.679688 71.542969 923.449219 71.648438 C 923.214844 71.75 923.007812 71.894531 922.832031 72.082031 C 922.65625 72.265625 922.523438 72.476562 922.429688 72.714844 C 922.339844 72.953125 922.296875 73.203125 922.304688 73.457031 C 922.308594 73.710938 922.363281 73.957031 922.46875 74.191406 C 922.570312 74.421875 922.714844 74.628906 922.902344 74.804688 C 923.085938 74.980469 923.296875 75.113281 923.535156 75.207031 C 923.773438 75.296875 924.023438 75.339844 924.277344 75.335938 Z M 930.386719 78.339844 C 930.082031 78.332031 929.78125 78.351562 929.480469 78.402344 C 929.179688 78.449219 928.886719 78.527344 928.601562 78.636719 C 928.316406 78.746094 928.042969 78.878906 927.785156 79.042969 C 927.527344 79.203125 927.289062 79.386719 927.066406 79.597656 C 926.847656 79.808594 926.648438 80.035156 926.472656 80.285156 C 926.296875 80.53125 926.144531 80.796875 926.023438 81.074219 C 925.898438 81.351562 925.804688 81.640625 925.738281 81.9375 C 925.671875 82.234375 925.632812 82.535156 925.628906 82.839844 C 925.621094 83.144531 925.644531 83.445312 925.695312 83.746094 C 925.75 84.046875 925.832031 84.335938 925.941406 84.621094 C 926.054688 84.90625 926.191406 85.175781 926.355469 85.429688 C 926.519531 85.6875 926.707031 85.925781 926.921875 86.144531 C 927.132812 86.363281 927.363281 86.558594 927.613281 86.730469 C 927.863281 86.90625 928.128906 87.050781 928.410156 87.171875 C 928.6875 87.292969 928.976562 87.382812 929.273438 87.449219 C 929.574219 87.511719 929.875 87.542969 930.179688 87.546875 C 930.484375 87.550781 930.785156 87.523438 931.085938 87.46875 C 931.382812 87.414062 931.675781 87.328125 931.957031 87.214844 C 932.238281 87.097656 932.507812 86.957031 932.761719 86.792969 C 933.015625 86.625 933.253906 86.433594 933.46875 86.21875 C 933.6875 86.003906 933.878906 85.773438 934.050781 85.519531 C 934.21875 85.265625 934.363281 85 934.480469 84.71875 C 934.597656 84.4375 934.6875 84.148438 934.746094 83.851562 C 934.808594 83.550781 934.835938 83.25 934.839844 82.945312 C 934.839844 82.648438 934.808594 82.351562 934.75 82.058594 C 934.695312 81.761719 934.609375 81.476562 934.496094 81.203125 C 934.382812 80.925781 934.242188 80.660156 934.078125 80.410156 C 933.914062 80.160156 933.726562 79.929688 933.515625 79.71875 C 933.304688 79.503906 933.078125 79.3125 932.832031 79.144531 C 932.585938 78.976562 932.324219 78.832031 932.046875 78.714844 C 931.773438 78.59375 931.488281 78.503906 931.195312 78.441406 C 930.902344 78.378906 930.609375 78.347656 930.308594 78.339844 Z M 930.386719 78.339844 " fill-opacity="1" fill-rule="nonzero"/><path fill="#fe5f49" d="M 961.820312 221.882812 L 969.738281 226.21875 C 970.167969 226.453125 970.507812 226.78125 970.757812 227.203125 C 971.007812 227.625 971.132812 228.078125 971.132812 228.570312 C 971.132812 229.058594 971.007812 229.515625 970.757812 229.933594 C 970.507812 230.355469 970.167969 230.683594 969.738281 230.917969 L 961.820312 235.273438 C 961.363281 235.523438 961.007812 235.878906 960.757812 236.332031 L 956.421875 244.253906 C 956.1875 244.683594 955.859375 245.023438 955.4375 245.273438 C 955.015625 245.523438 954.5625 245.648438 954.070312 245.648438 C 953.582031 245.648438 953.125 245.523438 952.703125 245.273438 C 952.28125 245.023438 951.953125 244.683594 951.71875 244.253906 L 947.382812 236.332031 C 947.132812 235.878906 946.78125 235.523438 946.324219 235.273438 L 938.308594 231.015625 C 937.878906 230.78125 937.535156 230.453125 937.285156 230.03125 C 937.035156 229.609375 936.910156 229.15625 936.910156 228.664062 C 936.910156 228.175781 937.035156 227.71875 937.285156 227.296875 C 937.535156 226.878906 937.878906 226.550781 938.308594 226.316406 L 946.226562 221.980469 C 946.683594 221.730469 947.039062 221.375 947.289062 220.917969 L 951.625 213 C 951.859375 212.570312 952.1875 212.230469 952.609375 211.980469 C 953.03125 211.730469 953.484375 211.605469 953.976562 211.605469 C 954.464844 211.605469 954.921875 211.730469 955.34375 211.980469 C 955.761719 212.230469 956.089844 212.570312 956.324219 213 L 960.664062 220.917969 C 960.953125 221.355469 961.339844 221.675781 961.820312 221.882812 Z M 961.820312 221.882812 " fill-opacity="1" fill-rule="nonzero"/><path fill="#febbaa" d="M 883.710938 598.773438 C 888.316406 592.007812 901.054688 582.375 903.636719 572.585938 C 904.089844 570.214844 904.042969 567.851562 903.503906 565.496094 L 941.332031 542.722656 C 943.261719 545.421875 945.011719 547.964844 946.613281 550.429688 C 952.953125 560.0625 957.539062 565.613281 957.539062 577.75 C 957.539062 592.875 912.984375 620.140625 896.238281 619.964844 C 879.488281 619.792969 878.121094 607 883.710938 598.773438 Z M 883.710938 598.773438 " fill-opacity="1" fill-rule="nonzero"/><path fill="#1b2e34" d="M 883.710938 598.773438 C 888.125 592.277344 898.839844 583.070312 902 573.722656 C 902.117188 573.375 902.320312 573.085938 902.605469 572.851562 C 902.890625 572.621094 903.214844 572.480469 903.578125 572.433594 C 909.03125 571.972656 932.3125 568.117188 946.515625 550.777344 C 946.601562 550.667969 946.703125 550.574219 946.8125 550.488281 C 946.921875 550.402344 947.039062 550.332031 947.164062 550.277344 C 947.289062 550.21875 947.421875 550.179688 947.558594 550.152344 C 947.691406 550.125 947.828125 550.117188 947.96875 550.125 C 948.105469 550.128906 948.242188 550.152344 948.375 550.191406 C 948.507812 550.230469 948.632812 550.285156 948.753906 550.351562 C 948.875 550.421875 948.984375 550.503906 949.085938 550.597656 C 949.183594 550.691406 949.273438 550.796875 949.351562 550.910156 C 954.84375 559.640625 959.988281 565.613281 959.988281 576.863281 C 959.988281 591.988281 912.558594 621.855469 895.8125 621.679688 C 879.066406 621.507812 878.121094 607 883.710938 598.773438 Z M 883.710938 598.773438 " fill-opacity="1" fill-rule="nonzero"/><path fill="#1b2e34" d="M 1070.648438 599.582031 C 1054.941406 605.363281 1000.207031 593.339844 995.082031 579.101562 C 991.226562 568.523438 994.097656 561.160156 996.316406 551.085938 C 996.347656 550.949219 996.394531 550.824219 996.460938 550.699219 C 996.523438 550.578125 996.597656 550.464844 996.6875 550.359375 C 996.777344 550.253906 996.878906 550.160156 996.992188 550.078125 C 997.105469 550 997.222656 549.933594 997.351562 549.878906 C 997.480469 549.828125 997.609375 549.789062 997.746094 549.769531 C 997.882812 549.746094 998.019531 549.742188 998.160156 549.753906 C 998.296875 549.765625 998.429688 549.789062 998.5625 549.832031 C 998.695312 549.875 998.820312 549.933594 998.9375 550.007812 C 1018.207031 561.566406 1041.335938 557.289062 1046.671875 555.785156 C 1047.03125 555.707031 1047.386719 555.726562 1047.734375 555.847656 C 1048.082031 555.96875 1048.371094 556.171875 1048.597656 556.460938 C 1054.746094 564.167969 1067.871094 569.292969 1074.289062 573.898438 C 1082.34375 579.851562 1086.351562 593.722656 1070.648438 599.582031 Z M 1070.648438 599.582031 " fill-opacity="1" fill-rule="nonzero"/><path fill="#1b2e34" d="M 962.722656 351.261719 C 974.289062 351.128906 987.121094 347.71875 997.933594 346.660156 C 1022.773438 344.230469 1059.316406 346.042969 1070.03125 395.039062 C 1080.957031 445 1050.0625 549.910156 1050.0625 549.910156 C 1022.773438 549.429688 996.96875 539.195312 996.96875 539.195312 C 996.96875 539.195312 1006.722656 478.3125 1005.738281 448.640625 C 1004.757812 418.96875 999.957031 404.808594 942.835938 411.453125 C 876.964844 419.160156 943.394531 539.71875 943.394531 539.71875 C 935.898438 551.777344 901.613281 567.480469 901.613281 567.480469 C 901.613281 567.480469 852.375 498.121094 842.871094 431.609375 C 833.371094 365.097656 885.15625 342.054688 929.980469 347.601562 C 934.433594 348.101562 947.617188 351.4375 962.722656 351.261719 Z M 962.722656 351.261719 " fill-opacity="1" fill-rule="nonzero"/><path fill="#febbaa" d="M 1067.082031 350.28125 C 1070.9375 352.207031 1083.269531 357.582031 1083.269531 357.582031 C 1081.769531 362.90625 1081.007812 368.332031 1080.984375 373.863281 C 1080.960938 379.394531 1081.679688 384.828125 1083.132812 390.164062 C 1086.640625 404 1073.074219 423.960938 1070.972656 408.023438 C 1068.875 392.089844 1065.75 388.371094 1057.484375 372.628906 C 1049.773438 357.988281 1047.847656 353.210938 1056.058594 342.746094 C 1059.546875 345.527344 1063.222656 348.039062 1067.082031 350.28125 Z M 1067.082031 350.28125 " fill-opacity="1" fill-rule="nonzero"/></svg>