<svg xmlns="http://www.w3.org/2000/svg" xmlns:xlink="http://www.w3.org/1999/xlink" width="1920" zoomAndPan="magnify" viewBox="0 0 1440 809.999993" height="1080" preserveAspectRatio="xMidYMid meet" version="1.0"><defs><g/><clipPath id="id1"><path d="M 49.429688 417 L 111 417 L 111 545 L 49.429688 545 Z M 49.429688 417 " clip-rule="nonzero"/></clipPath><clipPath id="id2"><path d="M 133 424 L 176.148438 424 L 176.148438 503 L 133 503 Z M 133 424 " clip-rule="nonzero"/></clipPath><clipPath id="id3"><path d="M 101 382.042969 L 136 382.042969 L 136 415 L 101 415 Z M 101 382.042969 " clip-rule="nonzero"/></clipPath><clipPath id="id4"><path d="M 381.101562 649.253906 L 393.046875 649.253906 L 393.046875 675.871094 L 381.101562 675.871094 Z M 381.101562 649.253906 " clip-rule="nonzero"/></clipPath><clipPath id="id5"><path d="M 49.429688 288.046875 L 206.179688 288.046875 L 206.179688 372.046875 L 49.429688 372.046875 Z M 49.429688 288.046875 " clip-rule="nonzero"/></clipPath><clipPath id="id6"><path d="M 180 290 L 206.179688 290 L 206.179688 311 L 180 311 Z M 180 290 " clip-rule="nonzero"/></clipPath><clipPath id="id7"><path d="M 234.632812 291 L 417 291 L 417 390 L 234.632812 390 Z M 234.632812 291 " clip-rule="nonzero"/></clipPath><clipPath id="id8"><path d="M 254 377 L 271 377 L 271 402.796875 L 254 402.796875 Z M 254 377 " clip-rule="nonzero"/></clipPath><clipPath id="id9"><path d="M 359 288.046875 L 418.382812 288.046875 L 418.382812 316 L 359 316 Z M 359 288.046875 " clip-rule="nonzero"/></clipPath></defs><rect x="-144" width="1728" fill="#ffffff" y="-80.999999" height="971.999992" fill-opacity="1"/><rect x="-144" width="1728" fill="#ffffff" y="-80.999999" height="971.999992" fill-opacity="1"/><rect x="-144" width="1728" fill="#ffffff" y="-80.999999" height="971.999992" fill-opacity="1"/><rect x="-144" width="1728" fill="#ffffff" y="-80.999999" height="971.999992" fill-opacity="1"/><g clip-path="url(#id1)"><path fill="#708dc9" d="M 96.558594 452.128906 C 89.507812 466.75 86.328125 481.476562 83.609375 497.160156 C 83.148438 499.808594 81.441406 504.636719 79.488281 510.304688 C 75.152344 522.84375 69.632812 539.367188 74.105469 544.429688 C 58.9375 527.234375 50.964844 508.316406 49.703125 488.507812 C 49.453125 484.742188 49.453125 480.941406 49.703125 477.121094 C 50.429688 465.453125 53.398438 453.535156 58.492188 441.542969 C 62.578125 431.949219 67.960938 420.210938 79.0625 418.039062 C 85.828125 416.726562 107.054688 417.191406 110.214844 424.84375 C 112.933594 431.417969 99.382812 446.285156 96.558594 452.128906 " fill-opacity="1" fill-rule="nonzero"/></g><path fill="#633750" d="M 151.265625 590.738281 C 149.730469 579.746094 148.1875 568.738281 146.632812 557.753906 L 146.628906 557.734375 L 138.761719 507.414062 C 133.882812 509.003906 127.46875 507.210938 120.984375 505.082031 C 120.898438 504.050781 120.847656 503.007812 120.828125 501.957031 C 117.785156 501.902344 114.722656 501.945312 111.734375 502.117188 C 107.578125 500.945312 103.703125 500.269531 100.539062 501.003906 C 100.136719 501.097656 99.964844 501.976562 99.945312 503.382812 C 96.992188 500.800781 93.261719 499.054688 88.53125 498.507812 C 86.699219 498.292969 85.027344 498.257812 83.492188 498.371094 C 75.671875 497.882812 70.84375 500.671875 68.445312 504.960938 C 66.554688 508.320312 66.144531 512.589844 66.941406 516.9375 C 70.152344 534.308594 70.550781 555.59375 72.347656 573.363281 C 74.148438 591.277344 75.683594 611.621094 73.703125 628.980469 C 72.941406 630.195312 72.164062 631.414062 71.789062 632.789062 C 71.027344 635.625 72.050781 638.609375 71.894531 641.535156 C 71.621094 646.316406 68.191406 650.367188 66.894531 654.976562 C 66.304688 657.046875 66.15625 659.1875 66.085938 661.339844 C 65.574219 663.277344 65.542969 665.3125 65.460938 667.304688 C 65.460938 667.371094 65.453125 667.464844 65.453125 667.554688 C 65.203125 669.355469 64.882812 671.527344 64.550781 673.894531 C 64.503906 674.144531 64.472656 674.394531 64.4375 674.648438 C 64.425781 674.769531 64.402344 674.910156 64.382812 675.03125 C 64.027344 677.34375 63.621094 679.984375 63.230469 682.75 C 63.03125 683.464844 62.75 684.351562 62.433594 685.347656 C 65.824219 685.476562 69.210938 685.648438 72.597656 685.816406 C 75.445312 685.585938 78.246094 685.667969 81 686.019531 C 87.332031 672.925781 93.625 659.652344 99.015625 646.1875 C 101.542969 639.859375 104.070312 633.507812 105.6875 626.917969 C 108.019531 617.34375 108.394531 607.429688 108.746094 597.617188 C 109.117188 587.777344 109.472656 577.9375 109.832031 568.105469 C 110.261719 569.710938 110.6875 571.320312 111.128906 572.875 C 116.078125 590.472656 121.214844 610.53125 122.335938 628.222656 C 121.796875 629.566406 121.265625 630.925781 121.128906 632.375 C 120.875 635.332031 122.421875 638.136719 122.78125 641.09375 C 123.371094 645.917969 120.714844 650.5625 120.257812 655.390625 C 120.03125 657.574219 120.273438 659.742188 120.585938 661.90625 C 120.4375 663.929688 120.765625 665.957031 121.027344 667.960938 C 121.042969 668.035156 121.039062 668.125 121.058594 668.234375 C 121.132812 670.066406 121.203125 672.289062 121.308594 674.707031 C 121.304688 674.984375 121.3125 675.238281 121.320312 675.492188 C 121.34375 675.617188 121.335938 675.765625 121.335938 675.894531 C 121.398438 678.261719 121.464844 680.960938 121.570312 683.800781 C 121.429688 685.386719 121.0625 687.804688 120.757812 690.480469 L 137.851562 690.480469 C 137.871094 690.40625 137.890625 690.335938 137.910156 690.261719 C 137.917969 690.257812 137.921875 690.253906 137.925781 690.25 C 142.402344 674.015625 146.976562 657.523438 150.3125 640.996094 C 151.671875 634.21875 153.046875 627.4375 153.464844 620.566406 C 154.058594 610.589844 152.660156 600.617188 151.265625 590.738281 " fill-opacity="1" fill-rule="nonzero"/><g clip-path="url(#id2)"><path fill="#edb373" d="M 165.101562 424.027344 L 156.167969 426.917969 L 154.246094 460.183594 L 154.214844 460.289062 L 144.289062 451.355469 C 144.289062 451.355469 124.109375 435.5 137.804688 468.65625 C 151.5 501.816406 163.75 502.535156 163.75 502.535156 L 163.769531 502.246094 C 166.105469 503.320312 168.6875 503.199219 171.496094 501.164062 C 184.898438 491.4375 165.101562 424.027344 165.101562 424.027344 " fill-opacity="1" fill-rule="nonzero"/></g><path fill="#633750" d="M 149.808594 424.027344 L 158.929688 428.621094 C 160.183594 429.257812 161.71875 428.75 162.355469 427.492188 L 174.589844 403.222656 C 175.222656 401.960938 174.71875 400.429688 173.457031 399.796875 L 164.34375 395.195312 C 163.082031 394.5625 161.550781 395.070312 160.914062 396.328125 L 148.679688 420.601562 C 148.046875 421.859375 148.550781 423.390625 149.808594 424.027344 " fill-opacity="1" fill-rule="nonzero"/><path fill="#c5d1e8" d="M 153.449219 417.726562 L 161.824219 421.949219 C 162.058594 422.066406 162.339844 421.972656 162.457031 421.742188 L 171.597656 403.609375 C 171.714844 403.375 171.621094 403.09375 171.390625 402.980469 L 163.011719 398.753906 C 162.78125 398.636719 162.5 398.730469 162.382812 398.964844 L 153.242188 417.097656 C 153.125 417.328125 153.21875 417.613281 153.449219 417.726562 " fill-opacity="1" fill-rule="nonzero"/><path fill="#edb373" d="M 164.015625 409.515625 C 163.625 409.9375 166.917969 416.027344 167.3125 416.808594 C 169.199219 420.59375 170.203125 424.671875 167.082031 428.269531 C 166.140625 429.355469 164.699219 430.246094 163.332031 429.828125 C 162.433594 429.554688 161.769531 428.75 161.472656 427.859375 C 161.175781 426.972656 161.203125 426.007812 161.335938 425.082031 C 161.679688 422.707031 162.796875 421.039062 163.984375 419.261719 C 163.75 417.828125 163.511719 416.398438 163.273438 414.964844 C 162.96875 413.09375 162.738281 410.925781 164.015625 409.515625 " fill-opacity="1" fill-rule="nonzero"/><path fill="#edb373" d="M 109.320312 408.886719 C 109.800781 407.722656 110.273438 406.347656 110.816406 405.019531 C 110.945312 404.628906 111.085938 404.230469 111.210938 403.835938 C 111.476562 403.015625 111.859375 402.4375 112.285156 402.058594 C 112.484375 401.746094 112.695312 401.449219 112.917969 401.183594 C 114.539062 399.253906 115.5625 400.191406 116.957031 400.875 C 118.453125 401.609375 120.804688 401.375 121.046875 404.089844 C 121.242188 406.261719 119.757812 409.371094 119.066406 411.484375 C 117.988281 414.800781 117.074219 418.578125 115.699219 421.765625 C 113.746094 426.296875 108.515625 425.019531 107.027344 422.109375 C 105.921875 421.921875 105.136719 420.632812 105.828125 418.527344 C 106.898438 415.277344 108.015625 412.046875 109.320312 408.886719 " fill-opacity="1" fill-rule="nonzero"/><path fill="#edb373" d="M 114.160156 396.601562 C 117.976562 395.460938 121.34375 397.828125 123.496094 401.019531 C 125.480469 403.957031 126.648438 408.953125 125.089844 412.359375 C 123.84375 415.089844 121.269531 416.679688 118.765625 416.316406 C 116.785156 416.300781 114.730469 415.328125 113.167969 414.0625 C 110.417969 411.835938 108.632812 407.9375 108.574219 404.265625 C 108.515625 400.335938 110.683594 397.640625 114.160156 396.601562 " fill-opacity="1" fill-rule="nonzero"/><g clip-path="url(#id3)"><path fill="#633750" d="M 123.761719 386.378906 C 123.203125 388.644531 123.4375 391.332031 121.46875 392.40625 C 120.25 393.070312 118.757812 392.699219 117.402344 392.402344 C 113.355469 391.507812 108.875 391.445312 105.316406 393.578125 C 97.191406 398.4375 102.671875 409.429688 108.769531 413.617188 C 116.871094 419.1875 121.09375 405.699219 125.136719 402.128906 C 129.335938 398.417969 142.640625 391.6875 131.808594 383.734375 C 129.511719 382.050781 125.726562 382.375 124.332031 384.859375 C 124.066406 385.324219 123.890625 385.835938 123.761719 386.378906 " fill-opacity="1" fill-rule="nonzero"/></g><path fill="#edb373" d="M 120.078125 405.230469 C 121.078125 405.230469 122.035156 406.15625 121.988281 407.242188 C 121.941406 408.332031 121.148438 409.253906 120.078125 409.253906 C 119.078125 409.253906 118.121094 408.332031 118.167969 407.242188 C 118.214844 406.152344 119.007812 405.230469 120.078125 405.230469 " fill-opacity="1" fill-rule="nonzero"/><path fill="#708dc9" d="M 141.398438 501.996094 C 141.402344 502.652344 141.320312 503.308594 141.121094 503.964844 C 139.53125 509.234375 127.953125 511.535156 123.382812 512.308594 C 115.667969 513.621094 107.710938 513.027344 99.988281 512.117188 C 89.46875 510.878906 79.15625 508.59375 68.886719 506.183594 C 66.484375 500.476562 67.050781 492.238281 66.640625 487.40625 C 65.671875 476.007812 66.074219 464.976562 66.503906 453.589844 C 66.820312 445.191406 67.308594 434.207031 73.675781 427.621094 C 79.59375 421.5 91.101562 418.410156 99.609375 418.289062 C 110.300781 418.132812 122.6875 420.933594 132.035156 425.914062 C 140.335938 430.335938 149.4375 434.621094 148.523438 445.015625 C 148.082031 450.015625 146.296875 454.433594 144.625 459.160156 C 140.601562 470.550781 135.042969 482.269531 139.230469 494.398438 C 140.085938 496.886719 141.378906 499.453125 141.398438 501.996094 " fill-opacity="1" fill-rule="nonzero"/><path fill="#708dc9" d="M 172.660156 490.816406 C 171.996094 481.214844 168.550781 474.320312 165.429688 464.421875 C 161.4375 451.753906 159.855469 443.488281 148.832031 435.644531 C 141.164062 430.191406 127.644531 418.0625 118.6875 428.429688 C 107.984375 440.816406 124.730469 457.417969 129.375 468.289062 C 135.539062 482.742188 138.214844 497.183594 153.4375 505.519531 C 156.832031 507.375 166.34375 509.953125 169.707031 507.578125 C 173.320312 505.023438 172.730469 498.648438 172.773438 494.734375 C 172.789062 493.375 172.746094 492.074219 172.660156 490.816406 " fill-opacity="1" fill-rule="nonzero"/><path fill="#e87654" d="M 65.140625 681.636719 C 64.390625 685.324219 63.691406 689.03125 63.0625 692.742188 C 61.886719 699.664062 64.621094 701.367188 70.382812 703.15625 C 77.421875 705.296875 81.875 706.074219 88.785156 705.6875 C 89.449219 705.652344 89.8125 704.882812 89.402344 704.371094 C 86.265625 700.371094 79.40625 695.675781 78.234375 692.046875 C 78.167969 691.847656 78.121094 691.640625 78.082031 691.433594 C 78.0625 691.300781 78.046875 691.164062 78.035156 691.027344 C 78.027344 690.957031 78.019531 690.886719 78.011719 690.8125 C 78.003906 690.628906 78.007812 690.214844 78.007812 690.191406 C 78.019531 689.984375 78.035156 689.773438 78.0625 689.558594 L 82.261719 684.421875 C 77.734375 682.570312 69.320312 685.085938 65.84375 681.765625 C 65.609375 681.722656 65.367188 681.667969 65.140625 681.636719 " fill-opacity="1" fill-rule="nonzero"/><path fill="#e87654" d="M 121.644531 684.761719 C 121.636719 688.535156 121.6875 692.324219 121.8125 696.09375 C 122.050781 703.128906 125.332031 704.152344 131.855469 704.546875 C 139.824219 704.984375 144.738281 704.695312 152.019531 702.699219 C 152.722656 702.507812 152.945312 701.671875 152.398438 701.269531 C 148.195312 698.097656 139.871094 695.121094 137.839844 691.855469 C 137.726562 691.675781 137.632812 691.484375 137.546875 691.289062 C 137.496094 691.164062 137.453125 691.035156 137.410156 690.90625 C 137.386719 690.835938 137.359375 690.769531 137.339844 690.699219 C 137.289062 690.523438 137.246094 690.34375 137.214844 690.15625 C 137.210938 690.136719 137.203125 690.117188 137.203125 690.09375 C 137.167969 689.890625 137.140625 689.679688 137.121094 689.464844 C 131.894531 688.71875 126.839844 687.144531 122.421875 684.722656 C 122.164062 684.734375 121.890625 684.734375 121.644531 684.761719 " fill-opacity="1" fill-rule="nonzero"/><path fill="#edb373" d="M 262.105469 476.945312 C 262.800781 484.519531 264.40625 492.015625 266.867188 499.21875 C 266.910156 499.34375 270.75 511.628906 270.792969 511.75 C 271.835938 511.277344 276.710938 510.128906 277.816406 509.746094 C 280.820312 508.464844 276.265625 496.183594 279.355469 495.78125 L 277.84375 492.636719 L 269.515625 475.351562 C 267.746094 471.691406 264.976562 468.597656 261.539062 466.433594 L 257.007812 457.949219 C 248.519531 467.355469 262.105469 476.945312 262.105469 476.945312 " fill-opacity="1" fill-rule="nonzero"/><path fill="#633750" d="M 263.277344 473.078125 C 262.75 473.28125 262.164062 473.046875 261.960938 472.546875 L 255.332031 456.351562 C 255.128906 455.851562 255.386719 455.285156 255.910156 455.082031 C 256.4375 454.878906 257.023438 455.117188 257.226562 455.613281 L 263.855469 471.808594 C 264.058594 472.304688 263.800781 472.875 263.277344 473.078125 " fill-opacity="1" fill-rule="nonzero"/><path fill="#708dc9" d="M 301.835938 511.574219 C 301.746094 507.171875 302.882812 503.070312 305.25 498.105469 C 308.082031 492.164062 311.417969 486.136719 311.417969 479.664062 C 311.414062 477.40625 311 475.15625 310.191406 473.035156 C 310.003906 472.546875 309.773438 472.039062 309.324219 471.730469 C 308.671875 471.289062 307.769531 471.398438 306.964844 471.527344 C 302.738281 472.207031 298.320312 472.902344 294.863281 475.277344 C 292.828125 476.667969 291.261719 478.554688 289.726562 480.414062 C 283.359375 488.117188 277.621094 496.023438 273.960938 504.992188 C 270.625 513.164062 263.957031 521.980469 255.390625 526.070312 C 254.328125 526.578125 253.074219 527.195312 252.929688 528.292969 C 252.839844 529.003906 253.269531 529.675781 253.703125 530.269531 C 259.246094 537.816406 268.234375 543.054688 277.945312 544.640625 C 285.429688 545.863281 297.644531 545.671875 302.742188 539.378906 C 306.929688 534.207031 304.644531 524.847656 303.066406 519.203125 C 302.292969 516.445312 301.882812 513.964844 301.835938 511.574219 " fill-opacity="1" fill-rule="nonzero"/><path fill="#e87654" d="M 381.191406 650.902344 C 381.261719 650.9375 381.347656 650.96875 381.417969 650.996094 C 381.554688 650.457031 381.601562 649.921875 381.582031 649.382812 C 381.5625 648.46875 381.316406 647.558594 380.914062 646.703125 C 380.097656 644.949219 378.625 643.390625 376.910156 642.328125 C 373.859375 640.4375 370.164062 639.734375 366.597656 638.957031 C 364.367188 638.46875 362.101562 637.902344 360.042969 637 C 360.035156 636.988281 360.023438 636.980469 360.023438 636.980469 C 357.820312 635.570312 356.589844 634.464844 354.941406 633.242188 C 354.941406 633.242188 354.929688 633.238281 354.917969 633.238281 C 353.558594 631.679688 352.382812 629.941406 350.804688 628.570312 C 348.648438 626.707031 340.351562 622.425781 335.320312 621.359375 C 335.25 621.320312 335.1875 621.273438 335.101562 621.222656 C 329.894531 617.664062 330.578125 616.03125 331.617188 610.019531 C 333.25 600.613281 334.484375 591.203125 335.476562 581.746094 C 336.371094 573.28125 339.828125 564.890625 341.335938 556.347656 C 342.160156 551.707031 342.71875 546.265625 339.125 542.960938 C 332.988281 537.296875 323.171875 536.914062 315.132812 537.21875 C 313.910156 537.265625 312.824219 537.457031 311.835938 537.757812 C 308.804688 537.769531 305.777344 537.78125 302.746094 537.792969 C 295.597656 537.816406 288.445312 537.84375 281.296875 537.875 C 281.023438 537.875 280.726562 537.882812 280.515625 538.042969 C 280.21875 538.246094 280.164062 538.632812 280.15625 538.976562 C 279.933594 542.667969 280.039062 546.367188 279.796875 550.058594 C 278.324219 572.335938 267.242188 593.226562 266.894531 615.746094 C 266.828125 620.582031 267.515625 625.332031 268.53125 630.03125 C 272.910156 640.316406 277.289062 650.601562 281.675781 660.886719 C 284.765625 668.121094 287.84375 675.371094 290.921875 682.605469 C 291.546875 684.058594 292.78125 686.039062 293.789062 688.09375 C 297.023438 686.894531 300.230469 685.632812 303.410156 684.265625 C 303.675781 684.160156 303.960938 684.03125 304.269531 683.894531 C 304.269531 683.890625 304.273438 683.890625 304.273438 683.890625 C 305.023438 683.882812 305.773438 683.875 306.523438 683.867188 C 306.664062 683.867188 306.808594 683.863281 306.949219 683.863281 C 309.09375 681.191406 308.695312 677.433594 307.601562 674.25 C 306.511719 671.070312 304.824219 667.992188 304.679688 664.65625 C 304.609375 662.996094 304.925781 661.347656 304.949219 659.6875 C 305.046875 653.785156 301.542969 648.445312 299.125 642.988281 C 297.570312 639.46875 297.5 630.101562 295.015625 624.679688 C 295.015625 624.675781 295.015625 624.671875 295.015625 624.664062 C 295.066406 620.617188 296.09375 616.535156 297.40625 612.546875 C 297.617188 611.886719 297.839844 611.230469 298.070312 610.578125 C 298.949219 608.078125 299.878906 605.625 300.703125 603.253906 C 300.914062 602.65625 301.152344 602.042969 301.375 601.4375 C 301.3125 606.171875 301.402344 610.894531 301.765625 615.589844 C 301.835938 616.550781 301.917969 617.5 302.011719 618.460938 C 302.664062 624.75 304.945312 631.515625 310.089844 635.921875 C 315.402344 640.464844 323.53125 643.054688 330.171875 645.535156 C 338.867188 648.769531 339.984375 649.027344 348.90625 651.457031 C 356.117188 653.425781 362.984375 655.96875 370.125 658.054688 C 374.394531 659.292969 378.285156 661.59375 381.410156 664.570312 C 381.726562 660.039062 381.71875 655.5 381.191406 650.902344 " fill-opacity="1" fill-rule="nonzero"/><path fill="#633750" d="M 304.269531 683.894531 C 303.960938 684.03125 303.675781 684.160156 303.410156 684.265625 C 300.230469 685.632812 297.023438 686.894531 293.789062 688.09375 C 294.117188 688.765625 294.433594 689.433594 294.6875 690.09375 C 295.320312 691.835938 295.628906 693.53125 295.046875 694.898438 C 294.457031 696.292969 292.644531 697.839844 290.605469 699.40625 C 288.5 701.03125 286.140625 702.695312 284.640625 704.25 C 284.246094 704.644531 284.523438 705.273438 285.105469 705.339844 C 291.101562 706.011719 295.015625 705.617188 301.265625 704.257812 C 306.382812 703.117188 308.859375 701.886719 308.226562 696.246094 C 308.214844 696.128906 308.191406 696 308.183594 695.882812 C 307.855469 692.976562 307.464844 690.074219 307.03125 687.179688 C 306.859375 686.078125 306.699219 684.96875 306.523438 683.867188 C 305.773438 683.875 305.023438 683.882812 304.273438 683.890625 C 304.273438 683.890625 304.269531 683.890625 304.269531 683.894531 " fill-opacity="1" fill-rule="nonzero"/><g clip-path="url(#id4)"><path fill="#633750" d="M 386.679688 652.523438 C 386.410156 652.339844 386.132812 652.148438 385.84375 651.976562 C 384.679688 651.253906 383.511719 650.554688 382.355469 649.84375 C 382.089844 649.679688 381.839844 649.527344 381.582031 649.382812 C 381.601562 649.921875 381.554688 650.457031 381.417969 650.996094 C 381.347656 650.96875 381.261719 650.9375 381.191406 650.902344 C 381.71875 655.5 381.726562 660.039062 381.410156 664.570312 C 382.355469 665.453125 383.222656 666.40625 384.015625 667.390625 C 384.472656 667.96875 390.816406 679.257812 391.980469 674.007812 C 393.714844 666.144531 394.15625 657.71875 386.679688 652.523438 " fill-opacity="1" fill-rule="nonzero"/></g><path fill="#633750" d="M 339.140625 457.105469 C 340.910156 457.488281 342.613281 458.03125 344.136719 458.914062 C 347.734375 461 349.796875 464.859375 353.199219 467.199219 C 358.800781 471.050781 366.535156 470.449219 373.078125 472.667969 C 374.378906 473.109375 375.777344 473.820312 376.113281 475.070312 C 376.535156 476.664062 374.894531 478.175781 373.171875 478.527344 C 371.449219 478.878906 369.671875 478.460938 367.914062 478.339844 C 358.6875 477.691406 350.433594 485.140625 341.222656 484.367188 C 336.03125 483.929688 331.554688 480.945312 326.769531 479.011719 C 320.53125 476.492188 313.578125 475.714844 307.480469 472.925781 C 295.179688 467.292969 290.519531 448.125 307.75 445.394531 C 312.152344 444.695312 315.835938 446.691406 318.96875 449.363281 C 322.59375 452.464844 325.652344 454.769531 330.773438 455.765625 C 333.449219 456.289062 336.378906 456.507812 339.140625 457.105469 " fill-opacity="1" fill-rule="nonzero"/><path fill="#edb373" d="M 315.457031 466.101562 C 315.371094 465.304688 315.355469 464.378906 315.261719 463.464844 C 315.261719 463.203125 315.253906 462.9375 315.257812 462.671875 C 315.261719 462.121094 315.089844 461.695312 314.820312 461.382812 C 314.734375 461.152344 314.632812 460.929688 314.511719 460.726562 C 313.625 459.234375 312.433594 459.597656 310.972656 459.734375 C 309.414062 459.882812 307.371094 459.269531 306.351562 460.863281 C 305.53125 462.136719 305.941406 464.3125 305.933594 465.726562 C 305.921875 467.949219 305.625 470.414062 305.914062 472.617188 C 306.324219 475.75 311.402344 476.015625 313.601562 474.558594 C 314.648438 474.660156 315.734375 474.039062 315.738281 472.628906 C 315.742188 470.449219 315.695312 468.273438 315.457031 466.101562 " fill-opacity="1" fill-rule="nonzero"/><path fill="#edb373" d="M 311.203125 459.050781 C 308.371094 457.210938 306.332031 454.769531 304.664062 452.113281 C 304.15625 452.582031 303.683594 453.085938 303.269531 453.628906 C 301.394531 456.078125 300.289062 460.234375 301.761719 463.074219 C 302.941406 465.351562 305.375 466.675781 307.746094 466.375 C 309.613281 466.359375 311.558594 465.550781 313.035156 464.496094 C 314.15625 463.695312 315.09375 462.625 315.816406 461.429688 C 314.222656 460.785156 312.683594 460.011719 311.203125 459.050781 " fill-opacity="1" fill-rule="nonzero"/><path fill="#edb373" d="M 314.34375 458.023438 C 313.203125 458.023438 312.105469 459.03125 312.160156 460.207031 C 312.214844 461.390625 313.121094 462.390625 314.34375 462.390625 C 315.492188 462.390625 316.585938 461.386719 316.535156 460.207031 C 316.480469 459.023438 315.574219 458.023438 314.34375 458.023438 " fill-opacity="1" fill-rule="nonzero"/><path fill="#c5d1e8" d="M 282.53125 538.753906 C 296.707031 538.71875 310.871094 538.429688 324.839844 536.234375 C 325.136719 535.210938 325.242188 534.109375 325.320312 533.046875 C 326.453125 517.890625 329.847656 500.820312 324.101562 486.109375 C 318.6875 472.25 308.058594 470.308594 297.007812 480.332031 C 289.980469 486.703125 287.21875 492.890625 285.761719 499.472656 C 284.25 506.300781 284.144531 513.5625 282.152344 521.914062 C 281.03125 526.59375 276.496094 528.535156 279.050781 534.328125 C 279.84375 536.128906 281.042969 537.578125 282.53125 538.753906 " fill-opacity="1" fill-rule="nonzero"/><path fill="#708dc9" d="M 338.414062 534.710938 C 336.09375 528.003906 333.636719 521.191406 332.347656 514.414062 C 331.390625 509.402344 331.652344 503.992188 331.25 498.847656 C 330.570312 490.183594 329.203125 475.972656 318.070312 474.851562 C 309.417969 473.980469 305.265625 487.269531 304.078125 493.4375 C 302.507812 501.605469 301.972656 509.453125 301.9375 517.640625 C 301.898438 525.9375 298.148438 535.066406 295.542969 542.902344 C 301.746094 548.335938 310.789062 548.632812 319.039062 548.640625 C 325.644531 548.652344 332.394531 548.636719 338.648438 546.511719 C 339.6875 546.15625 340.828125 545.625 341.160156 544.582031 C 341.394531 543.859375 341.167969 543.078125 340.949219 542.351562 C 340.167969 539.828125 339.300781 537.273438 338.414062 534.710938 " fill-opacity="1" fill-rule="nonzero"/><path fill="#708dc9" d="M 321.746094 527.691406 C 325.773438 521.058594 327.824219 512.847656 328.847656 506.742188 C 329.363281 503.699219 329.757812 500.390625 330.0625 496.625 C 330.667969 489.171875 326.933594 482.214844 321.742188 481.117188 C 319.257812 480.589844 314.527344 480.941406 310.742188 489.179688 C 306.683594 498.023438 303.183594 507.144531 300.277344 516.34375 C 308.277344 518.4375 315.484375 522.445312 321.746094 527.691406 " fill-opacity="1" fill-rule="nonzero"/><path fill="#633750" d="M 366.011719 389.042969 C 344.605469 434.195312 315.003906 483.308594 287.09375 523.136719 C 282.21875 530.09375 274.910156 539.382812 267.78125 539.726562 C 264.976562 539.878906 262.519531 538.601562 260.230469 535.875 C 257.703125 532.863281 256.773438 528.585938 257.859375 524.972656 C 258.804688 521.820312 261.375 519.390625 264.195312 518.773438 C 263.578125 518.371094 263.007812 517.910156 262.460938 517.417969 C 259.644531 518.5625 257.230469 521.164062 256.261719 524.398438 C 254.992188 528.632812 256.0625 533.621094 258.992188 537.117188 C 261.472656 540.074219 264.296875 541.574219 267.386719 541.574219 C 267.539062 541.574219 267.695312 541.566406 267.855469 541.5625 C 275.6875 541.183594 283.347656 531.5 288.429688 524.253906 C 316.632812 484.011719 346.464844 434.421875 368.035156 388.757812 C 367.378906 388.921875 366.707031 389.023438 366.011719 389.042969 " fill-opacity="1" fill-rule="nonzero"/><path fill="#edb373" d="M 314.410156 515.144531 C 314.1875 513.667969 314.070312 512.152344 314.015625 510.621094 C 309.574219 509.414062 305.203125 508.234375 301.015625 507.175781 C 297.890625 506.382812 291.765625 506.398438 288.082031 509.839844 C 286.09375 511.699219 285.542969 514.058594 285.148438 516.152344 C 284.125 521.609375 289.9375 516.5 293.296875 514.425781 C 292.917969 514.664062 306.386719 522.273438 307.417969 522.972656 C 310.648438 525.171875 313.78125 526.875 317.597656 528.160156 C 316.121094 523.917969 315.070312 519.527344 314.410156 515.144531 " fill-opacity="1" fill-rule="nonzero"/><path fill="#e87654" d="M 306.078125 422.453125 C 334.570312 431.574219 361.285156 448.011719 383.730469 468.425781 C 386.304688 470.769531 390.445312 469.191406 390.753906 465.722656 C 391.613281 456.144531 392.789062 445.625 392.289062 442.207031 C 390.039062 426.808594 382.402344 412.347656 370.375 402.375 C 345.832031 382.03125 310.980469 391.308594 288.859375 411.183594 C 286.277344 413.5 287.378906 417.753906 290.777344 418.445312 C 295.949219 419.5 301.058594 420.84375 306.078125 422.453125 " fill-opacity="1" fill-rule="nonzero"/><path fill="#708dc9" d="M 322.792969 476.449219 C 321.421875 475.992188 320.425781 476.015625 319.707031 476.367188 C 319.722656 478.988281 319.359375 481.703125 318.671875 484.359375 C 319.492188 488.105469 320.953125 491.710938 320.953125 491.710938 L 324.96875 511.75 L 318.527344 512.421875 L 322.105469 529.957031 C 322.105469 529.957031 346.035156 545.820312 350.046875 537.800781 C 354.058594 529.785156 339.027344 481.855469 322.792969 476.449219 " fill-opacity="1" fill-rule="nonzero"/><g clip-path="url(#id5)"><path fill="#ff5757" d="M 113.332031 357.21875 C 113.6875 363.21875 117.238281 369.222656 122.207031 372.046875 C 122.207031 364.632812 123.628906 357.21875 131.796875 355.804688 C 139.964844 354.390625 149.195312 355.804688 157.71875 355.453125 C 169.789062 354.390625 190.386719 357.570312 199.972656 348.390625 C 209.207031 339.5625 206.722656 321.910156 201.039062 311.667969 C 194.648438 299.664062 182.21875 295.074219 169.4375 291.898438 C 154.167969 288.011719 138.542969 287.304688 123.273438 288.71875 C 105.523438 290.132812 84.925781 289.425781 68.238281 296.839844 C 59.714844 300.371094 51.902344 307.433594 50.125 316.964844 C 48.707031 325.085938 49.414062 342.035156 55.097656 348.742188 C 60.421875 355.453125 72.851562 358.277344 80.308594 358.277344 C 90.605469 358.277344 101.257812 358.277344 111.558594 357.21875 L 113.332031 357.21875 " fill-opacity="1" fill-rule="nonzero"/></g><path fill="#ff5757" d="M 110.628906 360.855469 C 110.628906 360.855469 110.214844 360.96875 109.484375 361.136719 C 108.757812 361.300781 107.710938 361.523438 106.449219 361.734375 C 105.816406 361.84375 105.132812 361.953125 104.40625 362.046875 C 103.679688 362.148438 102.910156 362.253906 102.113281 362.332031 C 101.316406 362.40625 100.492188 362.503906 99.65625 362.554688 C 98.816406 362.609375 97.960938 362.660156 97.105469 362.695312 C 96.253906 362.71875 95.394531 362.730469 94.550781 362.730469 C 93.707031 362.734375 92.875 362.6875 92.074219 362.652344 C 91.273438 362.609375 90.492188 362.539062 89.761719 362.453125 C 89.027344 362.371094 88.335938 362.257812 87.699219 362.140625 C 87.382812 362.074219 87.078125 362.023438 86.789062 361.953125 C 86.507812 361.878906 86.234375 361.8125 85.980469 361.746094 C 85.476562 361.601562 85.039062 361.464844 84.6875 361.324219 C 84.332031 361.203125 84.066406 361.066406 83.882812 360.988281 C 83.703125 360.902344 83.609375 360.855469 83.609375 360.855469 C 83.609375 360.855469 83.710938 360.875 83.910156 360.917969 C 84.101562 360.957031 84.390625 361.023438 84.753906 361.082031 C 85.117188 361.152344 85.566406 361.199219 86.074219 361.273438 C 86.585938 361.324219 87.160156 361.375 87.789062 361.417969 C 88.421875 361.460938 89.105469 361.484375 89.832031 361.511719 C 90.550781 361.53125 91.316406 361.53125 92.105469 361.539062 C 92.5 361.535156 92.902344 361.53125 93.308594 361.53125 C 93.714844 361.515625 94.128906 361.515625 94.542969 361.511719 C 95.371094 361.496094 96.21875 361.46875 97.0625 361.433594 C 97.90625 361.414062 98.753906 361.378906 99.582031 361.335938 C 100.414062 361.300781 101.238281 361.261719 102.027344 361.226562 C 103.617188 361.152344 105.097656 361.078125 106.371094 361.015625 C 107.644531 360.953125 108.707031 360.914062 109.453125 360.886719 C 110.199219 360.867188 110.628906 360.855469 110.628906 360.855469 " fill-opacity="1" fill-rule="nonzero"/><g clip-path="url(#id6)"><path fill="#ff5757" d="M 180.300781 290.605469 C 180.300781 290.605469 180.433594 290.609375 180.6875 290.617188 C 180.9375 290.628906 181.308594 290.640625 181.78125 290.6875 C 182.25 290.734375 182.820312 290.792969 183.472656 290.898438 C 184.125 290.996094 184.859375 291.125 185.652344 291.308594 C 186.445312 291.480469 187.300781 291.699219 188.191406 291.976562 C 189.082031 292.253906 190.019531 292.566406 190.964844 292.960938 C 191.199219 293.058594 191.4375 293.15625 191.675781 293.257812 C 191.914062 293.363281 192.152344 293.472656 192.390625 293.578125 C 192.875 293.785156 193.34375 294.042969 193.820312 294.285156 C 194.765625 294.800781 195.710938 295.347656 196.613281 295.96875 L 197.289062 296.441406 L 197.933594 296.941406 C 198.375 297.269531 198.777344 297.632812 199.1875 297.980469 C 199.601562 298.324219 199.972656 298.71875 200.347656 299.085938 C 200.722656 299.464844 201.0625 299.859375 201.40625 300.234375 C 201.734375 300.632812 202.050781 301.027344 202.355469 301.414062 C 202.632812 301.820312 202.90625 302.21875 203.171875 302.605469 C 203.421875 303.003906 203.652344 303.398438 203.875 303.777344 C 204.09375 304.160156 204.265625 304.550781 204.449219 304.910156 C 204.640625 305.273438 204.789062 305.632812 204.921875 305.976562 C 205.058594 306.324219 205.195312 306.644531 205.304688 306.957031 C 205.5 307.585938 205.683594 308.128906 205.792969 308.585938 C 206.007812 309.503906 206.113281 310.03125 206.113281 310.03125 C 206.113281 310.03125 205.898438 309.53125 205.554688 308.667969 C 205.382812 308.234375 205.117188 307.730469 204.855469 307.144531 C 204.714844 306.855469 204.539062 306.558594 204.367188 306.238281 C 204.285156 306.082031 204.195312 305.917969 204.105469 305.75 C 204.019531 305.582031 203.90625 305.421875 203.808594 305.253906 C 203.59375 304.921875 203.394531 304.5625 203.148438 304.214844 C 202.902344 303.867188 202.652344 303.507812 202.394531 303.140625 C 202.113281 302.789062 201.824219 302.425781 201.53125 302.058594 C 201.210938 301.710938 200.902344 301.339844 200.570312 300.976562 C 200.226562 300.628906 199.886719 300.265625 199.515625 299.921875 C 199.328125 299.75 199.140625 299.582031 198.953125 299.410156 C 198.769531 299.234375 198.582031 299.0625 198.378906 298.898438 C 197.984375 298.570312 197.59375 298.226562 197.171875 297.925781 L 196.542969 297.453125 L 195.894531 297.007812 C 195.039062 296.402344 194.136719 295.863281 193.234375 295.355469 C 192.320312 294.867188 191.425781 294.375 190.515625 293.976562 C 189.617188 293.566406 188.734375 293.195312 187.882812 292.867188 C 187.03125 292.546875 186.21875 292.25 185.457031 292.003906 C 184.699219 291.757812 183.996094 291.542969 183.371094 291.367188 C 182.746094 291.191406 182.191406 291.046875 181.738281 290.933594 C 181.28125 290.828125 180.925781 290.734375 180.679688 290.683594 C 180.429688 290.632812 180.300781 290.605469 180.300781 290.605469 " fill-opacity="1" fill-rule="nonzero"/></g><path fill="#ffffff" d="M 62.769531 304.847656 C 62.769531 304.847656 62.835938 304.742188 62.980469 304.546875 C 63.050781 304.449219 63.144531 304.335938 63.257812 304.203125 C 63.3125 304.132812 63.371094 304.0625 63.433594 303.984375 C 63.503906 303.910156 63.578125 303.832031 63.65625 303.75 C 63.957031 303.414062 64.355469 303.042969 64.828125 302.625 C 65.070312 302.425781 65.332031 302.214844 65.605469 301.992188 C 65.875 301.757812 66.191406 301.566406 66.503906 301.335938 C 67.128906 300.875 67.859375 300.460938 68.621094 300 C 69.015625 299.792969 69.417969 299.582031 69.832031 299.363281 C 70.039062 299.257812 70.25 299.148438 70.460938 299.039062 C 70.675781 298.9375 70.898438 298.847656 71.121094 298.75 C 71.5625 298.554688 72.015625 298.355469 72.46875 298.15625 C 72.929688 297.957031 73.40625 297.796875 73.882812 297.621094 C 74.363281 297.453125 74.839844 297.269531 75.332031 297.113281 C 75.824219 296.964844 76.316406 296.816406 76.808594 296.664062 C 77.308594 296.527344 77.796875 296.367188 78.296875 296.253906 C 78.796875 296.136719 79.292969 296.019531 79.789062 295.90625 C 80.28125 295.789062 80.769531 295.675781 81.257812 295.578125 C 81.75 295.496094 82.230469 295.414062 82.707031 295.332031 C 83.183594 295.253906 83.648438 295.167969 84.105469 295.101562 C 84.335938 295.066406 84.5625 295.03125 84.785156 295 C 85.011719 294.972656 85.234375 294.949219 85.453125 294.925781 C 86.328125 294.828125 87.160156 294.75 87.925781 294.675781 C 88.691406 294.589844 89.398438 294.578125 90.023438 294.554688 C 90.648438 294.527344 91.191406 294.515625 91.640625 294.507812 C 92.535156 294.488281 93.046875 294.488281 93.046875 294.488281 C 93.046875 294.488281 92.542969 294.597656 91.664062 294.757812 C 91.226562 294.835938 90.6875 294.9375 90.074219 295.035156 C 89.464844 295.140625 88.769531 295.238281 88.023438 295.398438 C 87.273438 295.546875 86.464844 295.707031 85.605469 295.855469 C 85.390625 295.898438 85.171875 295.9375 84.953125 295.976562 C 84.734375 296.023438 84.511719 296.074219 84.289062 296.125 C 83.847656 296.230469 83.386719 296.324219 82.921875 296.425781 C 82.457031 296.523438 81.988281 296.625 81.507812 296.726562 C 81.035156 296.847656 80.558594 296.976562 80.074219 297.09375 C 79.59375 297.214844 79.105469 297.335938 78.617188 297.453125 C 78.128906 297.570312 77.652344 297.738281 77.164062 297.875 C 76.679688 298.015625 76.195312 298.15625 75.710938 298.292969 C 75.234375 298.441406 74.761719 298.613281 74.292969 298.769531 C 73.828125 298.9375 73.355469 299.078125 72.898438 299.25 C 72.445312 299.425781 72 299.597656 71.558594 299.765625 C 71.339844 299.855469 71.121094 299.933594 70.90625 300.023438 C 70.695312 300.117188 70.484375 300.210938 70.277344 300.300781 C 69.859375 300.484375 69.453125 300.660156 69.058594 300.835938 C 68.292969 301.234375 67.539062 301.5625 66.890625 301.949219 C 66.226562 302.308594 65.644531 302.683594 65.121094 303.003906 C 64.617188 303.359375 64.167969 303.652344 63.824219 303.933594 C 63.648438 304.066406 63.496094 304.191406 63.363281 304.304688 C 63.234375 304.417969 63.117188 304.507812 63.03125 304.59375 C 62.859375 304.753906 62.769531 304.847656 62.769531 304.847656 " fill-opacity="1" fill-rule="nonzero"/><g clip-path="url(#id7)"><path fill="#ffbd59" d="M 234.84375 368.085938 C 234.84375 349.417969 233.511719 328.078125 238.394531 310.296875 C 240.171875 303.183594 243.726562 300.074219 250.832031 297.851562 C 273.925781 290.738281 297.902344 291.183594 321.882812 291.183594 C 341.425781 291.183594 361.851562 292.070312 380.949219 295.628906 C 397.820312 298.738281 412.476562 300.074219 415.140625 320.078125 C 416.917969 332.078125 416.027344 344.96875 416.027344 356.972656 C 416.027344 362.304688 416.917969 368.53125 415.140625 373.417969 C 411.585938 387.203125 399.601562 386.757812 387.609375 387.203125 C 367.621094 387.644531 348.085938 388.535156 328.101562 388.535156 C 306.785156 388.980469 285.472656 389.871094 263.710938 386.757812 C 249.941406 384.976562 239.285156 385.421875 235.289062 371.644531 L 234.84375 368.085938 " fill-opacity="1" fill-rule="nonzero"/></g><path fill="#ffbd59" d="M 255.273438 382.3125 C 255.273438 382.3125 258.824219 397.421875 269.480469 401.875 C 268.148438 392.980469 269.480469 378.3125 269.480469 378.3125 L 255.273438 382.3125 " fill-opacity="1" fill-rule="nonzero"/><g clip-path="url(#id8)"><path fill="#ffbd59" d="M 254.355469 382.5625 C 256.253906 390.550781 261.226562 399.3125 269.003906 402.691406 C 269.808594 403.039062 270.523438 402.480469 270.398438 401.617188 C 269.304688 393.984375 269.742188 385.972656 270.429688 378.3125 C 270.488281 377.6875 269.785156 377.238281 269.230469 377.394531 C 264.492188 378.726562 259.753906 380.058594 255.019531 381.394531 C 253.839844 381.726562 254.34375 383.558594 255.523438 383.230469 C 260.261719 381.894531 264.996094 380.5625 269.734375 379.226562 C 269.335938 378.921875 268.933594 378.613281 268.53125 378.3125 C 267.824219 386.160156 267.445312 394.304688 268.566406 402.125 C 269.03125 401.765625 269.496094 401.410156 269.960938 401.050781 C 262.605469 397.851562 257.988281 389.613281 256.1875 382.058594 C 255.902344 380.867188 254.070312 381.371094 254.355469 382.5625 " fill-opacity="1" fill-rule="nonzero"/></g><path fill="#ffbd59" d="M 272.433594 392.371094 C 272.433594 392.371094 272.996094 392.386719 273.980469 392.410156 C 274.472656 392.425781 275.0625 392.445312 275.746094 392.464844 C 276.429688 392.480469 277.195312 392.496094 278.03125 392.535156 C 278.867188 392.554688 279.777344 392.582031 280.734375 392.605469 C 281.691406 392.628906 282.703125 392.675781 283.746094 392.6875 C 284.789062 392.71875 285.871094 392.722656 286.964844 392.769531 C 288.0625 392.824219 289.175781 392.808594 290.289062 392.824219 C 291.402344 392.847656 292.515625 392.875 293.613281 392.902344 C 294.710938 392.910156 295.789062 392.914062 296.832031 392.917969 C 297.875 392.917969 298.886719 392.945312 299.847656 392.96875 C 300.804688 393 301.714844 392.980469 302.550781 392.988281 C 304.226562 392.984375 305.625 393.015625 306.609375 393.050781 C 307.589844 393.078125 308.152344 393.113281 308.152344 393.113281 C 308.152344 393.113281 307.601562 393.210938 306.628906 393.351562 C 305.65625 393.492188 304.265625 393.675781 302.589844 393.859375 C 301.753906 393.949219 300.84375 394.070312 299.882812 394.101562 C 298.917969 394.160156 297.902344 394.222656 296.855469 394.257812 C 296.328125 394.28125 295.789062 394.304688 295.25 394.328125 C 294.710938 394.347656 294.160156 394.382812 293.609375 394.367188 C 292.503906 394.363281 291.382812 394.351562 290.261719 394.34375 C 289.136719 394.3125 288.015625 394.308594 286.914062 394.230469 C 285.808594 394.183594 284.722656 394.089844 283.675781 394.023438 C 282.625 393.972656 281.613281 393.832031 280.652344 393.734375 C 279.695312 393.628906 278.792969 393.527344 277.957031 393.402344 C 277.125 393.28125 276.359375 393.152344 275.6875 393.042969 C 275.011719 392.9375 274.425781 392.804688 273.941406 392.710938 C 272.976562 392.519531 272.433594 392.371094 272.433594 392.371094 " fill-opacity="1" fill-rule="nonzero"/><g clip-path="url(#id9)"><path fill="#ffbd59" d="M 359.445312 288.519531 C 359.445312 288.519531 359.722656 288.488281 360.242188 288.433594 C 360.761719 288.386719 361.523438 288.308594 362.496094 288.25 C 364.441406 288.125 367.230469 288.003906 370.574219 288.0625 C 372.25 288.085938 374.0625 288.148438 375.976562 288.28125 C 377.890625 288.414062 379.910156 288.589844 381.992188 288.867188 C 384.070312 289.140625 386.214844 289.472656 388.375 289.929688 C 390.535156 290.382812 392.71875 290.921875 394.863281 291.585938 C 397.011719 292.261719 399.128906 293.042969 401.152344 293.957031 C 403.183594 294.867188 405.101562 295.9375 406.875 297.105469 C 408.644531 298.273438 410.238281 299.597656 411.609375 300.984375 C 412.988281 302.367188 414.128906 303.832031 415.019531 305.28125 C 415.921875 306.722656 416.5625 308.148438 417.035156 309.4375 C 417.144531 309.761719 417.253906 310.078125 417.359375 310.378906 C 417.445312 310.6875 417.523438 310.984375 417.605469 311.273438 C 417.648438 311.414062 417.679688 311.554688 417.722656 311.691406 C 417.75 311.828125 417.78125 311.964844 417.804688 312.097656 C 417.863281 312.363281 417.917969 312.617188 417.964844 312.855469 C 418.140625 313.820312 418.234375 314.585938 418.269531 315.105469 C 418.316406 315.628906 418.339844 315.90625 418.339844 315.90625 C 418.339844 315.90625 418.285156 315.632812 418.191406 315.117188 C 418.105469 314.601562 417.921875 313.859375 417.671875 312.925781 C 417.605469 312.695312 417.527344 312.449219 417.453125 312.195312 C 417.414062 312.066406 417.375 311.9375 417.335938 311.800781 C 417.285156 311.671875 417.238281 311.539062 417.1875 311.402344 C 417.085938 311.128906 416.980469 310.84375 416.875 310.550781 C 416.753906 310.261719 416.625 309.964844 416.496094 309.65625 C 415.945312 308.433594 415.226562 307.105469 414.292969 305.761719 C 413.351562 304.421875 412.1875 303.078125 410.824219 301.796875 C 409.449219 300.523438 407.875 299.324219 406.144531 298.230469 C 404.417969 297.136719 402.519531 296.179688 400.554688 295.300781 C 398.585938 294.429688 396.511719 293.6875 394.417969 293.039062 C 392.324219 292.375 390.1875 291.828125 388.066406 291.363281 C 385.945312 290.90625 383.847656 290.5 381.800781 290.191406 C 379.753906 289.878906 377.769531 289.613281 375.878906 289.410156 C 373.984375 289.210938 372.195312 289.050781 370.535156 288.929688 C 367.222656 288.695312 364.449219 288.59375 362.503906 288.550781 C 360.558594 288.507812 359.445312 288.519531 359.445312 288.519531 " fill-opacity="1" fill-rule="nonzero"/></g><g fill="#000000" fill-opacity="1"><g transform="translate(103.362752, 339.627073)"><g><path d="M 26.816406 -35.808594 C 24.953125 -35.914062 25.113281 -34.636719 25.058594 -34 C 24.582031 -28.359375 23.304688 -24.050781 22.1875 -18.515625 C 21.972656 -17.503906 22.082031 -17.558594 21.390625 -17.558594 C 18.355469 -17.558594 11.652344 -17.238281 8.726562 -17.183594 C 8.195312 -17.183594 8.140625 -17.34375 8.351562 -18.304688 C 9.257812 -22.558594 10.109375 -26.867188 10.90625 -30.914062 C 11.171875 -32.457031 11.597656 -33.730469 11.386719 -35.328125 C 11.226562 -36.179688 10.320312 -36.710938 8.9375 -36.816406 C 7.289062 -36.925781 7.394531 -35.808594 7.34375 -35.328125 C 6.757812 -29.6875 4.839844 -23.890625 4.097656 -18.410156 C 3.992188 -17.558594 3.617188 -16.972656 3.246094 -16.917969 C 1.011719 -16.601562 0.425781 -16.386719 0.320312 -15.855469 L 0.371094 -15.910156 C -0.105469 -14.84375 1.0625 -13.886719 2.660156 -13.832031 L 2.449219 -13.832031 C 3.140625 -13.621094 3.140625 -13.832031 3.03125 -13.566406 C 2.5 -11.011719 2.234375 -8.566406 1.648438 -6.171875 C 1.222656 -4.363281 0.480469 -1.96875 0.796875 0.480469 C 1.011719 1.277344 1.222656 1.488281 2.074219 1.753906 C 2.714844 1.914062 3.191406 1.703125 3.832031 1.222656 L 3.882812 1.171875 C 4.683594 0.265625 4.949219 -0.425781 5.214844 -2.179688 C 5.800781 -5.960938 6.703125 -8.992188 7.234375 -12.609375 C 7.449219 -13.941406 7.554688 -13.992188 8.40625 -14.097656 C 9.894531 -14.257812 14.097656 -14.472656 16.015625 -14.472656 L 16.066406 -14.472656 C 17.132812 -14.523438 19.847656 -14.417969 21.390625 -14.3125 C 21.8125 -14.3125 21.546875 -14.472656 21.390625 -13.621094 C 20.964844 -10.855469 20.21875 -7.449219 19.792969 -5 L 19.792969 -4.949219 C 19.6875 -3.457031 19.421875 -2.128906 19.367188 -0.691406 L 19.367188 -0.746094 C 19.207031 0.320312 19.792969 0.957031 21.121094 1.171875 C 22.347656 1.382812 23.304688 0.796875 23.675781 -0.425781 C 24.261719 -2.179688 24.207031 -4.042969 24.527344 -5.691406 C 25.75 -12.398438 26.65625 -19.6875 27.933594 -25.910156 C 28.519531 -28.785156 28.835938 -30.753906 29.210938 -33.730469 C 29.261719 -35.007812 28.359375 -35.753906 26.816406 -35.808594 Z M 26.816406 -35.808594 "/></g></g></g><g fill="#000000" fill-opacity="1"><g transform="translate(136.031009, 339.627073)"><g><path d="M 6.066406 -28.519531 C 7.234375 -28.304688 9.257812 -30.59375 9.097656 -31.816406 C 9.046875 -32.722656 8.300781 -33.359375 7.023438 -33.625 L 6.808594 -33.625 C 5.214844 -33.574219 4.097656 -32.082031 4.148438 -30.273438 C 4.203125 -29.15625 4.949219 -28.519531 6.226562 -28.519531 Z M 3.617188 0.265625 C 6.226562 0.320312 9.417969 -0.957031 10.855469 -2.605469 C 12.503906 -4.417969 13.089844 -5.640625 12.929688 -6.917969 C 12.824219 -7.714844 12.664062 -7.925781 11.863281 -8.246094 C 11.226562 -8.511719 10.320312 -8.195312 9.949219 -7.449219 C 8.992188 -5.480469 7.820312 -4.097656 6.542969 -3.351562 C 5.640625 -2.820312 4.203125 -2.128906 3.511719 -2.449219 C 3.191406 -2.554688 3.191406 -3.832031 3.191406 -5.054688 C 3.457031 -9.203125 4.363281 -13.25 5.320312 -17.183594 C 5.640625 -18.410156 5.851562 -19.632812 6.066406 -21.335938 C 6.171875 -22.347656 5.535156 -22.984375 4.257812 -23.25 L 4.308594 -23.25 C 3.40625 -23.464844 2.449219 -23.039062 2.234375 -22.238281 L 2.179688 -22.1875 C 1.011719 -16.652344 -0.636719 -11.332031 -1.0625 -5.800781 C -1.332031 -2.179688 0.480469 0.210938 3.617188 0.265625 Z M 3.617188 0.265625 "/></g></g></g><g fill="#000000" fill-opacity="1"><g transform="translate(253.371293, 355.748079)"><g><path d="M 17.535156 -23.417969 C 16.320312 -23.488281 16.421875 -22.652344 16.386719 -22.234375 C 16.074219 -18.546875 15.242188 -15.726562 14.507812 -12.109375 C 14.371094 -11.449219 14.441406 -11.480469 13.988281 -11.480469 C 12.003906 -11.480469 7.621094 -11.273438 5.707031 -11.238281 C 5.359375 -11.238281 5.324219 -11.34375 5.460938 -11.96875 C 6.054688 -14.753906 6.609375 -17.570312 7.132812 -20.214844 C 7.308594 -21.226562 7.585938 -22.058594 7.445312 -23.105469 C 7.339844 -23.660156 6.75 -24.007812 5.84375 -24.078125 C 4.765625 -24.148438 4.835938 -23.417969 4.800781 -23.105469 C 4.417969 -19.414062 3.167969 -15.621094 2.679688 -12.039062 C 2.609375 -11.480469 2.367188 -11.101562 2.121094 -11.066406 C 0.660156 -10.855469 0.277344 -10.71875 0.207031 -10.367188 L 0.242188 -10.402344 C -0.0703125 -9.707031 0.695312 -9.082031 1.738281 -9.046875 L 1.601562 -9.046875 C 2.054688 -8.90625 2.054688 -9.046875 1.984375 -8.871094 C 1.636719 -7.203125 1.460938 -5.601562 1.078125 -4.035156 C 0.800781 -2.851562 0.3125 -1.289062 0.523438 0.3125 C 0.660156 0.835938 0.800781 0.972656 1.355469 1.148438 C 1.773438 1.253906 2.085938 1.113281 2.503906 0.800781 L 2.539062 0.765625 C 3.0625 0.175781 3.234375 -0.277344 3.410156 -1.425781 C 3.792969 -3.898438 4.382812 -5.878906 4.730469 -8.246094 C 4.871094 -9.117188 4.941406 -9.152344 5.496094 -9.222656 C 6.472656 -9.324219 9.222656 -9.464844 10.472656 -9.464844 L 10.507812 -9.464844 C 11.203125 -9.5 12.980469 -9.429688 13.988281 -9.359375 C 14.265625 -9.359375 14.09375 -9.464844 13.988281 -8.90625 C 13.710938 -7.097656 13.222656 -4.871094 12.945312 -3.269531 L 12.945312 -3.234375 C 12.875 -2.261719 12.699219 -1.390625 12.664062 -0.453125 L 12.664062 -0.488281 C 12.5625 0.207031 12.945312 0.625 13.8125 0.765625 C 14.613281 0.90625 15.242188 0.523438 15.484375 -0.277344 C 15.867188 -1.425781 15.832031 -2.644531 16.039062 -3.722656 C 16.839844 -8.105469 17.433594 -12.875 18.265625 -16.945312 C 18.648438 -18.824219 18.859375 -20.113281 19.101562 -22.058594 C 19.136719 -22.894531 18.546875 -23.382812 17.535156 -23.417969 Z M 17.535156 -23.417969 "/></g></g></g><g fill="#000000" fill-opacity="1"><g transform="translate(274.735488, 355.748079)"><g><path d="M 3.375 0.242188 C 4.765625 0.625 6.714844 0.3125 7.550781 -0.488281 C 9.917969 -2.75 10.996094 -5.496094 11.101562 -9.464844 C 11.101562 -10.230469 10.648438 -10.75 9.777344 -11.066406 C 9.011719 -11.34375 8.28125 -11.066406 8.421875 -10.402344 L 8.421875 -10.4375 C 8.457031 -9.953125 8.59375 -9.394531 8.488281 -8.976562 C 7.898438 -6.4375 7.308594 -3.964844 5.742188 -2.261719 C 4.90625 -1.320312 4.59375 -1.148438 4 -1.355469 C 3.375 -1.53125 2.820312 -2.4375 2.574219 -3.722656 C 2.226562 -5.289062 2.261719 -6.4375 2.714844 -8.351562 C 3.339844 -10.996094 3.933594 -13.257812 6.402344 -14.058594 C 6.960938 -14.230469 7.132812 -14.160156 7.375 -13.777344 C 7.621094 -13.429688 7.515625 -12.980469 7.621094 -12.699219 C 7.792969 -12.246094 8.386719 -11.863281 9.011719 -11.832031 L 9.046875 -11.832031 C 9.601562 -11.832031 10.089844 -12.144531 10.195312 -12.597656 C 10.578125 -14.023438 8.90625 -15.65625 6.960938 -15.726562 C 5.113281 -15.832031 3.550781 -15.03125 2.085938 -13.292969 C 0.695312 -11.585938 0.105469 -10.089844 -0.382812 -6.992188 C -0.972656 -2.992188 0.175781 -0.730469 3.375 0.242188 Z M 3.375 0.242188 "/></g></g></g><g fill="#000000" fill-opacity="1"><g transform="translate(287.922831, 355.748079)"><g><path d="M 14.195312 -15.207031 C 13.882812 -15.414062 12.980469 -15.34375 12.980469 -14.683594 C 12.980469 -12.246094 11.761719 -7.792969 11.066406 -5.601562 C 10.683594 -4.417969 10.019531 -3.375 9.046875 -2.261719 C 8.941406 -2.121094 8.839844 -2.019531 8.769531 -1.878906 C 8.699219 -2.019531 8.628906 -2.121094 8.523438 -2.261719 C 8.246094 -2.714844 8.074219 -3.339844 8.074219 -4.105469 C 8.074219 -5.253906 8.28125 -6.785156 8.558594 -7.792969 C 8.839844 -8.769531 8.488281 -9.253906 7.515625 -9.464844 C 6.714844 -9.636719 6.195312 -9.253906 5.878906 -8.386719 C 5.183594 -6.402344 3.792969 -4.175781 2.644531 -2.644531 C 2.332031 -2.226562 1.738281 -1.773438 1.671875 -1.808594 L 1.703125 -2.679688 L 1.703125 -2.714844 C 1.84375 -5.566406 3.269531 -10.71875 4 -13.5 C 4.070312 -13.8125 4.070312 -14.058594 4 -14.578125 C 3.933594 -15.136719 3.480469 -15.484375 2.714844 -15.589844 C 1.425781 -15.796875 1.601562 -14.925781 1.53125 -14.71875 C 1.390625 -13.953125 0.695312 -11.132812 0.382812 -9.601562 C -0.0703125 -7.167969 -0.871094 -4.316406 -0.871094 -1.949219 C -0.871094 -1.148438 -0.347656 -0.453125 0.488281 0 C 1.183594 0.382812 3.132812 0.105469 3.652344 -0.242188 C 4.382812 -0.730469 5.011719 -1.425781 5.777344 -2.539062 C 6.019531 -1.601562 6.890625 -0.660156 7.96875 -0.175781 C 9.289062 0.105469 10.785156 -0.523438 11.796875 -1.773438 C 12.769531 -2.992188 13.257812 -4.175781 13.777344 -5.429688 C 14.613281 -7.480469 15.273438 -11.726562 15.378906 -13.710938 C 15.414062 -14.40625 15.03125 -14.890625 14.195312 -15.207031 Z M 14.195312 -15.207031 "/></g></g></g><g fill="#000000" fill-opacity="1"><g transform="translate(305.042024, 355.748079)"><g/></g></g><g fill="#000000" fill-opacity="1"><g transform="translate(312.001047, 355.748079)"><g><path d="M 13.847656 -6.054688 L 13.8125 -6.089844 C 13.363281 -6.4375 12.839844 -6.367188 12.28125 -5.707031 C 11.066406 -4.210938 9.394531 -2.75 8.316406 -2.191406 C 8.316406 -2.191406 8.28125 -2.191406 8.28125 -2.15625 L 8.28125 -2.402344 L 8.28125 -2.367188 C 8.769531 -4.90625 9.984375 -10.4375 10.472656 -12.316406 C 10.683594 -13.046875 10.683594 -13.675781 10.820312 -14.160156 C 10.996094 -14.824219 10.648438 -15.171875 9.8125 -15.378906 C 9.117188 -15.519531 8.421875 -15.242188 8.316406 -14.753906 C 8.105469 -14.125 7.898438 -13.535156 7.792969 -13.011719 C 7.308594 -10.125 5.8125 -6.855469 4.210938 -5.011719 C 3.515625 -4.246094 2.992188 -3.097656 2.539062 -3.515625 C 2.226562 -3.828125 2.054688 -4.558594 2.15625 -5.183594 C 2.296875 -6.578125 3.234375 -9.636719 3.480469 -10.890625 C 3.792969 -12.734375 3.863281 -13.328125 3.722656 -13.917969 C 3.617188 -14.371094 2.992188 -14.753906 2.367188 -14.683594 C 1.808594 -14.753906 1.355469 -14.476562 1.289062 -14.023438 C 0.972656 -11.308594 -0.277344 -7.757812 -0.453125 -5.113281 C -0.523438 -3.898438 -0.207031 -3.167969 0.730469 -2.402344 C 2.4375 -1.078125 3.722656 -1.183594 5.324219 -2.785156 C 5.460938 -2.921875 5.601562 -3.0625 5.777344 -3.269531 C 5.707031 -2.851562 5.601562 -2.4375 5.53125 -2.054688 L 5.359375 -1.042969 C 3.480469 -0.242188 2.332031 0.453125 0.589844 1.703125 C -1.253906 3.0625 -1.949219 4.105469 -1.914062 5.636719 C -1.878906 7.203125 -0.972656 8.28125 0.941406 9.117188 C 2.851562 9.882812 4.835938 9.222656 5.777344 7.410156 C 7.097656 4.90625 7.0625 3.828125 7.757812 1.253906 C 7.933594 0.488281 8.003906 0.207031 8.28125 0.105469 C 10.4375 -0.730469 12.804688 -2.679688 14.023438 -4.523438 C 14.476562 -5.253906 14.441406 -5.460938 13.847656 -6.054688 Z M 5.046875 1.601562 C 4.523438 4.070312 4.417969 4.628906 3.515625 6.4375 C 2.921875 7.691406 2.402344 8.105469 1.84375 7.792969 C 0.488281 7.027344 0.175781 5.84375 0.871094 4.523438 C 1.496094 3.410156 2.121094 2.820312 3.375 2.121094 C 4.558594 1.425781 5.289062 0.765625 5.046875 1.601562 Z M 5.046875 1.601562 "/></g></g></g><g fill="#000000" fill-opacity="1"><g transform="translate(324.944825, 355.748079)"><g><path d="M 2.574219 0.3125 C 4.105469 0.800781 5.601562 0.242188 6.75 -1.253906 L 6.714844 -1.253906 L 7.027344 -1.601562 C 7.898438 0.347656 10.785156 0.695312 12.527344 -1.007812 C 13.5 -1.914062 14.371094 -3.097656 14.996094 -4.316406 C 15.273438 -4.871094 15.242188 -5.183594 14.789062 -5.8125 L 14.753906 -5.8125 C 14.371094 -6.261719 13.675781 -6.054688 13.152344 -5.148438 C 12.527344 -4.070312 12.214844 -3.757812 11.621094 -3.0625 C 11.132812 -2.4375 10.125 -1.636719 9.535156 -1.878906 C 9.152344 -2.019531 9.082031 -2.820312 9.046875 -3.480469 C 8.976562 -5.21875 9.8125 -7.238281 10.054688 -8.523438 C 10.230469 -9.5 10.019531 -9.847656 9.046875 -10.089844 C 8.140625 -10.335938 7.65625 -9.984375 7.375 -9.046875 C 6.75 -6.960938 6.089844 -4.699219 4.730469 -2.75 C 4.210938 -2.054688 3.933594 -1.636719 3.480469 -1.460938 C 3.132812 -1.289062 3.234375 -1.289062 2.851562 -1.773438 C 2.296875 -2.4375 2.402344 -3.617188 2.296875 -4.800781 C 2.4375 -7.757812 3.269531 -10.367188 4.800781 -12.527344 C 6.261719 -14.507812 6.890625 -14.683594 7.828125 -13.5 C 8.175781 -13.117188 8.074219 -12.628906 8.105469 -12.214844 C 8.140625 -11.621094 8.804688 -11.167969 9.535156 -11.238281 C 10.230469 -11.308594 10.542969 -11.691406 10.542969 -12.421875 C 10.472656 -13.917969 9.011719 -15.484375 7.203125 -15.902344 L 7.238281 -15.902344 C 6.261719 -16.179688 5.183594 -15.972656 4.382812 -15.34375 C 2.886719 -14.160156 1.914062 -12.910156 1.113281 -11.132812 C -0.0351562 -8.523438 -0.835938 -6.226562 -0.417969 -3.375 C -0.105469 -1.460938 0.835938 -0.277344 2.574219 0.3125 Z M 2.574219 0.3125 "/></g></g></g><g fill="#000000" fill-opacity="1"><g transform="translate(338.723692, 355.748079)"><g/></g></g><g fill="#000000" fill-opacity="1"><g transform="translate(345.68272, 355.748079)"><g><path d="M 6.089844 -0.382812 C 6.925781 -1.113281 7.550781 -1.84375 7.96875 -2.539062 C 8.488281 -1.460938 9.429688 -0.730469 10.71875 -0.382812 C 12.039062 -0.0351562 13.710938 -0.558594 14.40625 -1.566406 C 14.824219 -2.121094 15.136719 -2.539062 15.378906 -2.992188 C 15.9375 -4.070312 16.285156 -4.453125 16.179688 -5.21875 L 16.144531 -5.253906 C 16.074219 -5.496094 16.179688 -5.777344 15.484375 -6.019531 L 15.378906 -6.019531 C 14.890625 -6.054688 14.507812 -5.878906 14.300781 -5.460938 C 13.742188 -4.316406 13.046875 -3.304688 12.351562 -2.539062 C 11.550781 -1.636719 10.785156 -1.878906 10.402344 -2.992188 C 9.8125 -4.628906 9.8125 -6.507812 10.402344 -8.734375 C 11.585938 -13.394531 12.246094 -17.015625 12.910156 -20.667969 C 13.046875 -21.433594 13.011719 -21.957031 12.839844 -22.511719 C 12.699219 -23.070312 12.109375 -23.417969 11.449219 -23.417969 C 10.300781 -23.488281 10.335938 -22.757812 10.265625 -22.476562 C 9.707031 -19.414062 8.871094 -17.152344 8.386719 -14.160156 C 6.960938 -15.554688 4.628906 -15.691406 3.234375 -14.230469 C 1.007812 -11.933594 -0.347656 -8.59375 -0.523438 -5.046875 C -0.589844 -3.792969 -0.175781 -2.46875 0.695312 -1.113281 C 1.984375 0.800781 4.453125 1.148438 6.089844 -0.382812 Z M 3.410156 -1.320312 C 3.199219 -1.253906 3.0625 -1.253906 2.851562 -1.496094 C 2.402344 -2.019531 2.054688 -3.339844 2.15625 -4.664062 C 2.402344 -7.691406 2.992188 -10.71875 5.183594 -12.910156 C 6.160156 -13.882812 6.195312 -13.917969 6.785156 -12.457031 L 6.820312 -12.421875 C 7.0625 -12.003906 7.445312 -11.761719 7.898438 -11.832031 C 7.933594 -11.832031 7.828125 -11.691406 7.828125 -11.273438 C 7.828125 -8.699219 6.75 -5.253906 5.324219 -3.132812 C 4.628906 -2.191406 4.140625 -1.601562 3.410156 -1.320312 Z M 3.410156 -1.320312 "/></g></g></g><g fill="#000000" fill-opacity="1"><g transform="translate(360.505429, 355.748079)"><g><path d="M 3.375 0.242188 C 4.765625 0.625 6.714844 0.3125 7.550781 -0.488281 C 9.917969 -2.75 10.996094 -5.496094 11.101562 -9.464844 C 11.101562 -10.230469 10.648438 -10.75 9.777344 -11.066406 C 9.011719 -11.34375 8.28125 -11.066406 8.421875 -10.402344 L 8.421875 -10.4375 C 8.457031 -9.953125 8.59375 -9.394531 8.488281 -8.976562 C 7.898438 -6.4375 7.308594 -3.964844 5.742188 -2.261719 C 4.90625 -1.320312 4.59375 -1.148438 4 -1.355469 C 3.375 -1.53125 2.820312 -2.4375 2.574219 -3.722656 C 2.226562 -5.289062 2.261719 -6.4375 2.714844 -8.351562 C 3.339844 -10.996094 3.933594 -13.257812 6.402344 -14.058594 C 6.960938 -14.230469 7.132812 -14.160156 7.375 -13.777344 C 7.621094 -13.429688 7.515625 -12.980469 7.621094 -12.699219 C 7.792969 -12.246094 8.386719 -11.863281 9.011719 -11.832031 L 9.046875 -11.832031 C 9.601562 -11.832031 10.089844 -12.144531 10.195312 -12.597656 C 10.578125 -14.023438 8.90625 -15.65625 6.960938 -15.726562 C 5.113281 -15.832031 3.550781 -15.03125 2.085938 -13.292969 C 0.695312 -11.585938 0.105469 -10.089844 -0.382812 -6.992188 C -0.972656 -2.992188 0.175781 -0.730469 3.375 0.242188 Z M 3.375 0.242188 "/></g></g></g><g fill="#000000" fill-opacity="1"><g transform="translate(373.692772, 355.748079)"><g><path d="M 3.964844 -18.648438 C 4.730469 -18.511719 6.054688 -20.007812 5.949219 -20.808594 C 5.914062 -21.398438 5.429688 -21.816406 4.59375 -21.992188 L 4.453125 -21.992188 C 3.410156 -21.957031 2.679688 -20.980469 2.714844 -19.796875 C 2.75 -19.066406 3.234375 -18.648438 4.070312 -18.648438 Z M 2.367188 0.175781 C 4.070312 0.207031 6.160156 -0.625 7.097656 -1.703125 C 8.175781 -2.886719 8.558594 -3.6875 8.457031 -4.523438 C 8.386719 -5.046875 8.28125 -5.183594 7.757812 -5.394531 C 7.339844 -5.566406 6.75 -5.359375 6.507812 -4.871094 C 5.878906 -3.582031 5.113281 -2.679688 4.28125 -2.191406 C 3.6875 -1.84375 2.75 -1.390625 2.296875 -1.601562 C 2.085938 -1.671875 2.085938 -2.503906 2.085938 -3.304688 C 2.261719 -6.019531 2.851562 -8.664062 3.480469 -11.238281 C 3.6875 -12.039062 3.828125 -12.839844 3.964844 -13.953125 C 4.035156 -14.613281 3.617188 -15.03125 2.785156 -15.207031 L 2.820312 -15.207031 C 2.226562 -15.34375 1.601562 -15.066406 1.460938 -14.542969 L 1.425781 -14.507812 C 0.660156 -10.890625 -0.417969 -7.410156 -0.695312 -3.792969 C -0.871094 -1.425781 0.3125 0.140625 2.367188 0.175781 Z M 2.367188 0.175781 "/></g></g></g><g fill="#000000" fill-opacity="1"><g transform="translate(380.756172, 355.748079)"><g><path d="M 15.449219 -5.601562 C 14.542969 -5.777344 14.371094 -5.046875 14.300781 -4.976562 L 14.300781 -4.941406 C 13.328125 -3.582031 12.769531 -2.46875 11.308594 -1.738281 C 10.71875 -1.460938 10.472656 -1.566406 10.300781 -2.15625 C 10.089844 -2.886719 10.125 -3.792969 10.402344 -5.148438 C 10.925781 -7.585938 11.515625 -9.917969 12.003906 -12.246094 C 12.214844 -13.292969 11.863281 -14.160156 10.890625 -15.136719 C 10.160156 -15.796875 8.90625 -15.972656 7.828125 -15.519531 C 6.578125 -14.996094 5.53125 -14.265625 4.417969 -13.117188 C 4 -12.664062 3.652344 -12.246094 3.375 -11.832031 L 3.722656 -13.777344 C 3.933594 -14.683594 3.6875 -15.066406 2.75 -15.308594 L 2.714844 -15.308594 C 1.84375 -15.484375 1.320312 -15.066406 1.148438 -14.160156 C 0.730469 -11.933594 0.277344 -9.671875 -0.105469 -7.515625 L -1.183594 -1.914062 C -1.289062 -1.113281 -0.90625 -0.589844 0 -0.3125 L 0.0351562 -0.3125 C 1.21875 -0.0351562 1.390625 -0.972656 1.496094 -1.355469 C 2.609375 -4.730469 3.582031 -8.003906 5.636719 -10.683594 C 6.679688 -12.074219 7.621094 -13.222656 8.976562 -13.742188 C 9.464844 -13.988281 9.570312 -13.917969 9.394531 -13.046875 C 9.253906 -12.316406 9.082031 -11.726562 8.976562 -11.132812 C 8.523438 -8.734375 7.722656 -6.4375 7.515625 -4.105469 C 7.445312 -3.234375 7.515625 -2.574219 7.828125 -1.773438 C 8.351562 -0.277344 10.785156 0.730469 12.28125 0.105469 C 13.882812 -0.625 15.066406 -1.601562 15.726562 -2.820312 C 16.109375 -3.480469 16.285156 -3.964844 16.355469 -4.558594 C 16.421875 -5.082031 16.074219 -5.496094 15.449219 -5.601562 Z M 15.449219 -5.601562 "/></g></g></g><g fill="#000000" fill-opacity="1"><g transform="translate(395.718065, 355.748079)"><g><path d="M 2.15625 -17.675781 C 2.714844 -17.605469 3.339844 -17.851562 3.445312 -18.199219 C 4.070312 -20.144531 4.558594 -22.023438 4.730469 -23.9375 L 4.730469 -24.042969 L 4.699219 -24.113281 C 4.523438 -24.601562 3.933594 -24.914062 3.234375 -24.914062 C 2.261719 -24.914062 2.15625 -24.285156 2.085938 -24.007812 L 1.636719 -21.640625 C 1.53125 -20.632812 1.148438 -19.625 1.253906 -18.441406 C 1.320312 -18.164062 1.320312 -17.746094 2.15625 -17.675781 Z M 2.15625 -17.675781 "/></g></g></g></svg>