<?xml version="1.0" standalone="no"?>
<!DOCTYPE svg PUBLIC "-//W3C//DTD SVG 20010904//EN"
 "http://www.w3.org/TR/2001/REC-SVG-20010904/DTD/svg10.dtd">
<svg version="1.0" xmlns="http://www.w3.org/2000/svg"
 width="500.000000pt" height="200.000000pt" viewBox="0 0 500.000000 200.000000"
 preserveAspectRatio="xMidYMid meet">

<g transform="translate(0.000000,200.000000) scale(0.100000,-0.100000)"
fill="#000000" stroke="none">
<path d="M972 1988 c-9 -9 -12 -68 -12 -205 l0 -193 -98 0 c-101 0 -122 -7
-122 -42 0 -28 33 -38 129 -38 l90 0 3 -274 3 -274 40 -78 c69 -134 181 -204
330 -204 126 0 231 53 301 150 l36 50 30 -45 c39 -58 104 -108 176 -136 81
-30 215 -24 288 14 64 32 109 70 145 121 l29 39 0 -85 c0 -95 12 -122 51 -116
l24 3 0 330 0 330 -24 3 c-32 5 -44 -10 -51 -64 l-5 -46 -31 45 c-67 95 -191
152 -314 145 -105 -6 -184 -43 -254 -119 -67 -72 -91 -134 -104 -262 -8 -87
-13 -103 -46 -153 -63 -95 -154 -139 -270 -132 -117 8 -195 59 -245 160 l-31
61 0 269 0 268 249 0 c268 0 276 2 269 52 l-3 23 -257 3 -258 2 0 189 c0 159
-3 192 -16 205 -19 19 -36 20 -52 4z m1139 -645 c72 -23 168 -116 192 -187 38
-111 11 -240 -67 -320 -63 -64 -116 -88 -206 -94 -98 -5 -168 20 -233 83 -70
70 -92 123 -92 225 0 97 20 146 84 213 83 88 203 118 322 80z"/>
<path d="M3623 1406 c-130 -42 -231 -153 -258 -283 -6 -32 -6 -33 28 -33 33 0
35 2 57 62 91 250 437 265 552 23 55 -118 33 -241 -61 -336 -86 -85 -200 -112
-314 -73 -62 21 -137 90 -167 153 -21 46 -26 51 -57 51 -40 0 -41 -8 -8 -77
33 -72 103 -144 172 -178 74 -36 191 -46 275 -21 62 18 139 71 181 124 l27 35
0 -275 0 -275 -31 -61 c-30 -62 -73 -103 -139 -137 -43 -22 -152 -31 -205 -16
-103 27 -193 123 -215 229 -11 51 -12 52 -47 52 -35 0 -35 0 -29 -37 27 -150
109 -253 245 -304 80 -30 203 -24 283 13 100 46 176 142 207 258 8 33 11 181
9 540 l-3 495 -23 3 c-33 5 -52 -15 -52 -55 l0 -35 -46 51 c-67 75 -153 114
-257 118 -51 2 -98 -2 -124 -11z"/>
<path d="M2831 1399 c-66 -13 -129 -47 -185 -101 -27 -26 -51 -48 -52 -48 -2
0 -4 19 -6 43 -3 36 -6 42 -27 45 -51 8 -51 5 -51 -507 0 -439 2 -481 19 -539
36 -119 97 -193 203 -249 48 -25 62 -28 158 -28 95 0 111 3 162 28 109 54 195
170 206 278 l5 49 -35 0 c-34 0 -35 -1 -42 -47 -8 -60 -44 -121 -101 -171
-148 -130 -370 -82 -467 101 -22 40 -23 54 -26 307 l-3 264 55 -53 c31 -28 82
-64 113 -79 49 -23 71 -27 148 -27 77 0 99 4 147 27 101 47 193 153 213 246 6
31 6 32 -28 32 -32 0 -36 -4 -52 -47 -77 -200 -351 -253 -496 -96 -60 65 -83
123 -83 208 1 151 98 266 250 294 138 26 285 -59 332 -191 15 -44 19 -48 49
-48 39 0 41 9 12 85 -41 109 -155 202 -278 225 -61 11 -78 11 -140 -1z"/>
<path d="M2876 1139 c-68 -19 -100 -86 -73 -152 16 -37 59 -67 97 -67 34 0 86
29 100 55 l13 25 307 0 307 0 11 -25 c16 -35 71 -59 115 -51 84 16 118 127 58
187 -49 49 -141 40 -172 -17 l-12 -24 -305 0 -306 0 -25 30 c-30 35 -74 50
-115 39z"/>
</g>
</svg>
