<svg xmlns="http://www.w3.org/2000/svg" xmlns:xlink="http://www.w3.org/1999/xlink" width="500" zoomAndPan="magnify" viewBox="0 0 375 374.999991" height="500" preserveAspectRatio="xMidYMid meet" version="1.0"><rect x="-37.5" width="450" fill="#ffffff" y="-37.499999" height="449.999989" fill-opacity="1"/><rect x="-37.5" width="450" fill="#ffffff" y="-37.499999" height="449.999989" fill-opacity="1"/><rect x="-37.5" width="450" fill="#ffffff" y="-37.499999" height="449.999989" fill-opacity="1"/><path fill="#c8c4e3" d="M 375.769531 187.574219 C 375.769531 234.171875 358.738281 276.832031 330.585938 309.628906 C 321.511719 320.199219 311.257812 329.753906 300.082031 338.058594 C 268.84375 361.328125 230.117188 375.089844 188.167969 375.089844 C 161.355469 375.089844 135.882812 369.472656 112.820312 359.34375 C 99.761719 353.625 87.492188 346.46875 76.199219 338.058594 C 65.035156 329.722656 54.8125 320.199219 45.738281 309.644531 C 17.585938 276.847656 0.539062 234.1875 0.539062 187.574219 C 0.539062 84.011719 84.550781 0.0585938 188.167969 0.0585938 C 259.265625 0.0585938 321.128906 39.601562 352.957031 97.886719 C 367.503906 124.523438 375.769531 155.085938 375.769531 187.574219 Z M 375.769531 187.574219 " fill-opacity="1" fill-rule="nonzero"/><path fill="#9492c7" d="M 333.542969 117.910156 C 308.566406 104.605469 283.917969 90.640625 258.621094 77.953125 C 245.632812 71.441406 232.085938 65.902344 218.96875 59.59375 L 211.964844 74.425781 L 197.757812 74.222656 L 113.613281 359.34375 C 136.675781 369.472656 162.152344 375.089844 188.964844 375.089844 C 230.910156 375.089844 269.636719 361.328125 300.875 338.058594 C 312.054688 329.753906 322.304688 320.199219 331.378906 309.628906 C 359.53125 276.832031 376.5625 234.171875 376.5625 187.574219 C 376.5625 169.757812 374.0625 152.527344 369.414062 136.195312 C 357.367188 130.316406 345.410156 124.246094 333.542969 117.910156 Z M 333.542969 117.910156 " fill-opacity="1" fill-rule="nonzero"/><path fill="#aa7648" d="M 125.070312 126.980469 C 123.203125 124.9375 120.335938 123.964844 118.71875 126.773438 C 116.394531 130.800781 116.628906 136.210938 116.96875 140.664062 C 117.246094 144.265625 117.6875 147.882812 118.628906 151.398438 C 119.4375 154.425781 120.558594 158.597656 123.261719 160.480469 C 123.882812 160.90625 124.71875 161.332031 125.5 161.496094 C 125.925781 161.582031 128.515625 161.628906 127.632812 160.511719 " fill-opacity="1" fill-rule="nonzero"/><path fill="#aa7648" d="M 251.046875 126.980469 C 252.914062 124.9375 255.78125 123.964844 257.398438 126.773438 C 259.722656 130.800781 259.488281 136.210938 259.148438 140.664062 C 258.871094 144.265625 258.429688 147.882812 257.488281 151.398438 C 256.679688 154.425781 255.5625 158.597656 252.855469 160.480469 C 252.238281 160.90625 251.398438 161.332031 250.617188 161.496094 C 250.191406 161.582031 247.605469 161.628906 248.484375 160.511719 " fill-opacity="1" fill-rule="nonzero"/><path fill="#8b613a" d="M 330.585938 309.628906 C 321.511719 320.199219 311.273438 329.753906 300.082031 338.058594 L 76.210938 338.058594 C 65.035156 329.722656 54.8125 320.199219 45.753906 309.644531 C 54.253906 287.988281 72.269531 270.71875 95.507812 263.632812 L 134.191406 248.785156 C 149.132812 243.875 148.457031 235.613281 148.457031 219.882812 L 148.457031 186.425781 L 227.867188 186.425781 L 227.867188 219.855469 C 227.867188 235.597656 228.660156 244.949219 243.632812 249.84375 L 280.886719 263.585938 C 304.109375 270.703125 322.113281 287.976562 330.585938 309.628906 Z M 330.585938 309.628906 " fill-opacity="1" fill-rule="nonzero"/><path fill="#ed6e4a" d="M 330.585938 309.628906 C 296.183594 349.699219 245.148438 375.089844 188.167969 375.089844 C 131.191406 375.089844 80.15625 349.699219 45.753906 309.644531 C 54.253906 287.988281 72.269531 270.71875 95.507812 263.632812 L 134.191406 248.785156 C 138.542969 247.34375 141.574219 245.625 143.675781 243.523438 C 151.28125 250.519531 185.023438 281.257812 190.242188 281.332031 C 195.464844 281.40625 227.644531 250.828125 235.75 245.960938 C 237.792969 247.476562 240.367188 248.769531 243.632812 249.84375 L 280.886719 263.585938 C 304.109375 270.703125 322.113281 287.976562 330.585938 309.628906 Z M 330.585938 309.628906 " fill-opacity="1" fill-rule="nonzero"/><path fill="#aa7648" d="M 251.367188 120.160156 C 251.207031 75.351562 223.628906 50.097656 188.15625 50.097656 C 188.140625 50.097656 188.167969 50.097656 188.15625 50.097656 C 188.140625 50.097656 188.167969 50.097656 188.15625 50.097656 C 152.679688 50.097656 125.234375 75.351562 125.070312 120.160156 C 125 140.59375 125.703125 154.042969 127.777344 168.875 C 134.234375 214.972656 176.695312 227.894531 188.15625 227.894531 C 202.199219 227.894531 242.207031 214.972656 248.664062 168.875 C 250.75 154.042969 251.441406 140.59375 251.367188 120.160156 Z M 251.367188 120.160156 " fill-opacity="1" fill-rule="nonzero"/><path fill="#aa7648" d="M 251.367188 120.160156 C 251.207031 75.351562 223.628906 50.097656 188.15625 50.097656 C 188.140625 50.097656 188.167969 50.097656 188.15625 50.097656 C 188.140625 50.097656 188.167969 50.097656 188.15625 50.097656 C 152.679688 50.097656 125.234375 75.351562 125.070312 120.160156 C 125 140.59375 125.703125 154.042969 127.777344 168.875 C 134.234375 214.972656 176.695312 227.894531 188.15625 227.894531 C 202.199219 227.894531 242.207031 214.972656 248.664062 168.875 C 250.75 154.042969 251.441406 140.59375 251.367188 120.160156 Z M 251.367188 120.160156 " fill-opacity="1" fill-rule="nonzero"/><path fill="#472312" d="M 145.558594 96.019531 C 161.871094 87.746094 180.359375 84.453125 198.523438 86.730469 C 218.703125 89.257812 235.925781 98.667969 250.957031 111.207031 C 247.382812 72 248.292969 50.082031 188.167969 50.082031 C 129.824219 50.082031 129.71875 71.457031 125.660156 109.738281 C 131.71875 104.445312 138.292969 99.710938 145.558594 96.019531 Z M 145.558594 96.019531 " fill-opacity="1" fill-rule="nonzero"/><path fill="#ffffff" d="M 148.179688 231.46875 L 127.824219 251.226562 L 172.152344 306.261719 L 190.242188 281.332031 Z M 148.179688 231.46875 " fill-opacity="1" fill-rule="nonzero"/><path fill="#ffffff" d="M 227.925781 231.46875 L 248.292969 251.226562 L 203.964844 306.261719 L 185.859375 281.332031 Z M 227.925781 231.46875 " fill-opacity="1" fill-rule="nonzero"/><path fill="#472312" d="M 191.433594 204.050781 C 191.273438 203.800781 191.125 203.566406 190.976562 203.332031 C 189.582031 201.007812 186.34375 200.746094 184.507812 202.742188 C 182.578125 204.832031 180.257812 206.714844 177.976562 208.316406 C 172.050781 212.476562 164.136719 212.710938 158.046875 208.785156 C 147.839844 202.199219 138.882812 191.953125 129.808594 178.578125 C 140.398438 216.796875 177.550781 227.882812 188.15625 227.882812 C 200.554688 227.882812 233.160156 217.796875 245.089844 183.738281 C 238.132812 195.953125 228.9375 206.109375 216.71875 210.976562 C 205.949219 215.269531 196.789062 212.429688 191.433594 204.050781 Z M 191.433594 204.050781 " fill-opacity="1" fill-rule="nonzero"/></svg>