<svg xmlns="http://www.w3.org/2000/svg" xmlns:xlink="http://www.w3.org/1999/xlink" width="500" zoomAndPan="magnify" viewBox="0 0 375 374.999991" height="500" preserveAspectRatio="xMidYMid meet" version="1.0"><defs><clipPath id="id1"><path d="M 181.488281 157.125 L 240.738281 157.125 L 240.738281 217.875 L 181.488281 217.875 Z M 181.488281 157.125 " clip-rule="nonzero"/></clipPath><clipPath id="id2"><path d="M 151.695312 181.535156 L 210.945312 181.535156 L 210.945312 242.285156 L 151.695312 242.285156 Z M 151.695312 181.535156 " clip-rule="nonzero"/></clipPath><clipPath id="id3"><path d="M 134.96875 157.125 L 194.21875 157.125 L 194.21875 217.875 L 134.96875 217.875 Z M 134.96875 157.125 " clip-rule="nonzero"/></clipPath></defs><rect x="-37.5" width="450" fill="#ffffff" y="-37.499999" height="449.999989" fill-opacity="1"/><rect x="-37.5" width="450" fill="#ffffff" y="-37.499999" height="449.999989" fill-opacity="1"/><rect x="-37.5" width="450" fill="#ffffff" y="-37.499999" height="449.999989" fill-opacity="1"/><path fill="#59c7b6" d="M 374.625 187.515625 C 374.507812 290.964844 290.539062 374.742188 187.09375 374.625 C 83.648438 374.492188 -0.117188 290.539062 0 187.109375 C 0.117188 83.648438 84.085938 -0.117188 187.515625 0 C 290.964844 0.117188 374.726562 84.070312 374.625 187.515625 " fill-opacity="1" fill-rule="nonzero"/><path fill="#f8a692" d="M 214.328125 331.5 L 160.78125 331.441406 L 160.882812 226.984375 L 214.445312 227.027344 L 214.328125 331.5 " fill-opacity="1" fill-rule="nonzero"/><path fill="#fbd9c9" d="M 187.53125 237.066406 C 169.238281 237.066406 164.820312 218.832031 164.820312 218.832031 C 164.820312 218.832031 186.070312 227.101562 210.257812 218.832031 C 210.257812 218.832031 205.839844 237.066406 187.53125 237.066406 Z M 263.6875 190.574219 C 266.46875 179.964844 287.65625 88.183594 187.167969 87.6875 L 187.167969 87.671875 C 187.019531 87.671875 186.902344 87.6875 186.757812 87.6875 C 186.625 87.6875 186.492188 87.671875 186.363281 87.671875 L 186.363281 87.6875 C 79.710938 88.210938 111.699219 191.585938 111.699219 191.585938 C 120.304688 217.414062 140.132812 242.773438 160.503906 256.089844 C 169.738281 262.136719 179.089844 265.707031 187.53125 265.707031 C 195.992188 265.707031 205.339844 262.136719 214.589844 256.089844 C 234.945312 242.773438 254.746094 217.414062 263.351562 191.585938 L 263.410156 191.585938 C 263.410156 191.585938 263.480469 191.324219 263.613281 190.855469 C 263.644531 190.765625 263.671875 190.679688 263.699219 190.589844 C 263.699219 190.574219 263.699219 190.574219 263.6875 190.574219 " fill-opacity="1" fill-rule="evenodd"/><path fill="#f03a1f" d="M 187.941406 328.542969 L 187.882812 328.617188 L 187.898438 328.632812 Z M 187.941406 328.542969 " fill-opacity="1" fill-rule="nonzero"/><path fill="#f03a1f" d="M 187.882812 328.617188 L 187.796875 328.542969 L 187.855469 328.632812 Z M 187.882812 328.617188 " fill-opacity="1" fill-rule="nonzero"/><path fill="#e882a3" d="M 187.53125 235.382812 C 169.238281 235.382812 164.820312 218.832031 164.820312 218.832031 C 164.820312 218.832031 169.238281 237.066406 187.53125 237.066406 C 205.839844 237.066406 210.257812 218.832031 210.257812 218.832031 C 210.257812 218.832031 205.839844 235.382812 187.53125 235.382812 " fill-opacity="1" fill-rule="nonzero"/><path fill="#e882a3" d="M 187.53125 224.511719 C 199.738281 224.511719 210.257812 218.832031 210.257812 218.832031 C 186.070312 227.101562 164.820312 218.832031 164.820312 218.832031 C 164.820312 218.832031 175.34375 224.511719 187.53125 224.511719 " fill-opacity="1" fill-rule="nonzero"/><path fill="#ffffff" d="M 187.53125 224.511719 C 175.34375 224.511719 164.820312 218.832031 164.820312 218.832031 C 164.820312 218.832031 169.238281 235.382812 187.53125 235.382812 C 205.839844 235.382812 210.257812 218.832031 210.257812 218.832031 C 210.257812 218.832031 199.738281 224.511719 187.53125 224.511719 " fill-opacity="1" fill-rule="nonzero"/><path fill="#d39787" d="M 152.367188 171.054688 C 146.148438 172.078125 141.714844 177.375 141.332031 183.566406 L 166.824219 179.394531 C 164.484375 173.644531 158.570312 170.042969 152.367188 171.054688 " fill-opacity="1" fill-rule="nonzero"/><path fill="#d39787" d="M 222.710938 171.054688 C 216.507812 170.042969 210.59375 173.644531 208.253906 179.394531 L 233.746094 183.566406 C 233.378906 177.375 228.917969 172.078125 222.710938 171.054688 " fill-opacity="1" fill-rule="nonzero"/><path fill="#9a4a28" d="M 213.550781 161.761719 C 213.550781 161.761719 232.09375 161.105469 240.171875 172.914062 C 240.171875 172.914062 235.328125 157.460938 213.550781 161.761719 " fill-opacity="1" fill-rule="nonzero"/><path fill="#9a4a28" d="M 134.910156 172.914062 C 142.226562 162.214844 158.117188 161.746094 161.058594 161.761719 L 161.160156 161.703125 C 139.707031 157.664062 134.910156 172.914062 134.910156 172.914062 " fill-opacity="1" fill-rule="nonzero"/><path fill="#fbd9c9" d="M 134.953125 290.628906 C 134.953125 290.628906 170.089844 279.242188 187.621094 279.242188 L 187.691406 338.625 L 134.910156 328.632812 L 134.953125 290.628906 " fill-opacity="1" fill-rule="nonzero"/><path fill="#fbd9c9" d="M 239.90625 290.628906 C 239.90625 290.628906 204.769531 279.242188 187.238281 279.242188 L 187.167969 338.625 L 239.9375 328.632812 L 239.90625 290.628906 " fill-opacity="1" fill-rule="nonzero"/><path fill="#facc07" d="M 279.988281 302.171875 L 240.902344 290.746094 C 233.671875 314.230469 212.703125 331.222656 187.941406 331.222656 C 163.136719 331.222656 142.136719 314.171875 134.953125 290.628906 L 95.835938 301.96875 C 83.382812 304.703125 72.1875 315.722656 63.613281 327.300781 C 96.65625 356.683594 140.164062 374.566406 187.839844 374.625 C 235.515625 374.667969 279.050781 356.902344 312.152344 327.605469 C 303.59375 315.988281 292.425781 304.953125 279.988281 302.171875 " fill-opacity="1" fill-rule="nonzero"/><path fill="#f8a692" d="M 160.78125 283.414062 C 171.363281 298.324219 203.804688 298.324219 214.386719 283.414062 L 214.386719 275.554688 L 160.78125 275.554688 L 160.78125 283.414062 " fill-opacity="1" fill-rule="nonzero"/><path fill="#82431c" d="M 307.179688 153.246094 C 307.589844 146.6875 301.984375 145.167969 300.753906 138.464844 C 298.734375 127.578125 302.554688 116.851562 294.328125 111.539062 C 296.65625 108.304688 300.316406 104.820312 299.773438 98.71875 C 298.996094 93.933594 292.296875 93.496094 291.769531 88.460938 C 292.414062 77.355469 282.214844 83.589844 281.304688 78.949219 C 278.394531 48.011719 242.175781 44.574219 232.792969 49.988281 C 230.25 36.714844 200.703125 24.832031 196.429688 25.273438 C 195.257812 29.046875 194.042969 32.164062 192.769531 34.742188 C 188.921875 29.253906 182.570312 25.667969 175.355469 25.667969 C 166.3125 25.667969 158.601562 31.332031 155.511719 39.292969 C 148.78125 37.566406 141.304688 36.832031 132.960938 39.554688 C 132.960938 39.554688 113.398438 45.363281 124.769531 64.140625 C 99.917969 57 110.761719 92.953125 85.34375 83.324219 C 80.792969 87.128906 78.890625 95.179688 81.496094 102.566406 C 69.980469 106.433594 71.195312 123.027344 66.117188 133.328125 C 64.945312 139.621094 72.160156 141.347656 71.238281 143.585938 C 54.554688 153.597656 63.421875 180.214844 81.496094 176.921875 C 68.71875 187.3125 79.8125 207.992188 91.753906 205.136719 C 86.691406 226.984375 116.308594 235.382812 123.800781 229.5 C 122.484375 232.867188 122.28125 237.359375 122.527344 242.304688 C 126.027344 245.234375 135.992188 240.578125 142.226562 240.769531 C 140.910156 229.851562 135.832031 219.726562 127.886719 212.117188 C 123.347656 207.785156 119.484375 202.796875 118.679688 200 C 133.871094 193.109375 139.050781 159.597656 128.9375 152.558594 C 142.753906 154.035156 159.144531 122.308594 138.785156 113.0625 C 146.351562 97.957031 197.453125 95.984375 209.71875 111.539062 C 205.355469 117.261719 204.359375 145.839844 239.203125 146.164062 C 238.121094 156.214844 244.28125 161.015625 250.734375 161.542969 C 245.9375 191.585938 250.957031 220.210938 233.746094 239.847656 C 241.589844 248.761719 259.429688 247.148438 260.992188 233.335938 C 278.128906 239.175781 285.417969 225.695312 285.359375 221.804688 C 273.375 220.414062 278.554688 210.007812 277.660156 208.972656 C 286.75 208.808594 298.574219 198.039062 300.753906 192.316406 C 302.832031 186.828125 298.71875 177.023438 300.753906 169.226562 C 302.289062 163.3125 306.929688 157.269531 307.179688 153.246094 " fill-opacity="1" fill-rule="evenodd"/><g clip-path="url(#id1)"><path fill="#59c7b6" d="M 884.015625 359.570312 C 883.621094 707.769531 600.984375 989.765625 252.785156 989.375 C -95.417969 988.929688 -377.367188 706.339844 -376.972656 358.1875 C -376.578125 9.941406 -93.9375 -272.007812 254.210938 -271.617188 C 602.414062 -271.222656 884.363281 11.367188 884.015625 359.570312 " fill-opacity="1" fill-rule="nonzero"/><path fill="#fbd9c9" d="M 254.261719 526.355469 C 192.6875 526.355469 177.8125 464.980469 177.8125 464.980469 C 177.8125 464.980469 249.335938 492.808594 330.757812 464.980469 C 330.757812 464.980469 315.882812 526.355469 254.261719 526.355469 Z M 510.597656 369.863281 C 519.957031 334.152344 591.28125 25.210938 253.03125 23.535156 L 253.03125 23.484375 C 252.535156 23.484375 252.144531 23.535156 251.648438 23.535156 C 251.207031 23.535156 250.765625 23.484375 250.320312 23.484375 L 250.320312 23.535156 C -108.667969 25.308594 -0.992188 373.261719 -0.992188 373.261719 C 27.972656 460.203125 94.714844 545.5625 163.28125 590.386719 C 194.363281 610.730469 225.839844 622.75 254.261719 622.75 C 282.730469 622.75 314.207031 610.730469 345.335938 590.386719 C 413.855469 545.5625 480.5 460.203125 509.464844 373.261719 L 509.660156 373.261719 C 509.660156 373.261719 509.90625 372.375 510.351562 370.800781 C 510.449219 370.503906 510.546875 370.207031 510.644531 369.914062 C 510.644531 369.863281 510.644531 369.863281 510.597656 369.863281 " fill-opacity="1" fill-rule="evenodd"/><path fill="#82431c" d="M 656.988281 244.207031 C 658.367188 222.140625 639.503906 217.015625 635.367188 194.457031 C 628.566406 157.808594 641.425781 121.703125 613.742188 103.824219 C 621.574219 92.9375 633.886719 81.214844 632.066406 60.675781 C 629.453125 44.566406 606.894531 43.089844 605.121094 26.144531 C 607.289062 -11.242188 572.957031 9.742188 569.902344 -5.871094 C 560.101562 -110.003906 438.1875 -121.578125 406.613281 -103.351562 C 398.042969 -148.027344 298.59375 -188.027344 284.210938 -186.546875 C 280.269531 -173.839844 276.179688 -163.347656 271.894531 -154.679688 C 258.941406 -173.148438 237.5625 -185.21875 213.277344 -185.21875 C 182.835938 -185.21875 156.878906 -166.15625 146.484375 -139.359375 C 123.828125 -145.171875 98.65625 -147.636719 70.582031 -138.472656 C 70.582031 -138.472656 4.722656 -118.917969 42.996094 -55.71875 C -40.644531 -79.757812 -4.144531 41.265625 -89.703125 8.855469 C -105.023438 21.664062 -111.425781 48.753906 -102.65625 73.628906 C -141.421875 86.632812 -137.335938 142.492188 -154.425781 177.167969 C -158.367188 198.347656 -134.085938 204.160156 -137.1875 211.699219 C -193.339844 245.390625 -163.492188 334.988281 -102.65625 323.90625 C -145.660156 358.878906 -108.324219 428.480469 -68.128906 418.875 C -85.171875 492.414062 14.523438 520.6875 39.746094 500.886719 C 35.3125 512.21875 34.621094 527.339844 35.460938 543.988281 C 47.230469 553.839844 80.777344 538.175781 101.761719 538.816406 C 97.328125 502.070312 80.234375 467.984375 53.488281 442.371094 C 38.21875 427.789062 25.214844 410.992188 22.503906 401.585938 C 73.632812 378.382812 91.070312 265.585938 57.035156 241.890625 C 103.535156 246.867188 158.703125 140.078125 90.183594 108.945312 C 115.652344 58.113281 287.65625 51.464844 328.933594 103.824219 C 314.257812 123.082031 310.90625 219.285156 428.1875 220.367188 C 424.542969 254.207031 445.28125 270.363281 467.003906 272.136719 C 450.847656 373.261719 467.742188 469.609375 409.816406 535.710938 C 436.21875 565.710938 496.261719 560.292969 501.53125 513.792969 C 559.214844 533.445312 583.742188 488.082031 583.546875 474.976562 C 543.203125 470.300781 560.640625 435.277344 557.636719 431.78125 C 588.226562 431.238281 628.027344 394.984375 635.367188 375.726562 C 642.359375 357.253906 628.519531 324.25 635.367188 297.996094 C 640.539062 278.097656 656.152344 257.753906 656.988281 244.207031 " fill-opacity="1" fill-rule="evenodd"/></g><g clip-path="url(#id2)"><path fill="#59c7b6" d="M 854.226562 383.980469 C 853.832031 732.183594 571.191406 1014.179688 222.992188 1013.785156 C -125.207031 1013.34375 -407.15625 730.753906 -406.765625 382.601562 C -406.371094 34.351562 -123.730469 -247.597656 224.417969 -247.203125 C 572.621094 -246.808594 854.570312 35.78125 854.226562 383.980469 " fill-opacity="1" fill-rule="nonzero"/><path fill="#fbd9c9" d="M 224.46875 550.765625 C 162.898438 550.765625 148.023438 489.390625 148.023438 489.390625 C 148.023438 489.390625 219.542969 517.222656 300.964844 489.390625 C 300.964844 489.390625 286.089844 550.765625 224.46875 550.765625 Z M 480.804688 394.277344 C 490.164062 358.5625 561.488281 49.621094 223.238281 47.949219 L 223.238281 47.898438 C 222.746094 47.898438 222.351562 47.949219 221.859375 47.949219 C 221.414062 47.949219 220.972656 47.898438 220.527344 47.898438 L 220.527344 47.949219 C -138.460938 49.71875 -30.78125 397.675781 -30.78125 397.675781 C -1.820312 484.613281 64.925781 569.976562 133.492188 614.800781 C 164.570312 635.144531 196.046875 647.164062 224.46875 647.164062 C 252.941406 647.164062 284.414062 635.144531 315.546875 614.800781 C 384.0625 569.976562 450.707031 484.613281 479.671875 397.675781 L 479.867188 397.675781 C 479.867188 397.675781 480.113281 396.789062 480.558594 395.210938 C 480.65625 394.917969 480.753906 394.621094 480.855469 394.324219 C 480.855469 394.277344 480.855469 394.277344 480.804688 394.277344 " fill-opacity="1" fill-rule="evenodd"/><path fill="#82431c" d="M 627.199219 268.621094 C 628.578125 246.554688 609.710938 241.429688 605.574219 218.871094 C 598.777344 182.222656 611.632812 146.117188 583.949219 128.238281 C 591.78125 117.351562 604.097656 105.628906 602.273438 85.085938 C 599.664062 68.980469 577.101562 67.503906 575.328125 50.558594 C 577.496094 13.171875 543.164062 34.15625 540.109375 18.539062 C 530.308594 -85.589844 408.394531 -97.164062 376.820312 -78.941406 C 368.25 -123.617188 268.800781 -163.613281 254.417969 -162.136719 C 250.476562 -149.425781 246.390625 -138.933594 242.101562 -130.265625 C 229.148438 -148.738281 207.769531 -160.804688 183.488281 -160.804688 C 153.046875 -160.804688 127.085938 -141.742188 116.695312 -114.945312 C 94.035156 -120.757812 68.863281 -123.222656 40.789062 -114.058594 C 40.789062 -114.058594 -25.070312 -94.503906 13.203125 -31.308594 C -70.433594 -55.34375 -33.933594 65.679688 -119.496094 33.269531 C -134.8125 46.074219 -141.21875 73.167969 -132.449219 98.042969 C -171.214844 111.046875 -167.128906 166.902344 -184.21875 201.582031 C -188.160156 222.761719 -163.875 228.574219 -166.980469 236.109375 C -223.132812 269.800781 -193.28125 359.402344 -132.449219 348.320312 C -175.453125 383.292969 -138.113281 452.890625 -97.921875 443.289062 C -114.964844 516.828125 -15.265625 545.101562 9.953125 525.300781 C 5.519531 536.628906 4.832031 551.75 5.667969 568.402344 C 17.441406 578.253906 50.984375 562.589844 71.96875 563.230469 C 67.535156 526.484375 50.441406 492.398438 23.695312 466.78125 C 8.425781 452.203125 -4.578125 435.40625 -7.285156 425.996094 C 43.84375 402.796875 61.28125 290 27.242188 266.304688 C 73.742188 271.28125 128.910156 164.492188 60.394531 133.359375 C 85.859375 82.527344 257.867188 75.875 299.144531 128.238281 C 284.464844 147.496094 281.113281 243.695312 398.398438 244.78125 C 394.75 278.621094 415.488281 294.777344 437.210938 296.550781 C 421.054688 397.675781 437.949219 494.023438 380.023438 560.125 C 406.425781 590.125 466.46875 584.703125 471.742188 538.207031 C 529.421875 557.859375 553.953125 512.492188 553.753906 499.390625 C 513.414062 494.710938 530.851562 459.691406 527.84375 456.191406 C 558.433594 455.652344 598.234375 419.398438 605.574219 400.136719 C 612.566406 381.667969 598.726562 348.664062 605.574219 322.410156 C 610.746094 302.507812 626.359375 282.167969 627.199219 268.621094 " fill-opacity="1" fill-rule="evenodd"/></g><g clip-path="url(#id3)"><path fill="#59c7b6" d="M 837.5 359.570312 C 837.105469 707.769531 554.464844 989.765625 206.265625 989.375 C -141.933594 988.929688 -423.882812 706.339844 -423.488281 358.1875 C -423.09375 9.941406 -140.457031 -272.007812 207.695312 -271.617188 C 555.894531 -271.222656 837.84375 11.367188 837.5 359.570312 " fill-opacity="1" fill-rule="nonzero"/><path fill="#fbd9c9" d="M 207.742188 526.355469 C 146.171875 526.355469 131.296875 464.980469 131.296875 464.980469 C 131.296875 464.980469 202.816406 492.808594 284.242188 464.980469 C 284.242188 464.980469 269.363281 526.355469 207.742188 526.355469 Z M 464.078125 369.863281 C 473.4375 334.152344 544.761719 25.210938 206.511719 23.535156 L 206.511719 23.484375 C 206.019531 23.484375 205.625 23.535156 205.132812 23.535156 C 204.691406 23.535156 204.246094 23.484375 203.804688 23.484375 L 203.804688 23.535156 C -155.183594 25.308594 -47.507812 373.261719 -47.507812 373.261719 C -18.542969 460.203125 48.199219 545.5625 116.765625 590.386719 C 147.847656 610.730469 179.320312 622.75 207.742188 622.75 C 236.214844 622.75 267.691406 610.730469 298.820312 590.386719 C 367.335938 545.5625 433.984375 460.203125 462.945312 373.261719 L 463.144531 373.261719 C 463.144531 373.261719 463.390625 372.375 463.832031 370.800781 C 463.929688 370.503906 464.03125 370.207031 464.128906 369.914062 C 464.128906 369.863281 464.128906 369.863281 464.078125 369.863281 " fill-opacity="1" fill-rule="evenodd"/><path fill="#82431c" d="M 610.472656 244.207031 C 611.851562 222.140625 592.984375 217.015625 588.847656 194.457031 C 582.050781 157.808594 594.90625 121.703125 567.222656 103.824219 C 575.054688 92.9375 587.371094 81.214844 585.546875 60.675781 C 582.9375 44.566406 560.378906 43.089844 558.605469 26.144531 C 560.769531 -11.242188 526.4375 9.742188 523.386719 -5.871094 C 513.582031 -110.003906 391.671875 -121.578125 360.097656 -103.351562 C 351.527344 -148.027344 252.074219 -188.027344 237.691406 -186.546875 C 233.75 -173.839844 229.664062 -163.347656 225.378906 -154.679688 C 212.421875 -173.148438 191.046875 -185.21875 166.761719 -185.21875 C 136.320312 -185.21875 110.363281 -166.15625 99.96875 -139.359375 C 77.308594 -145.171875 52.140625 -147.636719 24.0625 -138.472656 C 24.0625 -138.472656 -41.792969 -118.917969 -3.519531 -55.71875 C -87.160156 -79.757812 -50.660156 41.265625 -136.222656 8.855469 C -151.539062 21.664062 -157.941406 48.753906 -149.175781 73.628906 C -187.941406 86.632812 -183.851562 142.492188 -200.945312 177.167969 C -204.886719 198.347656 -180.601562 204.160156 -183.703125 211.699219 C -239.859375 245.390625 -210.007812 334.988281 -149.175781 323.90625 C -192.175781 358.878906 -154.839844 428.480469 -114.644531 418.875 C -131.6875 492.414062 -31.992188 520.6875 -6.773438 500.886719 C -11.207031 512.21875 -11.894531 527.339844 -11.058594 543.988281 C 0.714844 553.839844 34.257812 538.175781 55.242188 538.816406 C 50.808594 502.070312 33.71875 467.984375 6.96875 442.371094 C -8.300781 427.789062 -21.304688 410.992188 -24.011719 401.585938 C 27.117188 378.382812 44.554688 265.585938 10.515625 241.890625 C 57.015625 246.867188 112.183594 140.078125 43.667969 108.945312 C 69.132812 58.113281 241.140625 51.464844 282.417969 103.824219 C 267.738281 123.082031 264.390625 219.285156 381.671875 220.367188 C 378.027344 254.207031 398.761719 270.363281 420.484375 272.136719 C 404.328125 373.261719 421.226562 469.609375 363.296875 535.710938 C 389.699219 565.710938 449.746094 560.292969 455.015625 513.792969 C 512.695312 533.445312 537.226562 488.082031 537.027344 474.976562 C 496.6875 470.300781 514.125 435.277344 511.121094 431.78125 C 541.707031 431.238281 581.507812 394.984375 588.847656 375.726562 C 595.84375 357.253906 582 324.25 588.847656 297.996094 C 594.019531 278.097656 609.632812 257.753906 610.472656 244.207031 " fill-opacity="1" fill-rule="evenodd"/></g></svg>