<svg xmlns="http://www.w3.org/2000/svg" xmlns:xlink="http://www.w3.org/1999/xlink" width="500" zoomAndPan="magnify" viewBox="0 0 375 374.999991" height="500" preserveAspectRatio="xMidYMid meet" version="1.0"><defs><clipPath id="id1"><path d="M 0 0 L 374 0 L 374 372.75 L 0 372.75 Z M 0 0 " clip-rule="nonzero"/></clipPath><clipPath id="id2"><path d="M 163 56 L 375 56 L 375 372.75 L 163 372.75 Z M 163 56 " clip-rule="nonzero"/></clipPath><clipPath id="id3"><path d="M 52 200 L 321 200 L 321 372.75 L 52 372.75 Z M 52 200 " clip-rule="nonzero"/></clipPath><clipPath id="id4"><path d="M 52 255 L 321 255 L 321 372.75 L 52 372.75 Z M 52 255 " clip-rule="nonzero"/></clipPath></defs><rect x="-37.5" width="450" fill="#ffffff" y="-37.499999" height="449.999989" fill-opacity="1"/><rect x="-37.5" width="450" fill="#ffffff" y="-37.499999" height="449.999989" fill-opacity="1"/><rect x="-37.5" width="450" fill="#ffffff" y="-37.499999" height="449.999989" fill-opacity="1"/><g clip-path="url(#id1)"><path fill="#aad8f4" d="M 373.507812 186.449219 C 373.507812 232.769531 356.578125 275.171875 328.59375 307.769531 C 326.066406 310.722656 323.433594 313.585938 320.714844 316.378906 C 313.785156 323.507812 306.269531 330.097656 298.273438 336.03125 C 267.222656 359.160156 228.726562 372.835938 187.03125 372.835938 C 186.460938 372.835938 185.90625 372.835938 185.335938 372.824219 C 159.3125 372.605469 134.578125 367.035156 112.136719 357.1875 C 99.152344 351.503906 86.960938 344.386719 75.730469 336.03125 C 67.605469 329.964844 59.988281 323.273438 52.953125 315.996094 C 50.367188 313.339844 47.867188 310.589844 45.453125 307.785156 C 17.472656 275.1875 0.527344 232.78125 0.527344 186.449219 C 0.527344 83.507812 84.035156 0.0585938 187.03125 0.0585938 C 257.703125 0.0585938 319.195312 39.363281 350.832031 97.300781 C 361.328125 116.515625 368.519531 137.777344 371.695312 160.335938 C 372.894531 168.871094 373.507812 177.59375 373.507812 186.449219 Z M 373.507812 186.449219 " fill-opacity="1" fill-rule="nonzero"/></g><g clip-path="url(#id2)"><path fill="#5ec1ed" d="M 374.324219 186.449219 C 374.324219 232.769531 357.394531 275.171875 329.414062 307.769531 C 326.882812 310.722656 324.253906 313.585938 321.535156 316.378906 C 314.605469 323.507812 307.089844 330.097656 299.09375 336.03125 C 268.039062 359.160156 229.546875 372.835938 187.851562 372.835938 C 187.28125 372.835938 186.726562 372.835938 186.15625 372.824219 L 163.582031 332.742188 L 231.914062 56.300781 L 372.511719 160.335938 C 373.710938 168.871094 374.324219 177.59375 374.324219 186.449219 Z M 374.324219 186.449219 " fill-opacity="1" fill-rule="nonzero"/></g><path fill="#092838" d="M 100.382812 107.207031 C 102.910156 100.707031 106.507812 94.582031 110.9375 89.234375 C 120.324219 77.882812 145.570312 54.792969 161.871094 58.140625 C 184.867188 62.875 204.3125 101.289062 209.34375 121.847656 C 214.648438 143.546875 214.269531 166.195312 213.84375 188.539062 C 213.085938 228.894531 212.265625 269.765625 201.492188 308.675781 C 199.296875 316.582031 196.578125 324.632812 191.140625 330.785156 C 182.953125 340.046875 170.117188 343.46875 157.9375 345.585938 C 131.960938 350.085938 103.128906 343.773438 78.757812 333.882812 C 70.382812 330.476562 61.976562 326.09375 56.652344 318.773438 C 50.5 310.269531 49.898438 297.425781 55.074219 288.277344 C 61.667969 276.617188 71.859375 278.226562 82.324219 271.535156 C 88.964844 267.296875 93.566406 257.609375 88.40625 251.675781 C 85.746094 248.621094 81.476562 247.6875 77.824219 245.949219 C 65.074219 239.839844 60.804688 220.992188 69.679688 209.988281 C 79.722656 197.539062 101.199219 196.398438 107.28125 181.597656 C 112.542969 168.8125 102.574219 155.382812 98.464844 142.160156 C 94.914062 130.734375 96.039062 118.398438 100.382812 107.207031 Z M 100.382812 107.207031 " fill-opacity="1" fill-rule="nonzero"/><g clip-path="url(#id3)"><path fill="#eec191" d="M 272.792969 268.449219 L 227.953125 253.851562 C 219.679688 251.164062 214.078125 243.449219 214.078125 234.753906 L 214.078125 200.375 L 159.765625 200.375 L 159.765625 235.179688 C 159.765625 243.945312 154.078125 251.691406 145.71875 254.335938 L 100.804688 268.507812 C 77.546875 275.59375 59.929688 293.683594 52.941406 316.011719 C 59.972656 323.289062 67.589844 329.980469 75.71875 336.042969 C 86.945312 344.402344 99.136719 351.519531 112.121094 357.203125 C 135.042969 367.269531 160.367188 372.851562 187.015625 372.851562 C 228.714844 372.851562 267.207031 359.175781 298.257812 336.042969 C 306.257812 330.113281 313.769531 323.523438 320.699219 316.390625 C 313.828125 293.859375 296.167969 275.609375 272.792969 268.449219 Z M 272.792969 268.449219 " fill-opacity="1" fill-rule="nonzero"/></g><g clip-path="url(#id4)"><path fill="#ed6e4a" d="M 272.792969 268.449219 L 237.617188 256.996094 C 210.015625 277.261719 168.699219 275.769531 140.46875 255.984375 L 100.820312 268.492188 C 77.558594 275.582031 59.941406 293.671875 52.953125 315.996094 C 59.988281 323.273438 67.605469 329.964844 75.730469 336.03125 C 86.960938 344.386719 99.152344 351.503906 112.136719 357.1875 C 135.058594 367.257812 160.378906 372.835938 187.03125 372.835938 C 228.726562 372.835938 267.222656 359.160156 298.273438 336.03125 C 306.269531 330.097656 313.785156 323.507812 320.714844 316.378906 C 313.828125 293.859375 296.167969 275.609375 272.792969 268.449219 Z M 272.792969 268.449219 " fill-opacity="1" fill-rule="nonzero"/></g><path fill="#fbcb98" d="M 245.511719 123.382812 C 245.363281 81.8125 219.910156 51.960938 186.988281 51.960938 C 186.972656 51.960938 186.945312 51.960938 186.929688 51.960938 C 186.914062 51.960938 186.886719 51.960938 186.871094 51.960938 C 153.960938 51.960938 128.496094 81.8125 128.347656 123.382812 C 128.277344 142.335938 128.800781 147.054688 130.730469 160.804688 C 136.726562 203.558594 176.242188 223.3125 186.871094 223.3125 C 199.898438 223.3125 236.828125 203.558594 242.820312 160.804688 C 244.75 147.054688 245.585938 142.335938 245.511719 123.382812 Z M 245.511719 123.382812 " fill-opacity="1" fill-rule="nonzero"/><path fill="#fbcb98" d="M 128.347656 129.710938 C 126.609375 127.824219 123.949219 126.90625 122.457031 129.519531 C 120.292969 133.261719 120.527344 138.273438 120.835938 142.40625 C 121.082031 145.753906 121.507812 149.113281 122.382812 152.359375 C 123.144531 155.179688 124.183594 159.035156 126.683594 160.789062 C 127.253906 161.183594 128.042969 161.578125 128.757812 161.738281 C 129.152344 161.828125 131.550781 161.871094 130.746094 160.820312 " fill-opacity="1" fill-rule="nonzero"/><path fill="#fbcb98" d="M 245.203125 129.710938 C 246.945312 127.824219 249.605469 126.90625 251.097656 129.519531 C 253.257812 133.261719 253.027344 138.273438 252.71875 142.40625 C 252.46875 145.753906 252.046875 149.113281 251.167969 152.359375 C 250.410156 155.179688 249.371094 159.035156 246.871094 160.789062 C 246.300781 161.183594 245.511719 161.578125 244.792969 161.738281 C 244.398438 161.828125 242.003906 161.871094 242.804688 160.820312 " fill-opacity="1" fill-rule="nonzero"/><path fill="#092838" d="M 220.363281 150.152344 C 219.429688 158.246094 212.761719 166.605469 217.296875 173.253906 C 220.027344 177.257812 225.703125 178.222656 228.800781 181.949219 C 233.347656 187.425781 230.21875 195.828125 225.773438 201.382812 C 221.328125 206.933594 215.453125 212.046875 214.355469 219.078125 C 212.484375 231.085938 225.074219 239.871094 230.480469 250.753906 C 236.855469 263.570312 231.710938 280.898438 219.386719 288.175781 C 231.839844 289.273438 244.003906 280.605469 248.683594 269.019531 C 253.363281 257.433594 251.183594 243.769531 244.664062 233.105469 C 242.660156 229.832031 240.234375 226.703125 239.195312 223.007812 C 237.121094 215.613281 241.242188 206.070312 245.46875 200.050781 C 250.453125 192.980469 259.164062 187.355469 255.320312 177.34375 C 254.019531 173.96875 251.828125 170.828125 251.535156 167.21875 C 251.167969 162.617188 253.933594 158.4375 256.433594 154.550781 C 261.183594 147.171875 265.480469 139.121094 266.066406 130.367188 C 266.679688 121.324219 263.289062 112.554688 259.957031 104.125 C 247.953125 73.761719 231.679688 45.035156 196.023438 41.335938 C 163.554688 37.976562 148.378906 69.640625 157.339844 97.796875 C 161.15625 109.765625 170.132812 120.226562 181.84375 124.800781 C 189.414062 127.765625 197.761719 128.25 205.394531 131.054688 C 213.027344 133.859375 220.410156 140.1875 220.4375 148.3125 C 220.46875 148.925781 220.4375 149.539062 220.363281 150.152344 Z M 220.363281 150.152344 " fill-opacity="1" fill-rule="nonzero"/><path fill="#092838" d="M 154.605469 112.277344 C 160.832031 104.285156 167.078125 96.160156 171.167969 86.898438 C 173.128906 82.441406 174.589844 77.632812 174.238281 72.78125 C 173.890625 67.929688 171.476562 63.019531 167.222656 60.667969 C 163.273438 58.476562 158.320312 58.753906 154.078125 60.347656 C 149.855469 61.941406 146.183594 64.714844 142.589844 67.464844 C 134.824219 73.367188 126.769531 79.636719 122.707031 88.503906 C 118.113281 98.527344 119.007812 116.601562 127.894531 124.523438 C 138.785156 134.226562 147.910156 120.871094 154.605469 112.277344 Z M 154.605469 112.277344 " fill-opacity="1" fill-rule="nonzero"/></svg>