<svg xmlns="http://www.w3.org/2000/svg" xmlns:xlink="http://www.w3.org/1999/xlink" width="500" zoomAndPan="magnify" viewBox="0 0 375 374.999991" height="500" preserveAspectRatio="xMidYMid meet" version="1.0"><defs><clipPath id="id1"><path d="M 0 0 L 374 0 L 374 372.75 L 0 372.75 Z M 0 0 " clip-rule="nonzero"/></clipPath><clipPath id="id2"><path d="M 163 62 L 375 62 L 375 372.75 L 163 372.75 Z M 163 62 " clip-rule="nonzero"/></clipPath><clipPath id="id3"><path d="M 52 200 L 321 200 L 321 372.75 L 52 372.75 Z M 52 200 " clip-rule="nonzero"/></clipPath><clipPath id="id4"><path d="M 52 231 L 321 231 L 321 372.75 L 52 372.75 Z M 52 231 " clip-rule="nonzero"/></clipPath><clipPath id="id5"><path d="M 182 235 L 194 235 L 194 372.75 L 182 372.75 Z M 182 235 " clip-rule="nonzero"/></clipPath></defs><rect x="-37.5" width="450" fill="#ffffff" y="-37.499999" height="449.999989" fill-opacity="1"/><rect x="-37.5" width="450" fill="#ffffff" y="-37.499999" height="449.999989" fill-opacity="1"/><rect x="-37.5" width="450" fill="#ffffff" y="-37.499999" height="449.999989" fill-opacity="1"/><g clip-path="url(#id1)"><path fill="#aad8f4" d="M 373.507812 186.449219 C 373.507812 232.769531 356.578125 275.171875 328.59375 307.769531 C 326.066406 310.722656 323.433594 313.585938 320.714844 316.378906 C 313.785156 323.507812 306.269531 330.097656 298.273438 336.03125 C 267.222656 359.160156 228.726562 372.835938 187.03125 372.835938 C 186.460938 372.835938 185.90625 372.835938 185.335938 372.824219 C 159.3125 372.605469 134.578125 367.035156 112.136719 357.1875 C 99.152344 351.503906 86.960938 344.386719 75.730469 336.03125 C 67.605469 329.964844 59.988281 323.273438 52.953125 315.996094 C 50.367188 313.339844 47.867188 310.589844 45.453125 307.785156 C 17.472656 275.1875 0.527344 232.78125 0.527344 186.449219 C 0.527344 83.507812 84.035156 0.0585938 187.03125 0.0585938 C 257.703125 0.0585938 319.195312 39.363281 350.832031 97.300781 C 361.328125 116.515625 368.519531 137.777344 371.695312 160.335938 C 372.894531 168.871094 373.507812 177.59375 373.507812 186.449219 Z M 373.507812 186.449219 " fill-opacity="1" fill-rule="nonzero"/></g><g clip-path="url(#id2)"><path fill="#5ec1ed" d="M 374.324219 186.449219 C 374.324219 232.769531 357.394531 275.171875 329.414062 307.769531 C 326.882812 310.722656 324.253906 313.585938 321.535156 316.378906 C 314.605469 323.507812 307.089844 330.097656 299.09375 336.03125 C 268.039062 359.160156 229.546875 372.835938 187.851562 372.835938 C 187.28125 372.835938 186.726562 372.835938 186.15625 372.824219 L 163.582031 332.742188 L 243.480469 62.21875 L 372.511719 160.335938 C 373.710938 168.871094 374.324219 177.59375 374.324219 186.449219 Z M 374.324219 186.449219 " fill-opacity="1" fill-rule="nonzero"/></g><path fill="#092838" d="M 271.050781 134.75 C 270.832031 117.539062 267.484375 99.535156 259.851562 84.019531 C 244.222656 52.253906 202.25 36.574219 168.65625 41.777344 C 150.921875 44.523438 133.859375 55.570312 121.183594 67.871094 C 105.265625 83.332031 98.964844 113.5625 98.699219 134.75 C 98.4375 155.425781 104.183594 184.125 83.964844 196.96875 C 81.492188 198.546875 80.484375 201.6875 81.800781 204.304688 C 89.3125 219.195312 105.382812 228.792969 121.449219 234.316406 C 133.917969 238.597656 147.046875 241.125 160.25 241.375 C 170.996094 241.578125 181.5625 242.910156 184.839844 231.234375 C 184.839844 231.21875 184.855469 231.191406 184.855469 231.175781 C 184.855469 231.191406 184.867188 231.21875 184.867188 231.234375 C 188.15625 242.910156 198.726562 241.578125 209.457031 241.375 C 222.660156 241.125 235.789062 238.597656 248.257812 234.316406 C 264.328125 228.792969 280.394531 219.195312 287.910156 204.304688 C 289.222656 201.6875 288.214844 198.546875 285.746094 196.96875 C 265.570312 184.125 271.300781 155.425781 271.050781 134.75 Z M 271.050781 134.75 " fill-opacity="1" fill-rule="nonzero"/><g clip-path="url(#id3)"><path fill="#dd915c" d="M 272.792969 268.449219 L 227.953125 253.851562 C 219.679688 251.164062 214.078125 243.449219 214.078125 234.753906 L 214.078125 200.375 L 159.765625 200.375 L 159.765625 235.179688 C 159.765625 243.945312 154.078125 251.691406 145.71875 254.335938 L 100.804688 268.507812 C 77.546875 275.59375 59.929688 293.683594 52.941406 316.011719 C 59.972656 323.289062 67.589844 329.980469 75.71875 336.042969 C 86.945312 344.402344 99.136719 351.519531 112.121094 357.203125 C 135.042969 367.269531 160.367188 372.851562 187.015625 372.851562 C 228.714844 372.851562 267.207031 359.175781 298.257812 336.042969 C 306.257812 330.113281 313.769531 323.523438 320.699219 316.390625 C 313.828125 293.859375 296.167969 275.609375 272.792969 268.449219 Z M 272.792969 268.449219 " fill-opacity="1" fill-rule="nonzero"/></g><g clip-path="url(#id4)"><path fill="#ffdd3c" d="M 272.792969 268.449219 L 227.953125 253.851562 C 219.679688 251.164062 214.078125 243.449219 214.078125 234.753906 L 214.078125 233.558594 C 207.980469 235.105469 201.609375 235.75 195.613281 235.996094 C 183.875 236.480469 171.242188 235.457031 159.765625 231.980469 L 159.765625 235.179688 C 159.765625 243.945312 154.078125 251.691406 145.714844 254.335938 L 100.804688 268.507812 C 77.546875 275.59375 59.929688 293.683594 52.941406 316.011719 C 59.972656 323.289062 67.589844 329.980469 75.71875 336.042969 C 86.945312 344.402344 99.136719 351.519531 112.121094 357.203125 C 135.042969 367.269531 160.367188 372.851562 187.015625 372.851562 C 228.714844 372.851562 267.207031 359.175781 298.257812 336.042969 C 306.257812 330.113281 313.769531 323.523438 320.699219 316.390625 C 313.828125 293.859375 296.167969 275.609375 272.792969 268.449219 Z M 272.792969 268.449219 " fill-opacity="1" fill-rule="nonzero"/></g><g clip-path="url(#id5)"><path fill="#fcc33d" d="M 182.675781 235.835938 L 182.675781 372.765625 C 184.121094 372.808594 185.570312 372.835938 187.03125 372.835938 C 189.3125 372.835938 191.59375 372.777344 193.859375 372.691406 L 193.859375 236.039062 C 190.175781 236.144531 186.433594 236.070312 182.675781 235.835938 Z M 182.675781 235.835938 " fill-opacity="1" fill-rule="nonzero"/></g><path fill="#f5a065" d="M 245.511719 123.382812 C 245.363281 81.8125 219.910156 51.960938 186.988281 51.960938 C 186.972656 51.960938 186.945312 51.960938 186.929688 51.960938 C 186.914062 51.960938 186.886719 51.960938 186.871094 51.960938 C 153.960938 51.960938 128.496094 81.8125 128.347656 123.382812 C 128.277344 142.335938 128.800781 147.054688 130.730469 160.804688 C 136.726562 203.558594 176.242188 223.3125 186.871094 223.3125 C 199.898438 223.3125 236.828125 203.558594 242.820312 160.804688 C 244.75 147.054688 245.585938 142.335938 245.511719 123.382812 Z M 245.511719 123.382812 " fill-opacity="1" fill-rule="nonzero"/><path fill="#f5a065" d="M 128.347656 129.710938 C 126.609375 127.824219 123.949219 126.90625 122.457031 129.519531 C 120.292969 133.261719 120.527344 138.273438 120.835938 142.40625 C 121.082031 145.753906 121.507812 149.113281 122.382812 152.359375 C 123.144531 155.179688 124.183594 159.035156 126.683594 160.789062 C 127.253906 161.183594 128.042969 161.578125 128.757812 161.738281 C 129.152344 161.828125 131.550781 161.871094 130.746094 160.820312 " fill-opacity="1" fill-rule="nonzero"/><path fill="#f5a065" d="M 245.203125 129.710938 C 246.945312 127.824219 249.605469 126.90625 251.097656 129.519531 C 253.257812 133.261719 253.027344 138.273438 252.71875 142.40625 C 252.46875 145.753906 252.046875 149.113281 251.167969 152.359375 C 250.410156 155.179688 249.371094 159.035156 246.871094 160.789062 C 246.300781 161.183594 245.511719 161.578125 244.792969 161.738281 C 244.398438 161.828125 242.003906 161.871094 242.804688 160.820312 " fill-opacity="1" fill-rule="nonzero"/><path fill="#092838" d="M 239.050781 150.402344 C 240.554688 151.832031 242.046875 153.277344 243.539062 154.726562 C 243.273438 154.476562 247.96875 143.429688 248.332031 142.203125 C 249.75 137.527344 250.585938 132.824219 251.445312 128.03125 C 253.15625 118.546875 251.621094 108.011719 250.351562 98.484375 C 248.464844 84.457031 243.902344 70.605469 232.46875 61.429688 C 219.589844 51.097656 202.46875 46.859375 186.199219 46.859375 C 153.289062 46.859375 125.90625 73.527344 125.761719 115.097656 C 125.71875 128.511719 128.554688 143.078125 129.371094 150.472656 C 135.890625 145.59375 142.003906 140.214844 147.601562 134.152344 C 152.296875 129.066406 163.480469 107.734375 165.6875 108.640625 C 166.039062 108.785156 166.300781 109.121094 166.433594 109.488281 C 168.582031 115.640625 171.226562 121.863281 175.542969 126.832031 C 180.320312 132.324219 186.359375 134.546875 193.203125 136.386719 C 191.753906 133.449219 189.855469 124.726562 189.957031 121.453125 C 197.414062 132.765625 211.519531 146.046875 224.898438 148.164062 C 223.65625 143.5625 221.445312 139.617188 221.898438 134.765625 C 227.734375 139.851562 233.449219 145.066406 239.050781 150.402344 Z M 239.050781 150.402344 " fill-opacity="1" fill-rule="nonzero"/></svg>