<svg xmlns="http://www.w3.org/2000/svg" xmlns:xlink="http://www.w3.org/1999/xlink" width="500" zoomAndPan="magnify" viewBox="0 0 375 374.999991" height="500" preserveAspectRatio="xMidYMid meet" version="1.0"><rect x="-37.5" width="450" fill="#ffffff" y="-37.499999" height="449.999989" fill-opacity="1"/><rect x="-37.5" width="450" fill="#ffffff" y="-37.499999" height="449.999989" fill-opacity="1"/><rect x="-37.5" width="450" fill="#ffffff" y="-37.499999" height="449.999989" fill-opacity="1"/><path fill="#c8c4e3" d="M 375.753906 187.574219 C 375.753906 234.171875 358.722656 276.832031 330.570312 309.628906 C 328.027344 312.597656 325.378906 315.480469 322.644531 318.285156 C 315.671875 325.460938 308.113281 332.089844 300.066406 338.058594 C 268.828125 361.328125 230.101562 375.089844 188.15625 375.089844 C 187.582031 375.089844 187.023438 375.089844 186.449219 375.074219 C 160.269531 374.851562 135.382812 369.253906 112.804688 359.34375 C 99.746094 353.625 87.480469 346.46875 76.183594 338.058594 C 68.003906 331.957031 60.34375 325.226562 53.269531 317.90625 C 50.664062 315.230469 48.148438 312.464844 45.722656 309.644531 C 17.574219 276.847656 0.527344 234.1875 0.527344 187.574219 C 0.527344 84.011719 84.539062 0.0585938 188.15625 0.0585938 C 259.253906 0.0585938 321.113281 39.601562 352.941406 97.886719 C 363.5 117.21875 370.738281 138.609375 373.929688 161.304688 C 375.136719 169.890625 375.753906 178.664062 375.753906 187.574219 Z M 375.753906 187.574219 " fill-opacity="1" fill-rule="nonzero"/><path fill="#9492c7" d="M 376.578125 187.574219 C 376.578125 234.171875 359.546875 276.832031 331.394531 309.628906 C 328.851562 312.597656 326.203125 315.480469 323.46875 318.285156 C 316.496094 325.460938 308.933594 332.089844 300.890625 338.058594 C 269.652344 361.328125 230.925781 375.089844 188.976562 375.089844 C 188.40625 375.089844 187.84375 375.089844 187.273438 375.074219 L 164.5625 334.75 L 224.613281 60.125 L 374.753906 161.304688 C 375.960938 169.890625 376.578125 178.664062 376.578125 187.574219 Z M 376.578125 187.574219 " fill-opacity="1" fill-rule="nonzero"/><path fill="#472312" d="M 191.832031 52.289062 C 173.578125 52.183594 153.648438 56.375 142.339844 71.207031 C 128.324219 89.597656 119.351562 110.5 119.027344 133.917969 C 118.984375 137.300781 119.058594 140.886719 117.867188 143.972656 C 117.570312 144.753906 117.203125 145.488281 116.71875 146.191406 C 114.878906 148.925781 111.820312 150.542969 108.894531 152.042969 C 104.171875 154.46875 99.273438 157.027344 96.097656 161.273438 C 89.847656 169.609375 91.949219 181.796875 86.699219 190.777344 C 79.476562 203.140625 61.019531 205.433594 54.195312 218.015625 C 50.710938 224.441406 51.238281 232.820312 55.503906 238.757812 C 58.535156 242.992188 63.402344 246.328125 64.226562 251.476562 C 65.121094 257.105469 60.769531 262.058594 56.855469 266.203125 C 51.972656 271.394531 47.195312 276.996094 45.003906 283.769531 C 42.8125 290.546875 43.8125 298.824219 49.148438 303.527344 C 53.078125 306.984375 58.902344 308.246094 61.828125 312.582031 C 63.886719 315.625 64.152344 319.726562 66.652344 322.417969 C 69.226562 325.195312 73.390625 325.667969 77.183594 325.945312 C 106.464844 328.179688 135.75 330.414062 165.019531 332.648438 C 172.902344 333.25 180.886719 333.839844 188.683594 332.429688 C 189.742188 332.238281 190.785156 332.003906 191.832031 331.753906 Z M 191.832031 52.289062 " fill-opacity="1" fill-rule="nonzero"/><path fill="#472312" d="M 188.140625 52.289062 C 206.390625 52.183594 226.320312 56.375 237.632812 71.207031 C 251.648438 89.597656 260.621094 110.5 260.945312 133.917969 C 260.988281 137.300781 260.914062 140.886719 262.105469 143.972656 C 262.398438 144.753906 262.765625 145.488281 263.253906 146.191406 C 265.089844 148.925781 268.152344 150.542969 271.078125 152.042969 C 275.796875 154.46875 280.695312 157.027344 283.875 161.273438 C 290.125 169.609375 288.019531 181.796875 293.273438 190.777344 C 300.492188 203.140625 318.953125 205.433594 325.777344 218.015625 C 329.261719 224.441406 328.730469 232.820312 324.46875 238.757812 C 321.4375 242.992188 316.570312 246.328125 315.746094 251.476562 C 314.847656 257.105469 319.203125 262.058594 323.113281 266.203125 C 327.996094 271.394531 332.777344 276.996094 334.96875 283.769531 C 337.160156 290.546875 336.160156 298.824219 330.820312 303.527344 C 326.894531 306.984375 321.070312 308.246094 318.144531 312.582031 C 316.082031 315.625 315.820312 319.726562 313.320312 322.417969 C 310.746094 325.195312 306.582031 325.667969 302.789062 325.945312 C 273.503906 328.179688 244.222656 330.414062 214.953125 332.648438 C 207.070312 333.25 199.082031 333.839844 191.289062 332.429688 C 190.226562 332.238281 189.183594 332.003906 188.140625 331.753906 Z M 188.140625 52.289062 " fill-opacity="1" fill-rule="nonzero"/><path fill="#b27d5a" d="M 274.429688 270.070312 L 229.320312 255.386719 C 220.996094 252.679688 215.363281 244.917969 215.363281 236.171875 L 215.363281 201.582031 L 160.722656 201.582031 L 160.722656 236.597656 C 160.722656 245.417969 155.003906 253.210938 146.589844 255.871094 L 101.40625 270.128906 C 78.007812 277.257812 60.285156 295.457031 53.253906 317.917969 C 60.328125 325.238281 67.992188 331.972656 76.167969 338.074219 C 87.464844 346.480469 99.730469 353.640625 112.792969 359.359375 C 135.851562 369.488281 161.328125 375.101562 188.140625 375.101562 C 230.085938 375.101562 268.8125 361.34375 300.050781 338.074219 C 308.097656 332.105469 315.65625 325.476562 322.628906 318.300781 C 315.714844 295.632812 297.949219 277.273438 274.429688 270.070312 Z M 274.429688 270.070312 " fill-opacity="1" fill-rule="nonzero"/><path fill="#ed6e4a" d="M 274.429688 270.070312 L 239.042969 258.546875 C 211.273438 278.933594 169.710938 277.433594 141.308594 257.53125 L 101.421875 270.113281 C 78.023438 277.246094 60.296875 295.441406 53.269531 317.90625 C 60.34375 325.226562 68.003906 331.957031 76.183594 338.058594 C 87.480469 346.46875 99.746094 353.625 112.804688 359.34375 C 135.867188 369.472656 161.34375 375.089844 188.15625 375.089844 C 230.101562 375.089844 268.828125 361.328125 300.066406 338.058594 C 308.113281 332.089844 315.671875 325.460938 322.644531 318.285156 C 315.714844 295.632812 297.949219 277.273438 274.429688 270.070312 Z M 274.429688 270.070312 " fill-opacity="1" fill-rule="nonzero"/><path fill="#c38863" d="M 246.984375 124.128906 C 246.839844 82.304688 221.230469 52.273438 188.109375 52.273438 C 188.09375 52.273438 188.066406 52.273438 188.050781 52.273438 C 188.035156 52.273438 188.007812 52.273438 187.992188 52.273438 C 154.886719 52.273438 129.265625 82.304688 129.117188 124.128906 C 129.042969 143.195312 129.574219 147.941406 131.515625 161.773438 C 137.542969 204.789062 177.300781 224.660156 187.992188 224.660156 C 201.097656 224.660156 238.25 204.789062 244.28125 161.773438 C 246.222656 147.941406 247.058594 143.195312 246.984375 124.128906 Z M 246.984375 124.128906 " fill-opacity="1" fill-rule="nonzero"/><path fill="#472312" d="M 187.964844 98.902344 C 200.332031 121.394531 223.128906 141.488281 245.5 153.042969 C 246.574219 144.839844 247.042969 138.609375 247 124.140625 C 246.851562 82.320312 221.246094 52.289062 188.125 52.289062 C 188.109375 52.289062 188.082031 52.289062 188.066406 52.289062 C 188.050781 52.289062 188.023438 52.289062 188.007812 52.289062 C 154.898438 52.289062 129.277344 82.320312 129.132812 124.140625 C 129.085938 135.183594 129.25 141.429688 129.765625 147.414062 C 150.414062 135.578125 185.757812 94.902344 187.964844 98.902344 Z M 187.964844 98.902344 " fill-opacity="1" fill-rule="nonzero"/><path fill="#ffffff" d="M 153.957031 139.152344 L 153.871094 139.152344 C 148.691406 139.152344 144.472656 143.386719 144.472656 148.542969 L 144.472656 148.707031 L 165.414062 169.640625 L 174.078125 169.640625 C 176.902344 169.640625 179.449219 168.359375 181.183594 166.375 C 172.109375 157.292969 163.035156 148.222656 153.957031 139.152344 Z M 153.957031 139.152344 " fill-opacity="0.4196" fill-rule="nonzero"/><path fill="#000000" d="M 174.0625 171.210938 L 153.871094 171.210938 C 147.8125 171.210938 142.882812 166.289062 142.882812 160.230469 L 142.882812 148.53125 C 142.882812 142.472656 147.8125 137.550781 153.871094 137.550781 L 174.0625 137.550781 C 180.125 137.550781 185.050781 142.472656 185.050781 148.53125 L 185.050781 160.230469 C 185.050781 166.289062 180.125 171.210938 174.0625 171.210938 Z M 153.871094 140.722656 C 149.5625 140.722656 146.046875 144.222656 146.046875 148.542969 L 146.046875 160.246094 C 146.046875 164.554688 149.5625 168.066406 153.871094 168.066406 L 174.0625 168.066406 C 178.375 168.066406 181.890625 164.566406 181.890625 160.246094 L 181.890625 148.542969 C 181.890625 144.238281 178.386719 140.722656 174.0625 140.722656 Z M 153.871094 140.722656 " fill-opacity="1" fill-rule="nonzero"/><path fill="#ffffff" d="M 203.699219 139.152344 L 203.613281 139.152344 C 198.433594 139.152344 194.214844 143.386719 194.214844 148.542969 L 194.214844 148.707031 L 215.15625 169.640625 L 223.820312 169.640625 C 226.644531 169.640625 229.1875 168.359375 230.925781 166.375 C 221.851562 157.292969 212.773438 148.222656 203.699219 139.152344 Z M 203.699219 139.152344 " fill-opacity="0.4196" fill-rule="nonzero"/><path fill="#000000" d="M 223.820312 171.210938 L 203.628906 171.210938 C 197.566406 171.210938 192.640625 166.289062 192.640625 160.230469 L 192.640625 148.53125 C 192.640625 142.472656 197.566406 137.550781 203.628906 137.550781 L 223.820312 137.550781 C 229.878906 137.550781 234.808594 142.472656 234.808594 148.53125 L 234.808594 160.230469 C 234.808594 166.289062 229.878906 171.210938 223.820312 171.210938 Z M 203.628906 140.722656 C 199.316406 140.722656 195.800781 144.222656 195.800781 148.542969 L 195.800781 160.246094 C 195.800781 164.554688 199.304688 168.066406 203.628906 168.066406 L 223.820312 168.066406 C 228.128906 168.066406 231.644531 164.566406 231.644531 160.246094 L 231.644531 148.542969 C 231.644531 144.238281 228.128906 140.722656 223.820312 140.722656 Z M 203.628906 140.722656 " fill-opacity="1" fill-rule="nonzero"/><path fill="#000000" d="M 194.214844 152.5 L 183.460938 152.5 C 182.59375 152.5 181.875 151.792969 181.875 150.910156 C 181.875 150.03125 182.578125 149.324219 183.460938 149.324219 L 194.214844 149.324219 C 195.082031 149.324219 195.800781 150.03125 195.800781 150.910156 C 195.800781 151.792969 195.097656 152.5 194.214844 152.5 Z M 194.214844 152.5 " fill-opacity="1" fill-rule="nonzero"/><path fill="#000000" d="M 144.457031 147.925781 C 144.132812 147.925781 143.808594 147.824219 143.53125 147.617188 L 129.367188 137.253906 C 128.660156 136.742188 128.515625 135.753906 129.027344 135.050781 C 129.542969 134.34375 130.527344 134.199219 131.234375 134.710938 L 145.398438 145.074219 C 146.105469 145.589844 146.25 146.574219 145.738281 147.28125 C 145.429688 147.707031 144.957031 147.925781 144.457031 147.925781 Z M 144.457031 147.925781 " fill-opacity="1" fill-rule="nonzero"/><path fill="#000000" d="M 233.21875 146.414062 C 232.691406 146.414062 232.160156 146.132812 231.867188 145.648438 C 231.410156 144.898438 231.660156 143.929688 232.410156 143.472656 L 247.058594 134.625 C 247.808594 134.183594 248.78125 134.417969 249.234375 135.167969 C 249.691406 135.917969 249.441406 136.886719 248.691406 137.34375 L 234.042969 146.191406 C 233.777344 146.339844 233.5 146.414062 233.21875 146.414062 Z M 233.21875 146.414062 " fill-opacity="1" fill-rule="nonzero"/><path fill="#c38863" d="M 129.117188 130.492188 C 127.367188 128.597656 124.691406 127.671875 123.191406 130.300781 C 121.011719 134.066406 121.25 139.105469 121.558594 143.265625 C 121.808594 146.632812 122.234375 150.015625 123.117188 153.277344 C 123.882812 156.113281 124.925781 159.996094 127.441406 161.761719 C 128.015625 162.15625 128.808594 162.554688 129.527344 162.714844 C 129.925781 162.804688 132.339844 162.847656 131.527344 161.789062 " fill-opacity="1" fill-rule="nonzero"/><path fill="#c38863" d="M 246.675781 130.492188 C 248.425781 128.597656 251.105469 127.671875 252.605469 130.300781 C 254.78125 134.066406 254.546875 139.105469 254.238281 143.265625 C 253.988281 146.632812 253.558594 150.015625 252.679688 153.277344 C 251.914062 156.113281 250.867188 159.996094 248.355469 161.761719 C 247.78125 162.15625 246.984375 162.554688 246.265625 162.714844 C 245.867188 162.804688 243.457031 162.847656 244.265625 161.789062 " fill-opacity="1" fill-rule="nonzero"/></svg>