<svg xmlns="http://www.w3.org/2000/svg" xmlns:xlink="http://www.w3.org/1999/xlink" width="500" zoomAndPan="magnify" viewBox="0 0 375 374.999991" height="500" preserveAspectRatio="xMidYMid meet" version="1.0"><defs><clipPath id="id1"><path d="M 0 0 L 374 0 L 374 372.75 L 0 372.75 Z M 0 0 " clip-rule="nonzero"/></clipPath><clipPath id="id2"><path d="M 163 62 L 375 62 L 375 372.75 L 163 372.75 Z M 163 62 " clip-rule="nonzero"/></clipPath><clipPath id="id3"><path d="M 52 200 L 321 200 L 321 372.75 L 52 372.75 Z M 52 200 " clip-rule="nonzero"/></clipPath><clipPath id="id4"><path d="M 52 282 L 321 282 L 321 372.75 L 52 372.75 Z M 52 282 " clip-rule="nonzero"/></clipPath></defs><rect x="-37.5" width="450" fill="#ffffff" y="-37.499999" height="449.999989" fill-opacity="1"/><rect x="-37.5" width="450" fill="#ffffff" y="-37.499999" height="449.999989" fill-opacity="1"/><rect x="-37.5" width="450" fill="#ffffff" y="-37.499999" height="449.999989" fill-opacity="1"/><g clip-path="url(#id1)"><path fill="#98c662" d="M 373.507812 186.449219 C 373.507812 232.769531 356.578125 275.171875 328.59375 307.769531 C 326.066406 310.722656 323.433594 313.585938 320.714844 316.378906 C 313.785156 323.507812 306.269531 330.097656 298.273438 336.03125 C 267.222656 359.160156 228.726562 372.835938 187.03125 372.835938 C 186.460938 372.835938 185.90625 372.835938 185.335938 372.824219 C 159.3125 372.605469 134.578125 367.035156 112.136719 357.1875 C 99.152344 351.503906 86.960938 344.386719 75.730469 336.03125 C 67.605469 329.964844 59.988281 323.273438 52.953125 315.996094 C 50.367188 313.339844 47.867188 310.589844 45.453125 307.785156 C 17.472656 275.1875 0.527344 232.78125 0.527344 186.449219 C 0.527344 83.507812 84.035156 0.0585938 187.03125 0.0585938 C 257.703125 0.0585938 319.195312 39.363281 350.832031 97.300781 C 361.328125 116.515625 368.519531 137.777344 371.695312 160.335938 C 372.894531 168.871094 373.507812 177.59375 373.507812 186.449219 Z M 373.507812 186.449219 " fill-opacity="1" fill-rule="nonzero"/></g><g clip-path="url(#id2)"><path fill="#58b465" d="M 374.324219 186.449219 C 374.324219 232.769531 357.394531 275.171875 329.414062 307.769531 C 326.882812 310.722656 324.253906 313.585938 321.535156 316.378906 C 314.605469 323.507812 307.089844 330.097656 299.09375 336.03125 C 268.039062 359.160156 229.546875 372.835938 187.851562 372.835938 C 187.28125 372.835938 186.726562 372.835938 186.15625 372.824219 L 163.582031 332.742188 L 243.480469 62.21875 L 372.511719 160.335938 C 373.710938 168.871094 374.324219 177.59375 374.324219 186.449219 Z M 374.324219 186.449219 " fill-opacity="1" fill-rule="nonzero"/></g><path fill="#092838" d="M 260.714844 151.117188 C 266.605469 122.753906 265.335938 92.113281 245.699219 69.875 C 239.339844 62.671875 231.445312 57.21875 223.097656 53.054688 C 205.394531 44.214844 186.285156 42.59375 167.355469 47.09375 C 149.125 51.433594 136.082031 62.394531 126.652344 80.203125 C 107.5 116.414062 113.246094 170.082031 137.9375 201.425781 C 147.195312 213.171875 160.21875 220.875 173.875 225.097656 C 181.726562 227.523438 190.015625 228.867188 198.039062 227.257812 C 203.421875 226.179688 208.507812 223.78125 213.332031 220.945312 C 236.738281 207.183594 253.828125 181.902344 260.128906 153.863281 C 260.320312 152.941406 260.527344 152.035156 260.714844 151.117188 Z M 260.714844 151.117188 " fill-opacity="1" fill-rule="nonzero"/><g clip-path="url(#id3)"><path fill="#ecc090" d="M 272.792969 268.449219 L 227.953125 253.851562 C 219.679688 251.164062 214.078125 243.449219 214.078125 234.753906 L 214.078125 200.375 L 159.765625 200.375 L 159.765625 235.179688 C 159.765625 243.945312 154.078125 251.691406 145.71875 254.335938 L 100.804688 268.507812 C 77.546875 275.59375 59.929688 293.683594 52.941406 316.011719 C 59.972656 323.289062 67.589844 329.980469 75.71875 336.042969 C 86.945312 344.402344 99.136719 351.519531 112.121094 357.203125 C 135.042969 367.269531 160.367188 372.851562 187.015625 372.851562 C 228.714844 372.851562 267.207031 359.175781 298.257812 336.042969 C 306.257812 330.113281 313.769531 323.523438 320.699219 316.390625 C 313.828125 293.859375 296.167969 275.609375 272.792969 268.449219 Z M 272.792969 268.449219 " fill-opacity="1" fill-rule="nonzero"/></g><g clip-path="url(#id4)"><path fill="#fff599" d="M 298.054688 282.199219 L 189.707031 321.066406 L 75.558594 282.199219 C 64.988281 291.039062 57.09375 302.757812 52.953125 315.996094 C 59.988281 323.273438 67.605469 329.964844 75.730469 336.03125 C 86.960938 344.386719 99.152344 351.503906 112.136719 357.1875 C 135.058594 367.257812 160.378906 372.835938 187.03125 372.835938 C 228.726562 372.835938 267.222656 359.160156 298.273438 336.03125 C 306.269531 330.097656 313.785156 323.507812 320.714844 316.378906 C 316.621094 302.992188 308.699219 291.140625 298.054688 282.199219 Z M 298.054688 282.199219 " fill-opacity="1" fill-rule="nonzero"/></g><path fill="#fbcb98" d="M 245.511719 123.382812 C 245.363281 81.8125 219.910156 51.960938 186.988281 51.960938 C 186.972656 51.960938 186.945312 51.960938 186.929688 51.960938 C 186.914062 51.960938 186.886719 51.960938 186.871094 51.960938 C 153.960938 51.960938 128.496094 81.8125 128.347656 123.382812 C 128.277344 142.335938 128.800781 147.054688 130.730469 160.804688 C 136.726562 203.558594 176.242188 223.3125 186.871094 223.3125 C 199.898438 223.3125 236.828125 203.558594 242.820312 160.804688 C 244.75 147.054688 245.585938 142.335938 245.511719 123.382812 Z M 245.511719 123.382812 " fill-opacity="1" fill-rule="nonzero"/><path fill="#fbcb98" d="M 128.347656 129.710938 C 126.609375 127.824219 123.949219 126.90625 122.457031 129.519531 C 120.292969 133.261719 120.527344 138.273438 120.835938 142.40625 C 121.082031 145.753906 121.507812 149.113281 122.382812 152.359375 C 123.144531 155.179688 124.183594 159.035156 126.683594 160.789062 C 127.253906 161.183594 128.042969 161.578125 128.757812 161.738281 C 129.152344 161.828125 131.550781 161.871094 130.746094 160.820312 " fill-opacity="1" fill-rule="nonzero"/><path fill="#fbcb98" d="M 245.203125 129.710938 C 246.945312 127.824219 249.605469 126.90625 251.097656 129.519531 C 253.257812 133.261719 253.027344 138.273438 252.71875 142.40625 C 252.46875 145.753906 252.046875 149.113281 251.167969 152.359375 C 250.410156 155.179688 249.371094 159.035156 246.871094 160.789062 C 246.300781 161.183594 245.511719 161.578125 244.792969 161.738281 C 244.398438 161.828125 242.003906 161.871094 242.804688 160.820312 " fill-opacity="1" fill-rule="nonzero"/><path fill="#092838" d="M 214.546875 152.796875 C 217.542969 153.644531 220.644531 154.15625 223.859375 154.230469 C 223.933594 151.597656 224.019531 148.953125 224.09375 146.324219 C 234.707031 150.824219 240.21875 165.390625 242.28125 175.824219 C 242.089844 174.890625 246.050781 169.835938 246.59375 168.605469 C 247.863281 165.773438 248.464844 162.792969 249.457031 159.867188 C 251.550781 153.671875 253.140625 147.667969 254.109375 141.105469 C 256.167969 126.933594 256.183594 112.367188 252.9375 98.367188 C 248.40625 78.847656 229.136719 58.566406 210.015625 50.921875 C 202.296875 47.839844 194.429688 46.859375 186.214844 46.859375 C 183.1875 46.859375 180.175781 47.066406 177.179688 47.519531 C 153.539062 51.097656 136.945312 69.65625 129.34375 91.414062 C 125.425781 102.605469 123.671875 114.558594 123.949219 126.394531 C 124.152344 134.851562 124.589844 152.09375 131.054688 158.304688 C 135.863281 149.507812 128.789062 140.054688 136.402344 132.53125 C 141.007812 127.984375 146.625 124.640625 151.59375 120.503906 C 155.863281 116.96875 157.894531 111.269531 161.855469 107.953125 C 169.007812 113.796875 174.808594 122.492188 181.242188 129.226562 C 190.6875 139.164062 201.695312 149.160156 214.546875 152.796875 Z M 214.546875 152.796875 " fill-opacity="1" fill-rule="nonzero"/><path fill="#092838" d="M 245.292969 195.785156 C 243.742188 201.367188 242.398438 207.109375 242.703125 212.882812 C 243.097656 220.390625 246.226562 227.476562 249.589844 234.214844 C 255.832031 246.707031 263.085938 258.777344 267.675781 271.972656 C 269.808594 278.109375 271.34375 284.523438 271.210938 291.011719 C 270.933594 304.660156 263.289062 317.195312 253.886719 327.101562 C 244.488281 337.007812 233.230469 344.972656 223.347656 354.410156 C 229.808594 339.027344 234.488281 322.894531 237.28125 306.441406 C 238.039062 301.941406 238.65625 297.28125 237.457031 292.867188 C 235.585938 285.96875 229.707031 281.058594 225.074219 275.625 C 210.496094 258.542969 207.527344 232.445312 217.921875 212.53125 C 221.753906 205.179688 227.132812 198.78125 232.148438 192.207031 C 239.632812 182.386719 246.433594 172.039062 252.46875 161.273438 C 251.855469 162.382812 253.828125 168.152344 253.683594 169.835938 C 253.464844 172.203125 252.601562 174.070312 251.769531 176.308594 C 249.339844 182.722656 247.132812 189.179688 245.292969 195.785156 Z M 245.292969 195.785156 " fill-opacity="1" fill-rule="nonzero"/><path fill="#092838" d="M 130.03125 196.28125 C 131.578125 201.863281 132.925781 207.605469 132.617188 213.378906 C 132.222656 220.886719 129.09375 227.976562 125.730469 234.710938 C 119.488281 247.203125 112.238281 259.273438 107.648438 272.46875 C 105.511719 278.605469 103.976562 285.019531 104.109375 291.507812 C 104.386719 305.15625 112.03125 317.691406 121.433594 327.597656 C 130.832031 337.507812 142.089844 345.46875 151.972656 354.910156 C 145.511719 339.523438 140.832031 323.390625 138.042969 306.9375 C 137.28125 302.4375 136.667969 297.777344 137.867188 293.363281 C 139.738281 286.464844 145.613281 281.558594 150.25 276.121094 C 164.824219 259.039062 167.792969 232.941406 157.398438 213.027344 C 153.566406 205.675781 148.1875 199.277344 143.171875 192.703125 C 135.6875 182.882812 128.890625 172.539062 122.851562 161.769531 C 123.464844 162.878906 121.492188 168.652344 121.636719 170.332031 C 121.859375 172.699219 122.71875 174.570312 123.554688 176.804688 C 125.980469 183.21875 128.1875 189.675781 130.03125 196.28125 Z M 130.03125 196.28125 " fill-opacity="1" fill-rule="nonzero"/></svg>