<svg xmlns="http://www.w3.org/2000/svg" xmlns:xlink="http://www.w3.org/1999/xlink" width="500" zoomAndPan="magnify" viewBox="0 0 375 374.999991" height="500" preserveAspectRatio="xMidYMid meet" version="1.0"><defs><clipPath id="id1"><path d="M 0 0 L 374 0 L 374 372.75 L 0 372.75 Z M 0 0 " clip-rule="nonzero"/></clipPath><clipPath id="id2"><path d="M 163 62 L 375 62 L 375 372.75 L 163 372.75 Z M 163 62 " clip-rule="nonzero"/></clipPath><clipPath id="id3"><path d="M 52 200 L 321 200 L 321 372.75 L 52 372.75 Z M 52 200 " clip-rule="nonzero"/></clipPath><clipPath id="id4"><path d="M 52 226 L 321 226 L 321 372.75 L 52 372.75 Z M 52 226 " clip-rule="nonzero"/></clipPath></defs><rect x="-37.5" width="450" fill="#ffffff" y="-37.499999" height="449.999989" fill-opacity="1"/><rect x="-37.5" width="450" fill="#ffffff" y="-37.499999" height="449.999989" fill-opacity="1"/><rect x="-37.5" width="450" fill="#ffffff" y="-37.499999" height="449.999989" fill-opacity="1"/><g clip-path="url(#id1)"><path fill="#ffdd3c" d="M 373.507812 186.449219 C 373.507812 232.769531 356.578125 275.171875 328.59375 307.769531 C 326.066406 310.722656 323.433594 313.585938 320.714844 316.378906 C 313.785156 323.507812 306.269531 330.097656 298.273438 336.03125 C 267.222656 359.160156 228.726562 372.835938 187.03125 372.835938 C 186.460938 372.835938 185.90625 372.835938 185.335938 372.824219 C 159.3125 372.605469 134.578125 367.035156 112.136719 357.1875 C 99.152344 351.503906 86.960938 344.386719 75.730469 336.03125 C 67.605469 329.964844 59.988281 323.273438 52.953125 315.996094 C 50.367188 313.339844 47.867188 310.589844 45.453125 307.785156 C 17.472656 275.1875 0.527344 232.78125 0.527344 186.449219 C 0.527344 83.507812 84.035156 0.0585938 187.03125 0.0585938 C 257.703125 0.0585938 319.195312 39.363281 350.832031 97.300781 C 361.328125 116.515625 368.519531 137.777344 371.695312 160.335938 C 372.894531 168.871094 373.507812 177.59375 373.507812 186.449219 Z M 373.507812 186.449219 " fill-opacity="1" fill-rule="nonzero"/></g><g clip-path="url(#id2)"><path fill="#fcc33d" d="M 374.324219 186.449219 C 374.324219 232.769531 357.394531 275.171875 329.414062 307.769531 C 326.882812 310.722656 324.253906 313.585938 321.535156 316.378906 C 314.605469 323.507812 307.089844 330.097656 299.09375 336.03125 C 268.039062 359.160156 229.546875 372.835938 187.851562 372.835938 C 187.28125 372.835938 186.726562 372.835938 186.15625 372.824219 L 163.582031 332.742188 L 243.480469 62.21875 L 372.511719 160.335938 C 373.710938 168.871094 374.324219 177.59375 374.324219 186.449219 Z M 374.324219 186.449219 " fill-opacity="1" fill-rule="nonzero"/></g><path fill="#a66a43" d="M 289.105469 153.980469 C 288.917969 153.820312 288.710938 153.660156 288.507812 153.5 C 281.140625 147.753906 269.867188 144.863281 268.257812 135.730469 C 266.535156 126.011719 277.761719 118.707031 279.414062 108.976562 C 280.453125 102.925781 277.585938 96.878906 274.046875 91.851562 C 268.710938 84.253906 261.839844 78.496094 253.976562 73.71875 C 246.839844 69.390625 242.878906 58.535156 237.074219 52.238281 C 231.082031 45.734375 223.566406 40.328125 214.957031 38.269531 C 206.34375 36.207031 196.578125 37.890625 190.101562 43.921875 C 189.460938 44.523438 188.726562 45.210938 187.851562 45.152344 C 187.265625 45.105469 186.753906 44.742188 186.285156 44.390625 C 175.015625 36.265625 158.757812 35.800781 147.03125 43.25 C 143.070312 45.777344 139.664062 49.066406 136.285156 52.324219 C 126.929688 61.371094 117.574219 70.414062 108.65625 79.882812 C 101.859375 87.101562 92.777344 98.175781 94.621094 108.976562 C 96.289062 118.691406 107.5 126.011719 105.777344 135.730469 C 104.152344 144.863281 92.894531 147.753906 85.527344 153.5 C 85.324219 153.660156 85.132812 153.820312 84.929688 153.980469 C 76.375 161.039062 74.082031 174.570312 79.8125 184.066406 C 84.636719 192.074219 94.078125 196.9375 97.371094 205.691406 C 101.347656 216.285156 94.824219 227.566406 90.03125 237.808594 C 85.234375 248.066406 83.042969 262.414062 92.355469 268.84375 C 95.570312 271.066406 99.578125 271.796875 102.96875 273.738281 C 114.898438 280.578125 114.09375 297.585938 113.496094 311.320312 C 113.378906 314.039062 113.378906 316.945312 114.824219 319.253906 C 116.230469 321.476562 118.742188 322.75 121.214844 323.640625 C 142.617188 331.425781 167.5 318.292969 178.902344 298.578125 C 182.089844 293.058594 184.296875 287.488281 185.761719 281.847656 C 188.726562 287.519531 191.914062 293.101562 195.101562 298.578125 C 206.503906 318.292969 231.386719 331.425781 252.792969 323.640625 C 255.261719 322.734375 257.777344 321.476562 259.179688 319.253906 C 260.628906 316.945312 260.628906 314.039062 260.511719 311.320312 C 259.910156 297.585938 259.09375 280.578125 271.035156 273.738281 C 274.429688 271.796875 278.433594 271.066406 281.652344 268.84375 C 290.964844 262.414062 288.769531 248.050781 283.976562 237.808594 C 279.179688 227.550781 272.660156 216.285156 276.636719 205.691406 C 279.925781 196.9375 289.371094 192.074219 294.195312 184.066406 C 299.953125 174.582031 297.660156 161.050781 289.105469 153.980469 Z M 289.105469 153.980469 " fill-opacity="1" fill-rule="nonzero"/><g clip-path="url(#id3)"><path fill="#eec191" d="M 272.792969 268.449219 L 227.953125 253.851562 C 219.679688 251.164062 214.078125 243.449219 214.078125 234.753906 L 214.078125 200.375 L 159.765625 200.375 L 159.765625 235.179688 C 159.765625 243.945312 154.078125 251.691406 145.71875 254.335938 L 100.804688 268.507812 C 77.546875 275.59375 59.929688 293.683594 52.941406 316.011719 C 59.972656 323.289062 67.589844 329.980469 75.71875 336.042969 C 86.945312 344.402344 99.136719 351.519531 112.121094 357.203125 C 135.042969 367.269531 160.367188 372.851562 187.015625 372.851562 C 228.714844 372.851562 267.207031 359.175781 298.257812 336.042969 C 306.257812 330.113281 313.769531 323.523438 320.699219 316.390625 C 313.828125 293.859375 296.167969 275.609375 272.792969 268.449219 Z M 272.792969 268.449219 " fill-opacity="1" fill-rule="nonzero"/></g><g clip-path="url(#id4)"><path fill="#092838" d="M 272.792969 268.449219 L 227.953125 253.851562 C 219.679688 251.164062 214.078125 243.449219 214.078125 234.753906 L 214.078125 227.757812 C 196.769531 232.59375 176.753906 231.890625 159.765625 226.382812 L 159.765625 235.179688 C 159.765625 243.945312 154.078125 251.691406 145.71875 254.335938 L 100.804688 268.507812 C 77.546875 275.59375 59.929688 293.683594 52.941406 316.011719 C 59.972656 323.289062 67.589844 329.980469 75.71875 336.042969 C 86.945312 344.402344 99.136719 351.519531 112.121094 357.203125 C 135.042969 367.269531 160.367188 372.851562 187.015625 372.851562 C 228.714844 372.851562 267.207031 359.175781 298.257812 336.042969 C 306.257812 330.113281 313.769531 323.523438 320.699219 316.390625 C 313.828125 293.859375 296.167969 275.609375 272.792969 268.449219 Z M 272.792969 268.449219 " fill-opacity="1" fill-rule="nonzero"/></g><path fill="#fbcb98" d="M 245.511719 123.382812 C 245.363281 81.8125 219.910156 51.960938 186.988281 51.960938 C 186.972656 51.960938 186.945312 51.960938 186.929688 51.960938 C 186.914062 51.960938 186.886719 51.960938 186.871094 51.960938 C 153.960938 51.960938 128.496094 81.8125 128.347656 123.382812 C 128.277344 142.335938 128.800781 147.054688 130.730469 160.804688 C 136.726562 203.558594 176.242188 223.3125 186.871094 223.3125 C 199.898438 223.3125 236.828125 203.558594 242.820312 160.804688 C 244.75 147.054688 245.585938 142.335938 245.511719 123.382812 Z M 245.511719 123.382812 " fill-opacity="1" fill-rule="nonzero"/><path fill="#a66a43" d="M 222.996094 138.695312 C 223.449219 135.847656 224.824219 126.757812 227.703125 125.210938 C 231.972656 122.914062 235.730469 132.429688 236.78125 135.363281 C 238.785156 140.960938 240.527344 146.644531 242.03125 152.402344 C 242.265625 153.277344 243.113281 154.390625 243.800781 153.804688 C 244.003906 153.628906 244.09375 153.351562 244.167969 153.089844 C 245.613281 147.640625 246.578125 142.335938 246.578125 136.753906 C 246.578125 130.175781 248.097656 123.703125 247.804688 117.042969 C 244.457031 41.46875 186.242188 46.859375 186.214844 46.859375 C 153.304688 46.859375 125.921875 73.527344 125.777344 115.097656 C 125.746094 122.332031 126.402344 129.636719 125.496094 136.753906 C 125.015625 140.507812 125.980469 144.613281 126.742188 148.296875 C 127.164062 150.371094 127.660156 152.429688 128.230469 154.476562 C 128.582031 155.703125 130.25 158.800781 129.984375 159.984375 C 131.636719 152.578125 133.289062 145.167969 134.941406 137.761719 C 135.777344 134.007812 136.683594 130.105469 139.09375 127.109375 C 139.589844 126.480469 140.191406 125.882812 140.964844 125.675781 C 142.136719 125.355469 143.378906 126.042969 144.078125 127.035156 C 144.78125 128.015625 145.03125 129.242188 145.25 130.425781 C 145.804688 133.554688 146.125 136.722656 146.242188 139.894531 C 159.152344 140.011719 172.148438 139.878906 185.101562 139.878906 C 194.78125 139.851562 222.734375 140.449219 222.996094 138.695312 Z M 222.996094 138.695312 " fill-opacity="1" fill-rule="nonzero"/><path fill="#fbcb98" d="M 128.347656 129.710938 C 126.609375 127.824219 123.949219 126.90625 122.457031 129.519531 C 120.292969 133.261719 120.527344 138.273438 120.835938 142.40625 C 121.082031 145.753906 121.507812 149.113281 122.382812 152.359375 C 123.144531 155.179688 124.183594 159.035156 126.683594 160.789062 C 127.253906 161.183594 128.042969 161.578125 128.757812 161.738281 C 129.152344 161.828125 131.550781 161.871094 130.746094 160.820312 " fill-opacity="1" fill-rule="nonzero"/><path fill="#fbcb98" d="M 245.203125 129.710938 C 246.945312 127.824219 249.605469 126.90625 251.097656 129.519531 C 253.257812 133.261719 253.027344 138.273438 252.71875 142.40625 C 252.46875 145.753906 252.046875 149.113281 251.167969 152.359375 C 250.410156 155.179688 249.371094 159.035156 246.871094 160.789062 C 246.300781 161.183594 245.511719 161.578125 244.792969 161.738281 C 244.398438 161.828125 242.003906 161.871094 242.804688 160.820312 " fill-opacity="1" fill-rule="nonzero"/></svg>